<?xml version="1.0" encoding="UTF-8" standalone="no"?>
<svg xmlns="http://www.w3.org/2000/svg" viewBox="0 0 16 16" version="1.1">
  <defs>
    <style id="current-color-scheme" type="text/css">
      .ColorScheme-Text { color: #939597; }
      .ColorScheme-Highlight { color:#5294e2; }
    </style>
    <linearGradient id="arrongin" x1="0%" x2="0%" y1="0%" y2="100%">
      <stop offset="0%" style="stop-color:#dd9b44; stop-opacity:1"/>
      <stop offset="100%" style="stop-color:#ad6c16; stop-opacity:1"/>
    </linearGradient>
    <linearGradient id="aurora" x1="0%" x2="0%" y1="0%" y2="100%">
      <stop offset="0%" style="stop-color:#09D4DF; stop-opacity:1"/>
      <stop offset="100%" style="stop-color:#9269F4; stop-opacity:1"/>
    </linearGradient>
    <linearGradient id="cyberneon" x1="0%" x2="0%" y1="0%" y2="100%">
      <stop offset="0" style="stop-color:#0abdc6; stop-opacity:1"/>
      <stop offset="1" style="stop-color:#ea00d9; stop-opacity:1"/>
    </linearGradient>
    <linearGradient id="fitdance" x1="0%" x2="0%" y1="0%" y2="100%">
      <stop offset="0%" style="stop-color:#1AD6AB; stop-opacity:1"/>
      <stop offset="100%" style="stop-color:#329DB6; stop-opacity:1"/>
    </linearGradient>
    <linearGradient id="oomox" x1="0%" x2="0%" y1="0%" y2="100%">
      <stop offset="0%" style="stop-color:#c9b184; stop-opacity:1"/>
      <stop offset="100%" style="stop-color:#aa7f2a; stop-opacity:1"/>
    </linearGradient>
    <linearGradient id="rainblue" x1="0%" x2="0%" y1="0%" y2="100%">
      <stop offset="0%" style="stop-color:#00F260; stop-opacity:1"/>
      <stop offset="100%" style="stop-color:#0575E6; stop-opacity:1"/>
    </linearGradient>
    <linearGradient id="sunrise" x1="0%" x2="0%" y1="0%" y2="100%">
      <stop offset="0%" style="stop-color: #FF8501; stop-opacity:1"/>
      <stop offset="100%" style="stop-color: #FFCB01; stop-opacity:1"/>
    </linearGradient>
    <linearGradient id="telinkrin" x1="0%" x2="0%" y1="0%" y2="100%">
      <stop offset="0%" style="stop-color: #b2ced6; stop-opacity:1"/>
      <stop offset="100%" style="stop-color: #6da5b7; stop-opacity:1"/>
    </linearGradient>
    <linearGradient id="60spsycho" x1="0%" x2="0%" y1="0%" y2="100%">
      <stop offset="0%" style="stop-color: #df5940; stop-opacity:1"/>
      <stop offset="25%" style="stop-color: #d8d15f; stop-opacity:1"/>
      <stop offset="50%" style="stop-color: #e9882a; stop-opacity:1"/>
      <stop offset="100%" style="stop-color: #279362; stop-opacity:1"/>
    </linearGradient>
    <linearGradient id="90ssummer" x1="0%" x2="0%" y1="0%" y2="100%">
      <stop offset="0%" style="stop-color: #f618c7; stop-opacity:1"/>
      <stop offset="20%" style="stop-color: #94ffab; stop-opacity:1"/>
      <stop offset="50%" style="stop-color: #fbfd54; stop-opacity:1"/>
      <stop offset="100%" style="stop-color: #0f83ae; stop-opacity:1"/>
    </linearGradient>
  </defs>

  <g id="amarok">
    <path id="box" fill="none" d="m0 0h16v16h-16z" />
    <path fill="url(#oomox)" class="ColorScheme-Text" d="m 8,0.00101247 c -4.418278,0 -8,3.58084203 -8,7.99889283 C 0,12.417957 3.581722,16 8,16 c 4.418278,0 8,-3.582043 8,-8.0000947 0,-1.2787933 -0.300552,-2.488078 -0.834135,-3.5601386 -0.0063,-0.011267 -0.02345,-0.027567 -0.02884,-0.03846 4.7e-4,-2.307e-4 0.0051,-0.0024 0.006,-0.0024 0.18504,-0.2185487 0.28125,-0.4676973 0.28125,-0.7103448 0,-0.175221 -0.0691,-0.3563213 -0.129807,-0.4927943 2.9e-4,2.6e-4 0.006,0.00361 0.006,0.00361 0,0 -8e-4,-0.1230896 -0.07572,-0.2980805 -0.075,-0.174991 -0.174279,-0.3004843 -0.174279,-0.3004843 0,0 -0.2375,0.037502 -0.375,0.062501 C 14.54578,2.6869027 14.20274,2.8762845 14.16226,2.8988833 12.449515,1.2215381 10.750717,-0.04087179 8,0.00101247 Z m 0.1995193,0.4002452 C 10.354872,0.40452434 12.401988,1.3471609 13.805289,2.9830189 13.033548,3.1737292 11.818219,3.6171177 11.393029,3.7234123 10.898049,3.8471459 10.666297,3.9584861 9.872596,3.88327 8.9679067,3.7975744 8.5624893,3.7910328 8.3245193,3.7979325 7.9681793,3.7664342 7.78726,3.6885561 7.78726,3.6885561 L 7.8185067,4.039522 C 7.5816,4.2201413 7.1047293,4.4823887 6.1249993,4.7486647 5.4885993,4.8193613 4.958814,4.6247993 4.6406247,4.8015513 4.3224247,4.978322 3.3131307,5.419412 2.80048,5.5431473 2.28782,5.66688 1.9089087,5.9003793 1.5997587,6.0010847 c -0.48839,0.159092 0.9677093,2.4938893 1.59976,2.8005133 0,0 -0.2174207,0.22577 -0.4002407,0.4158707 C 2.359588,9.5178633 2.0120187,9.537184 2.0120187,9.537184 l 0.022833,0.2403873 C 1.8251607,9.8889707 1.6291447,9.9660693 1.4471113,10.029979 1.1536887,9.2189133 1.0025327,8.3624027 0.999996,7.4999007 1.0039293,6.12519 1.385532,4.778064 2.1033613,3.6056235 3.484018,1.5993383 5.7639847,0.40139434 8.1995153,0.40125867 Z M 14.849759,4.567172 c 0.491759,1.007348 0.748213,2.1134553 0.75,3.2344133 -0.0015,2.4848117 -1.250464,4.8021597 -3.324518,6.1707467 -0.643998,0.375921 -1.340159,0.654053 -2.066106,0.824529 0.03056,-0.234513 0.06119,-0.474459 0.08413,-0.712749 0.17366,-0.255157 0.40625,-0.259619 0.40625,-0.259619 0,0 -0.298922,-0.84923 -0.26923,-1.872618 0.0372,-0.242727 0.09916,-0.472392 0.179086,-0.689912 h 0.302885 c 0,0 -0.0384,-0.416988 0.132211,-0.841356 0.56207,-0.8542063 1.32894,-1.424193 1.65625,-1.675501 0.30878,-0.2370873 1.733124,-0.601186 2.033654,-0.671882 0.30052,-0.070697 0.584484,-0.5484987 0.602164,-0.6899127 0.0177,-0.1414126 -0.09014,-0.4062546 -0.09014,-0.4062546 L 14.820913,6.880902 c 0.105842,0.074996 0.04459,0.150104 -0.133413,0.1814927 -0.057,0.0101 -0.1362,0.014827 -0.22476,0.015627 0,0 -0.09286,-0.3632573 -0.193509,-0.3942353 -0.0861,-0.0265 -0.311454,0.2581893 -0.307692,0.3557733 -0.0963,-0.0163 -0.18823,-0.038107 -0.26202,-0.064907 C 13.424501,6.8746487 13.125,6.8123913 13.125,6.8123913 c 0,0 0.299759,-0.67529 0.724759,-1.3377566 0.27092,-0.422298 0.70796,-0.7295214 1,-0.9074627 z M 9.3653847,4.723424 c 0.48595,-0.004 0.8473553,0.1406267 0.8473553,0.1406267 0,0 0.04704,0.455512 -1.3185093,1.27165 C 8.4755807,6.385898 7.375,6.5515707 7.375,6.5515707 c 0,0 -0.0239,-0.5756474 0.3942307,-1.0745314 0.49929,-0.59577 1.110214,-0.7491553 1.596154,-0.7536153 z M 3.09375,5.990266 c 0.0451,-0.001 0.08074,0.0038 0.1057693,0.01082 0.2,0.0625 0.63733,0.8569087 0.40024,1.198332 L 4,7.59966 C 4.8,6.799702 5.9940687,7.3578247 6.1995193,7.9013467 6.4842493,8.6545973 6.42458,8.564472 5.24399,8.7366933 4.7436907,8.8096893 3.7238233,8.6280327 3.3209133,8.3184187 2.9180033,8.0088047 1.88125,6.3698327 1.96875,6.2823367 2.04535,6.2057407 2.77794,5.998776 3.09375,5.990266 Z m 11.507211,0.5997667 c -0.0675,0.0241 -0.128605,0.3088986 -0.128605,0.3088986 0,0 0.05205,0.02738 0.322115,-0.00841 0.0727,-0.0181 -0.125988,-0.3245607 -0.19351,-0.3004853 z" />
  </g>
</svg>
