<?xml version="1.0" encoding="UTF-8" standalone="no"?>
<svg xmlns="http://www.w3.org/2000/svg" version="1.1" viewBox="0 0 44 22">
  <defs>
    <style id="current-color-scheme" type="text/css">
      .ColorScheme-Text { color: #939597; }
      .ColorScheme-Highlight { color: #1AD6AB; }
    </style>
    <linearGradient id="arrongin" x1="0%" x2="0%" y1="0%" y2="100%">
      <stop offset="0%"    stop-color= "#dd9b44" stop-opacity="1"/>
      <stop offset="100%"  stop-color= "#ad6c16" stop-opacity="1"/>
    </linearGradient>
    <linearGradient id="aurora" x1="0%" x2="0%" y1="0%" y2="100%">
      <stop offset="0%"    stop-color= "#09D4DF" stop-opacity="1"/>
      <stop offset="100%"  stop-color= "#9269F4" stop-opacity="1"/>
    </linearGradient>
    <linearGradient id="cyberneon" x1="0%" x2="0%" y1="0%" y2="100%">
      <stop offset="0"    stop-color= "#0abdc6" stop-opacity="1"/>
      <stop offset="1"    stop-color= "#ea00d9" stop-opacity="1"/>
    </linearGradient>
    <linearGradient id="fitdance" x1="0%" x2="0%" y1="0%" y2="100%">
      <stop offset="0%"    stop-color= "#1AD6AB" stop-opacity="1"/>
      <stop offset="100%"  stop-color= "#329DB6" stop-opacity="1"/>
    </linearGradient>
    <linearGradient id="oomox" x1="0%" x2="0%" y1="0%" y2="100%">
      <stop offset="0%"    stop-color= "#c9b184" stop-opacity="1"/>
      <stop offset="100%"  stop-color= "#aa7f2a" stop-opacity="1"/>
    </linearGradient>
    <linearGradient id="rainblue" x1="0%" x2="0%" y1="0%" y2="100%">
      <stop offset="0%"    stop-color= "#00F260" stop-opacity="1"/>
      <stop offset="100%"  stop-color= "#0575E6" stop-opacity="1"/>
    </linearGradient>
    <linearGradient id="sunrise" x1="0%" x2="0%" y1="0%" y2="100%">
      <stop offset="0%"    stop-color= "#FF8501" stop-opacity="1"/>
      <stop offset="100%"  stop-color= "#FFCB01" stop-opacity="1"/>
    </linearGradient>
    <linearGradient id="telinkrin" x1="0%" x2="0%" y1="0%" y2="100%">
      <stop offset="0%"    stop-color= "#b2ced6" stop-opacity="1"/>
      <stop offset="100%"  stop-color= "#6da5b7" stop-opacity="1"/>
    </linearGradient>
    <linearGradient id="60spsycho" x1="0%" x2="0%" y1="0%" y2="100%">
      <stop offset="0%"    stop-color= "#df5940" stop-opacity="1"/>
      <stop offset="25%"   stop-color= "#d8d15f" stop-opacity="1"/>
      <stop offset="50%"   stop-color= "#e9882a" stop-opacity="1"/>
      <stop offset="100%"  stop-color= "#279362" stop-opacity="1"/>
    </linearGradient>
    <linearGradient id="90ssummer" x1="0%" x2="0%" y1="0%" y2="100%">
      <stop offset="0%"    stop-color= "#f618c7" stop-opacity="1"/>
      <stop offset="20%"   stop-color= "#94ffab" stop-opacity="1"/>
      <stop offset="50%"   stop-color= "#fbfd54" stop-opacity="1"/>
      <stop offset="100%"  stop-color= "#0f83ae" stop-opacity="1"/>
    </linearGradient>

    <path id="box" fill="none" d="m0 0h16v16h-16z" />
  </defs>

  <g id="computer">
    <use href="#box" />
    <path fill="url(#oomox)" class="ColorScheme-Text" d="M 3.9941406 0 C 2.7359406 0.0145 1.81525 -0.030604375 1.0625 0.38476562 C 0.68613 0.59242563 0.38926937 0.9441525 0.22460938 1.3828125 C 0.059939375 1.8214825 1.8503717e-17 2.34239 0 3 L 0 9 C 0 9.65761 0.059899375 10.178527 0.22460938 10.617188 C 0.38927937 11.055848 0.68613 11.407584 1.0625 11.615234 C 1.81525 12.030554 2.7359506 11.98543 3.9941406 12 L 3.9980469 12 L 6 12 L 6 13 L 10 13 L 10 12 L 12.001953 12 L 12.005859 12 C 13.264049 11.9855 14.18475 12.030604 14.9375 11.615234 C 15.31387 11.407574 15.610721 11.055848 15.775391 10.617188 C 15.939881 10.178517 16 9.65761 16 9 L 16 3 C 16 2.34239 15.940101 1.8214825 15.775391 1.3828125 C 15.610731 0.9441525 15.31387 0.59242563 14.9375 0.38476562 C 14.18475 -0.030574375 13.264059 0.01452 12.005859 0 L 12.001953 0 L 3.9980469 0 L 3.9941406 0 z M 4 1 L 12 1 C 13.25852 1.0147 14.087175 1.0597988 14.453125 1.2617188 C 14.636535 1.3629187 14.742284 1.474455 14.839844 1.734375 C 14.937274 1.994285 15 2.40761 15 3 L 15 9 C 15 9.59239 14.937404 10.005725 14.839844 10.265625 C 14.742244 10.525535 14.636535 10.637091 14.453125 10.738281 C 14.087175 10.940191 13.25852 10.98529 12 11 L 4.0058594 11 L 4 11 C 2.74147 10.9853 1.9108819 10.940201 1.5449219 10.738281 C 1.3615119 10.637091 1.2577162 10.525535 1.1601562 10.265625 C 1.0625862 10.005725 1 9.59239 1 9 L 1 3 C 1 2.40761 1.0625963 1.994275 1.1601562 1.734375 C 1.2577562 1.474465 1.3615119 1.3629088 1.5449219 1.2617188 C 1.9108819 1.0598087 2.74147 1.01471 4 1 z M 3 14 L 0 15 L 0 16 L 16 16 L 16 15 L 13 14 L 3 14 z"/>
  </g>
  <g id="computer-laptop" transform="translate(22,0)">
    <use href="#box" />
    <path fill="url(#oomox)" class="ColorScheme-Text" d="M 13.333 12 C 14.067 12 14.66 11.4 14.66 10.667 L 14.667 3.333 C 14.667 2.6 14.067 2 13.333 2 L 2.667 2 C 1.933 2 1.333 2.6 1.333 3.333 L 1.333 10.667 C 1.333 11.4 1.933 12 2.667 12 L 0 12 C 0 12.733 0.6 13.333 1.333 13.333 L 14.667 13.333 C 15.4 13.333 16 12.733 16 12 L 13.333 12 Z M 2.667 3.333 L 13.333 3.333 L 13.333 10.667 L 2.667 10.667 L 2.667 3.333 Z M 8 12.667 C 7.633 12.667 7.333 12.367 7.333 12 C 7.333 11.633 7.633 11.333 8 11.333 C 8.367 11.333 8.667 11.633 8.667 12 C 8.667 12.367 8.367 12.667 8 12.667 Z"/>
  </g>
</svg>
