<?xml version="1.0" encoding="UTF-8"?>
<svg xmlns="http://www.w3.org/2000/svg" version="1.1" viewBox="0 0 242 132">
  <defs>
    <style id="current-color-scheme" type="text/css">
      .ColorScheme-Text { color: #939597; }
      .ColorScheme-Highlight { color: #1AD6AB; }
    </style>
    <linearGradient id="arrongin" x1="0%" x2="0%" y1="0%" y2="100%">
      <stop offset="0%"    stop-color= "#dd9b44" stop-opacity="1"/>
      <stop offset="100%"  stop-color= "#ad6c16" stop-opacity="1"/>
    </linearGradient>
    <linearGradient id="aurora" x1="0%" x2="0%" y1="0%" y2="100%">
      <stop offset="0%"    stop-color= "#09D4DF" stop-opacity="1"/>
      <stop offset="100%"  stop-color= "#9269F4" stop-opacity="1"/>
    </linearGradient>
    <linearGradient id="cyberneon" x1="0%" x2="0%" y1="0%" y2="100%">
      <stop offset="0"    stop-color= "#0abdc6" stop-opacity="1"/>
      <stop offset="1"    stop-color= "#ea00d9" stop-opacity="1"/>
    </linearGradient>
    <linearGradient id="fitdance" x1="0%" x2="0%" y1="0%" y2="100%">
      <stop offset="0%"    stop-color= "#1AD6AB" stop-opacity="1"/>
      <stop offset="100%"  stop-color= "#329DB6" stop-opacity="1"/>
    </linearGradient>
    <linearGradient id="oomox" x1="0%" x2="0%" y1="0%" y2="100%">
      <stop offset="0%"    stop-color= "#c9b184" stop-opacity="1"/>
      <stop offset="100%"  stop-color= "#aa7f2a" stop-opacity="1"/>
    </linearGradient>
    <linearGradient id="rainblue" x1="0%" x2="0%" y1="0%" y2="100%">
      <stop offset="0%"    stop-color= "#00F260" stop-opacity="1"/>
      <stop offset="100%"  stop-color= "#0575E6" stop-opacity="1"/>
    </linearGradient>
    <linearGradient id="sunrise" x1="0%" x2="0%" y1="0%" y2="100%">
      <stop offset="0%"    stop-color= "#FF8501" stop-opacity="1"/>
      <stop offset="100%"  stop-color= "#FFCB01" stop-opacity="1"/>
    </linearGradient>
    <linearGradient id="telinkrin" x1="0%" x2="0%" y1="0%" y2="100%">
      <stop offset="0%"    stop-color= "#b2ced6" stop-opacity="1"/>
      <stop offset="100%"  stop-color= "#6da5b7" stop-opacity="1"/>
    </linearGradient>
    <linearGradient id="60spsycho" x1="0%" x2="0%" y1="0%" y2="100%">
      <stop offset="0%"    stop-color= "#df5940" stop-opacity="1"/>
      <stop offset="25%"   stop-color= "#d8d15f" stop-opacity="1"/>
      <stop offset="50%"   stop-color= "#e9882a" stop-opacity="1"/>
      <stop offset="100%"  stop-color= "#279362" stop-opacity="1"/>
    </linearGradient>
    <linearGradient id="90ssummer" x1="0%" x2="0%" y1="0%" y2="100%">
      <stop offset="0%"    stop-color= "#f618c7" stop-opacity="1"/>
      <stop offset="20%"   stop-color= "#94ffab" stop-opacity="1"/>
      <stop offset="50%"   stop-color= "#fbfd54" stop-opacity="1"/>
      <stop offset="100%"  stop-color= "#0f83ae" stop-opacity="1"/>
    </linearGradient>

    <path id="box" fill="none" d="m0 0h16v16h-16z" />
  </defs>

  <g id="fcitx" transform="translate(0,0)">
    <use href="#box" />
    <path fill="url(#oomox)" class="ColorScheme-Text" d="M 6.5945993,4.0906423e-4 C 5.6740261,-0.01722094 4.7896335,0.53616406 4.4485569,1.4382521 c -0.4071028,1.076717 -0.2912544,2.243636 -0.2742574,3.367572 0.0055,0.363889 -0.090238,0.69603 -0.2365497,1.009167 -0.070002,0.08142 -0.1394957,0.1585 -0.2061675,0.223033 -0.7231847,0.813102 -2.5207493,2.949954 -1.9482844,5.1394119 -0.144214,0.06455 -0.311347,0.07221 -0.4942603,0.09385 -0.2155529,0.0255 -0.45576047,0.08135 -0.64590201,0.311638 -0.16988674,0.200234 -0.19545436,0.474233 -0.2151195,0.732309 -0.0196946,0.258368 -0.0350061,0.505944 -0.12342945,0.658333 -0.25765359,0.407987 -0.34572707,0.709296 -0.28727906,0.955065 0.05861213,0.246447 0.2608525,0.400191 0.50538224,0.519214 0.48906148,0.238045 1.19621818,0.381587 1.68162378,0.823674 l 2.781e-4,2.83e-4 c 0.5158625,0.464756 1.0865573,0.724621 1.5866769,0.728167 0.4154533,0.003 0.782068,-0.187398 0.9917745,-0.571383 0.1862321,0.03399 0.3804924,0.03033 0.5775408,-0.02677 0.6642089,-0.192494 1.3638259,-0.202406 2.0429596,-0.05934 0.4069838,0.08573 0.8131441,0.0534 1.197943,-0.06542 0.1636029,0.316276 0.442269,0.530318 0.7790962,0.622448 0.4871837,0.133256 1.0903633,0.02504 1.6683313,-0.332891 l 2.77e-4,-2.83e-4 h 5.43e-4 c 0.559051,-0.353785 1.277031,-0.322554 1.795286,-0.436128 0.259127,-0.05679 0.486085,-0.161691 0.57944,-0.396379 0.09331,-0.234577 0.04881,-0.556185 -0.145403,-1.038152 -0.0659,-0.166538 -0.03824,-0.415498 -0.01057,-0.67793 0.02764,-0.262231 0.05449,-0.542386 -0.07758,-0.77675 -0.146484,-0.267741 -0.373334,-0.37224 -0.581339,-0.441925 -0.208123,-0.06972 -0.39817,-0.114845 -0.538206,-0.25312 l -2.79e-4,-2.83e-4 c -0.152394,-0.159085 -0.302725,-0.375097 -0.493444,-0.545712 -0.0018,-0.0016 -0.0039,-0.0031 -0.0057,-0.0047 -0.0072,-0.30084 -0.05582,-0.609146 -0.134552,-0.917525 0.418773,-0.5655098 0.843162,-1.1995589 1.15888,-1.8179379 9.83e-4,-1.41e-4 0.002,-1.29e-4 0.003,-2.81e-4 l 0.236279,-0.03395 -0.06212,-0.298941 0.03744,-0.02981 0.772586,-1.478972 c 0.423001,0.02259 0.884889,-0.186938 1.155352,-0.686212 C 15.322394,4.6544111 16,3.6740911 16,3.6740911 c -1.853853,0.268423 -3.291375,0.242135 -3.370298,1.685995 -0.009,0.164039 0.01543,0.310662 0.06402,0.439716 l -1.068545,1.273881 -0.0098,0.04279 -0.327699,0.05299 0.0982,0.235455 c -0.235752,0.281967 -0.463725,0.595247 -0.678725,0.918076 -0.06272,0.09418 -0.124106,0.18931 -0.184466,0.284589 0.06009,-0.09511 0.12159,-0.190177 0.184466,-0.284589 -0.05377,-0.09665 -0.107994,-0.192817 -0.163578,-0.285967 C 10.230924,7.3886311 9.8246767,6.7892641 9.4264395,6.1947991 8.9471182,5.4792971 8.861255,4.6048571 8.8535108,3.7331601 8.8374033,1.9200291 8.64759,0.03972106 6.594617,4.0006423e-4 Z M 7.4740687,2.2668951 c 0.1618586,-0.0098 0.3287233,0.07422 0.4532977,0.251465 0.1245743,0.177246 0.2055385,0.513955 0.206709,0.706085 0.00157,0.260604 -0.090513,0.522711 -0.1947734,0.713539 -0.027458,0.05027 -0.060008,0.09177 -0.094129,0.130011 -0.1103941,-0.06565 -0.2026276,-0.119836 -0.2577096,-0.151817 -0.038112,-0.02213 -0.043153,-0.02557 -0.059408,-0.03533 a 0.32099655,0.59338248 8.455217 0 0 0.2229865,-0.474772 0.32099655,0.59338248 8.455217 0 0 -0.2568949,-0.630177 0.32099655,0.59338248 8.455217 0 0 -0.3797838,0.547369 0.32099655,0.59338248 8.455217 0 0 0.00187,0.292592 c -0.054062,-0.02357 -0.1124712,-0.04406 -0.1755146,-0.05797 -0.018161,-0.004 -0.037551,-0.0062 -0.056421,-0.0092 -0.018859,-0.08129 -0.034063,-0.164404 -0.03879,-0.249807 -0.014437,-0.260352 0.037876,-0.427807 0.1421472,-0.61886 0.1042689,-0.191053 0.3245332,-0.403452 0.4863927,-0.413218 z m -2.1020975,0.161478 a 0.93012602,0.69491392 82.705675 0 1 0.028756,8.34e-4 0.93012602,0.69491392 82.705675 0 1 0.7080236,0.806285 0.93023786,0.69499748 82.705675 0 1 -0.052362,0.570279 c -0.037984,0.02844 -0.075948,0.05746 -0.1150199,0.09136 v 2.83e-4 h -2.771e-4 c -0.076921,0.06751 -0.1533203,0.107131 -0.254726,0.158993 a 0.55276902,0.34205207 80.636436 0 0 0.1573378,-0.592361 0.55276902,0.34205207 80.636436 0 0 -0.3778831,-0.472565 0.55276902,0.34205207 80.636436 0 0 -0.2902618,0.62245 0.55276902,0.34205207 80.636436 0 0 0.4687595,0.464007 c -0.069118,0.0356 -0.1466836,0.07658 -0.2501138,0.139395 -0.023498,0.01382 -0.043261,0.02886 -0.064017,0.04361 A 0.93023786,0.69499748 82.705675 0 1 4.7388108,3.4745321 0.93012602,0.69491392 82.705675 0 1 5.3719623,2.4283771 Z m 1.3588079,1.207358 c 0.067349,-0.0017 0.1304277,0.0055 0.1893485,0.01849 0.2356824,0.05197 0.4059357,0.202051 0.5105373,0.282379 0.019655,0.0151 0.045767,0.02884 0.1087803,0.06542 0.063005,0.03658 0.1576405,0.09163 0.2940602,0.173071 0.1220211,0.07286 0.1726994,0.183063 0.149742,0.321852 -0.022957,0.138788 -0.1277202,0.307575 -0.336378,0.468424 l -2.782e-4,2.83e-4 -5.415e-4,2.81e-4 C 7.5175512,5.0685231 7.4366391,5.1952061 7.3384265,5.3007571 7.2402187,5.4063081 7.127692,5.4935121 6.9274472,5.5317951 6.6921564,5.5764251 6.5090957,5.5246951 6.3442093,5.4528451 6.1793219,5.3810551 6.035617,5.2864011 5.8803312,5.2552061 h -2.781e-4 -2.762e-4 c -0.3189506,-0.06036 -0.5618391,-0.233085 -0.653769,-0.417082 -0.035586,-0.07124 -0.048893,-0.14295 -0.03879,-0.213647 0.057344,0.01 0.134512,0.04119 0.2248862,0.08777 0.1089749,0.05618 0.2365565,0.131562 0.3762557,0.206194 0.2793982,0.149264 0.6078149,0.296939 0.9434892,0.27962 0.3353584,-0.01731 0.5932548,-0.192329 0.7780117,-0.360773 0.09238,-0.08422 0.1669699,-0.167145 0.2238003,-0.228277 0.028422,-0.03057 0.052588,-0.05565 0.071074,-0.07204 0.018476,-0.01639 0.033444,-0.02074 0.0274,-0.02043 l -0.00383,-0.0737 c -0.030957,0.0016 -0.048942,0.01849 -0.071349,0.03837 -0.022407,0.01988 -0.047183,0.04606 -0.075958,0.07702 -0.057541,0.0619 -0.1302616,0.142815 -0.2194604,0.224137 -0.1783955,0.162644 -0.4206659,0.325872 -0.7332516,0.342001 -0.3122688,0.01611 -0.6303478,-0.123903 -0.906324,-0.271338 -0.1379882,-0.07372 -0.2654371,-0.148784 -0.3773407,-0.20647 -0.089324,-0.04604 -0.1676362,-0.08084 -0.2381791,-0.09385 0.033375,-0.08691 0.1064522,-0.17384 0.2368219,-0.250359 h 2.781e-4 l 2.781e-4,-2.83e-4 c 0.2809884,-0.170642 0.4088462,-0.196855 0.5604496,-0.329857 0.2837499,-0.246244 0.5244253,-0.331308 0.726471,-0.336481 z m 1.2405326,1.13338 c 0.035743,0.08682 0.066356,0.179883 0.086267,0.28514 0.1851716,0.979064 0.389751,1.58485 1.3213724,3.200298 0.096232,0.246672 0.1690867,0.422925 0.251469,0.627141 -0.064135,-0.486405 -0.2532862,-0.923756 -0.3854779,-1.184446 -0.5698596,-1.225341 -0.00187,-0.469614 0.2541824,0.07646 0.1870321,0.355478 0.4060506,0.966446 0.5382064,1.6506631 -0.5652265,1.0041568 -0.9414125,1.8618438 -0.9472864,1.8753508 -0.082218,0.135859 -0.1282362,0.270707 -0.125057,0.405765 0.00197,0.08606 0.030623,0.169622 0.075408,0.24125 -0.5064416,0.379904 -0.5303523,1.125899 0.00216,1.396162 -0.05359,0.0786 -0.1052011,0.153059 -0.1573388,0.233246 C 8.8093178,13.692869 8.7372703,13.811369 8.673082,13.930564 7.5540373,14.740042 5.766011,14.842859 4.4385071,13.374363 4.3133509,13.097647 4.1998858,12.835273 4.1571974,12.632668 l -2.782e-4,-8.33e-4 v -2.83e-4 c -0.095849,-0.481264 -0.195983,-0.925163 -0.3434323,-1.284369 -0.024333,-0.05926 -0.050504,-0.115626 -0.077865,-0.170312 0.103382,-0.249066 0.1548003,-0.510867 0.1356374,-0.669649 -0.071054,-0.42313 -0.3770763,-0.5091808 -1.0669177,-0.348074 -0.5860152,0.143833 -0.941056,0.428038 -0.7942878,0.858178 -0.026397,0.02279 -0.052627,0.04287 -0.07867,0.06348 C 1.7373132,10.576516 2.1382776,10.243952 2.8116655,10.075227 2.7129455,9.1438822 3.2485392,8.1985501 3.757595,7.5840521 3.772405,7.6036021 3.735532,7.7146491 3.6048683,7.9862281 3.316576,8.4897371 3.0331936,9.3105212 3.1621502,10.008428 3.2593552,9.994658 3.3506063,9.984938 3.430168,9.984688 3.476594,9.479038 3.5991319,9.002249 3.8091371,8.6180609 c 0.401959,-0.869278 1.4370813,-2.337139 1.4667746,-3.554445 0.1387271,0.136614 0.3428711,0.242417 0.585679,0.288451 0.1283227,0.02577 0.2706517,0.115944 0.4443457,0.191566 0.1736939,0.07562 0.381597,0.133921 0.6393911,0.08501 0.2208142,-0.04222 0.3574078,-0.146456 0.4633351,-0.260297 0.1057417,-0.113642 0.1839924,-0.234091 0.2967726,-0.324336 l 5.415e-4,-5.52e-4 c 0.1150386,-0.08878 0.2029509,-0.181473 0.2653054,-0.274374 z m 4.9895293,1.411069 c 0.05487,0.0464 0.115121,0.08588 0.17904,0.119245 l -0.678725,1.299552 -0.159509,0.127526 c -0.05357,-0.0273 -0.107175,-0.05157 -0.161407,-0.09357 -0.07127,-0.05521 -0.09148,-0.103568 -0.147031,-0.166447 l 0.04178,-0.18218 0.925856,-1.104122 z m -1.306995,1.619471 c 0.06611,0.06791 0.13736,0.133524 0.216205,0.194601 0.08204,0.06356 0.169163,0.123792 0.261237,0.171691 -0.866337,1.6222131 -2.5367258,3.4403729 -2.5510536,3.4559019 -0.1016887,0.09069 -0.1672332,0.07293 -0.1692754,0.07481 1.9e-6,-0.0014 3.203e-4,8.2e-5 2.781e-4,-0.0019 -5.002e-4,-0.02122 0.00953,-0.0818 0.066189,-0.171138 l 0.00924,-0.01463 0.00708,-0.01573 c 0,0 1.0188609,-2.2771288 2.1601489,-3.6935649 z m -0.415047,2.5400319 c -0.07774,0.10159 -0.153653,0.198869 -0.228955,0.293973 0.0751,-0.09479 0.151419,-0.192703 0.228955,-0.293973 z m -9.1459792,0.857075 c 0.2339739,0.421613 0.7395026,0.771882 1.1423322,0.595122 0.1560485,-0.06666 0.2898235,-0.216875 0.3941598,-0.396104 0.00364,0.0085 0.00757,0.0162 0.011125,0.02484 0.137879,0.335893 0.237558,0.771274 0.3328518,1.249866 l 2.782e-4,5.51e-4 v 2.83e-4 c 0.077815,0.37081 0.3203962,0.821822 0.5121633,1.26836 0.191768,0.44654 0.322807,0.881235 0.2270561,1.172302 l -2.781e-4,0.0011 -2.771e-4,0.0011 C 4.5627257,15.605321 4.2284656,15.812039 3.7923427,15.808947 3.3563673,15.805847 2.8193174,15.570329 2.3293666,15.129083 1.792812,14.640412 1.0529871,14.494238 0.60379647,14.275598 0.37920213,14.166278 0.2394627,14.05011 0.19987101,13.883633 0.16028522,13.717158 0.21734458,13.463625 0.46409144,13.07376 l 0.001081,-0.0016 8.2061e-4,-0.0016 c 0.12505396,-0.21553 0.1298813,-0.487072 0.14919952,-0.74059 0.0193212,-0.253518 0.0518212,-0.483719 0.17008821,-0.622725 l 5.4248e-4,-5.52e-4 5.4052e-4,-5.5e-4 C 0.93788662,11.522337 1.107792,11.485038 1.3107351,11.461028 c 0.202944,-0.02401 0.4352796,-0.02478 0.6486144,-0.162307 l 0.00108,-8.33e-4 0.00108,-5.52e-4 c 0.045197,-0.03092 0.088586,-0.06527 0.1312964,-0.100471 z m 9.4753052,0.06045 c 0.123572,0.133354 0.241092,0.289158 0.370288,0.423707 l 8.19e-4,8.34e-4 0.0011,8.33e-4 c 0.184765,0.182686 0.414058,0.232072 0.610365,0.297838 0.196306,0.06576 0.358729,0.137768 0.476628,0.353871 l 2.79e-4,8.33e-4 5.54e-4,5.52e-4 c 0.09273,0.164187 0.08095,0.40316 0.05371,0.661644 -0.02724,0.258483 -0.0707,0.531968 0.02333,0.769572 v 2.83e-4 l 2.78e-4,2.83e-4 c 0.18671,0.463161 0.206617,0.740042 0.145131,0.894615 -0.06149,0.154572 -0.208756,0.229744 -0.445161,0.28155 -0.472805,0.103615 -1.231759,0.06621 -1.854694,0.460419 -0.5424,0.335745 -1.0969474,0.427157 -1.521301,0.311088 C 9.0049363,15.599019 8.7054297,15.288346 8.6421956,14.770829 v -0.0011 l -2.772e-4,-0.0011 c -0.044922,-0.311251 0.1473441,-0.698646 0.3998568,-1.08701 0.059516,-0.09154 0.1215632,-0.180295 0.1839226,-0.270785 0.2596025,0.06491 0.6083038,0.04005 1.0525412,-0.131115 0.880281,-0.51308 1.242424,-1.233264 1.289904,-2.022474 z m -1.166476,0.11538 c -0.03017,0.0352 -0.0517,0.0601 -0.07975,0.09247 0.02603,-0.03 0.0519,-0.06003 0.07975,-0.09247 z m -0.312777,0.35746 c -0.1135399,0.12683 -0.1936903,0.214476 -0.1936903,0.214476 0,0 0.1087073,-0.120398 0.1936903,-0.214476 z m -1.0026276,0.279343 c 0.019223,0.02132 0.039173,0.042 0.062121,0.05852 -0.023046,-0.01658 -0.043438,-0.0366 -0.062121,-0.05852 z" />
  </g>
  <g id="fcitx-kbd" transform="translate(22,0)">
    <use href="#box" />
    <path fill="url(#oomox)" class="ColorScheme-Text" d="M 4.2597656 2.1328125 C 2.9178989 2.1488125 1.9360126 2.1022552 1.1328125 2.5449219 A 2.0053334 2.0053334 0 0 0 0.24023438 3.609375 C 0.064234365 4.0765751 3.7007434e-17 4.6331844 0 5.3339844 L 0 10.666016 C 0 11.367882 0.064234365 11.923425 0.24023438 12.390625 C 0.41516771 12.858891 0.73174586 13.233211 1.1328125 13.455078 C 1.9360126 13.898811 2.9178989 13.851187 4.2597656 13.867188 L 11.740234 13.867188 C 13.082101 13.851187 14.063987 13.897745 14.867188 13.455078 A 2.0053334 2.0053334 0 0 0 15.761719 12.390625 C 15.936652 11.923425 16 11.366816 16 10.666016 L 16 5.3339844 C 16 4.6321177 15.935766 4.0765751 15.759766 3.609375 A 2.0053334 2.0053334 0 0 0 14.867188 2.5449219 C 14.063987 2.1011885 13.082101 2.1488125 11.740234 2.1328125 L 4.2636719 2.1328125 L 4.2597656 2.1328125 z M 4.2675781 3.1992188 L 11.732422 3.1992188 C 13.075355 3.2152188 13.959209 3.2630489 14.349609 3.4785156 C 14.545875 3.5851822 14.658252 3.7050885 14.761719 3.9824219 C 14.865185 4.2597552 14.933594 4.7025177 14.933594 5.3339844 L 14.933594 10.666016 C 14.933594 11.297482 14.865185 11.740244 14.761719 12.017578 C 14.657185 12.294911 14.545875 12.413751 14.349609 12.521484 C 13.959209 12.736951 13.075355 12.784781 11.732422 12.800781 L 4.2675781 12.800781 C 2.9246447 12.784781 2.0407906 12.736951 1.6503906 12.521484 C 1.4541239 12.414818 1.3417479 12.294911 1.2382812 12.017578 C 1.1348145 11.740244 1.0664062 11.297482 1.0664062 10.666016 L 1.0664062 5.3339844 C 1.0664062 4.7025177 1.1348146 4.2597552 1.2382812 3.9824219 C 1.3428145 3.7050885 1.4541239 3.5862489 1.6503906 3.4785156 C 2.0407906 3.2630489 2.9246447 3.2152188 4.2675781 3.1992188 z M 3.1992188 5.3339844 L 3.1992188 6.4003906 L 4.2675781 6.4003906 L 4.2675781 5.3339844 L 3.1992188 5.3339844 z M 5.3339844 5.3339844 L 5.3339844 6.4003906 L 6.4003906 6.4003906 L 6.4003906 5.3339844 L 5.3339844 5.3339844 z M 7.4667969 5.3339844 L 7.4667969 6.4003906 L 8.5332031 6.4003906 L 8.5332031 5.3339844 L 7.4667969 5.3339844 z M 9.5996094 5.3339844 L 9.5996094 6.4003906 L 10.666016 6.4003906 L 10.666016 5.3339844 L 9.5996094 5.3339844 z M 11.732422 5.3339844 L 11.732422 6.4003906 L 12.800781 6.4003906 L 12.800781 5.3339844 L 11.732422 5.3339844 z M 4.2636719 7.4667969 L 4.2695312 8.5332031 L 5.3339844 8.5332031 L 5.3339844 7.4667969 L 4.2636719 7.4667969 z M 6.4003906 7.4667969 L 6.4003906 8.5332031 L 7.4667969 8.5332031 L 7.4667969 7.4667969 L 6.4003906 7.4667969 z M 8.5332031 7.4667969 L 8.5332031 8.5332031 L 9.5996094 8.5332031 L 9.5996094 7.4667969 L 8.5332031 7.4667969 z M 10.666016 7.4667969 L 10.666016 8.5332031 L 11.732422 8.5332031 L 11.732422 7.4667969 L 10.666016 7.4667969 z M 3.1992188 9.5996094 L 3.1992188 10.666016 L 4.2675781 10.666016 L 4.2675781 9.5996094 L 3.1992188 9.5996094 z M 5.3339844 9.5996094 L 5.3339844 10.666016 L 10.666016 10.666016 L 10.666016 9.5996094 L 5.3339844 9.5996094 z M 11.732422 9.5996094 L 11.746094 10.666016 L 12.806641 10.666016 L 12.792969 9.5996094 L 11.732422 9.5996094 z"/>
  </g>
  <g id="fcitx-chttrans-inactive" transform="translate(44,0)">
    <use href="#box" />
    <path fill="url(#oomox)" class="ColorScheme-Text" d="M 2 0 C 0.892 0 0 0.892 0 2 L 0 14 C 0 15.108 0.892 16 2 16 L 14 16 C 15.108 16 16 15.108 16 14 L 16 2 C 16 0.892 15.108 0 14 0 L 2 0 z M 3.9414062 1.5 L 5.0195312 1.8359375 L 4.5664062 2.7324219 L 8.0859375 2.7324219 L 8.0859375 3.796875 L 6.0976562 3.796875 L 7.0058594 5.0292969 L 5.8710938 5.6464844 C 5.5683279 5.0114203 5.2092742 4.3945756 4.7929688 3.796875 L 4.0546875 3.796875 C 3.1842429 5.0669937 2.65407 5.7204203 2.4648438 5.7578125 L 1.5 5.0292969 C 2.6353671 3.9833112 3.4494044 2.8074735 3.9414062 1.5 z M 9.7890625 1.5 L 10.867188 1.8359375 C 10.753658 2.1347878 10.620134 2.4335716 10.46875 2.7324219 L 14.5 2.7324219 L 14.5 3.796875 L 12.115234 3.796875 C 12.417999 4.1704427 12.701884 4.5636975 12.966797 4.9746094 L 11.945312 5.5898438 C 11.642547 4.9547891 11.283494 4.3572218 10.867188 3.796875 L 9.9023438 3.796875 C 9.5617343 4.469293 9.0691659 5.1054244 8.4257812 5.703125 L 7.4609375 4.9746094 C 8.5584613 3.9286429 9.3349137 2.7701197 9.7890625 1.5 z M 4.5078125 5.421875 C 5.0376575 5.907514 5.473844 6.4318408 5.8144531 6.9921875 L 4.7363281 7.5507812 C 4.4714056 7.0277884 4.0728138 6.5054052 3.5429688 5.9824219 L 4.5078125 5.421875 z M 6.4394531 5.9257812 L 13.761719 5.9257812 L 13.761719 12.986328 C 13.761719 13.471958 13.648954 13.845934 13.421875 14.107422 C 13.194805 14.368918 12.85454 14.5 12.400391 14.5 C 12.021929 14.5 11.566944 14.480749 11.037109 14.443359 L 10.753906 13.378906 C 11.359438 13.416296 11.850061 13.435547 12.228516 13.435547 C 12.493437 13.435547 12.626953 13.173374 12.626953 12.650391 L 12.626953 6.8789062 L 6.4394531 6.8789062 L 6.4394531 5.9257812 z M 2.578125 7.4394531 L 3.7148438 7.4394531 L 3.7148438 14.5 L 2.578125 14.5 L 2.578125 7.4394531 z M 5.359375 8.0566406 L 10.582031 8.0566406 L 10.582031 12.875 L 5.359375 12.875 L 5.359375 8.0566406 z M 6.4394531 9.0078125 L 6.4394531 9.9609375 L 9.5039062 9.9609375 L 9.5039062 9.0078125 L 6.4394531 9.0078125 z M 6.4394531 10.857422 L 6.4394531 11.921875 L 9.5039062 11.921875 L 9.5039062 10.857422 L 6.4394531 10.857422 z" />
  </g>
  <g id="fcitx-chttrans-active" transform="translate(66,0)">
    <use href="#box" />
    <path fill="url(#oomox)" class="ColorScheme-Text" d="M 2 0 C 0.892 0 0 0.892 0 2 L 0 14 C 0 15.108 0.892 16 2 16 L 14 16 C 15.108 16 16 15.108 16 14 L 16 2 C 16 0.892 15.108 0 14 0 L 2 0 z M 3.1953125 1.5 L 4.0996094 1.7792969 C 4.0242903 1.9287369 3.9674045 2.059805 3.9296875 2.171875 L 8.6210938 2.171875 L 8.6210938 3.0136719 L 3.3652344 3.0136719 C 3.0261063 3.4619519 2.6678322 3.816635 2.2910156 4.078125 L 1.5 3.4609375 C 2.3289809 2.8258775 2.8938632 2.17242 3.1953125 1.5 z M 10.091797 1.5 L 11.052734 1.7792969 L 10.599609 2.8457031 L 14.330078 2.8457031 L 14.330078 3.796875 L 13.539062 3.796875 C 13.275291 4.693425 12.822218 5.4972613 12.181641 6.2070312 C 12.822218 6.6553113 13.595652 7.0658831 14.5 7.4394531 L 13.765625 8.3359375 C 12.936644 7.9250175 12.182172 7.4585269 11.503906 6.9355469 C 10.901007 7.4211769 10.186412 7.8876575 9.3574219 8.3359375 L 8.5644531 7.4960938 C 9.3934339 7.1225337 10.109992 6.6926612 10.712891 6.2070312 C 10.260717 5.7961112 9.8645186 5.31035 9.5253906 4.75 L 8.9609375 5.421875 L 8.2832031 4.6933594 C 9.1121839 3.7594494 9.7149804 2.6954 10.091797 1.5 z M 3.0820312 3.6855469 L 8 3.6855469 L 7.7734375 5.3105469 L 8.5644531 5.3105469 L 8.5644531 6.2070312 L 7.6601562 6.2070312 L 7.546875 7.046875 L 8 7.046875 L 8 7.8886719 L 7.4921875 7.8886719 L 7.4355469 8.2246094 L 6.4746094 8.2246094 L 6.4746094 7.8886719 L 2.234375 7.8886719 L 2.5742188 6.2070312 L 1.6132812 6.2070312 L 1.6132812 5.3105469 L 2.7441406 5.3105469 L 3.0820312 3.6855469 z M 10.148438 3.796875 C 10.148437 3.834245 10.129517 3.8727563 10.091797 3.9101562 C 10.506292 4.5452163 10.957413 5.1042037 11.447266 5.5898438 C 11.937119 5.0295037 12.276431 4.431925 12.464844 3.796875 L 10.148438 3.796875 z M 3.9296875 4.4707031 L 3.7617188 5.3105469 L 5.2304688 5.3105469 C 5.0420557 4.9743369 4.854419 4.6948431 4.6660156 4.4707031 L 3.9296875 4.4707031 z M 5.5703125 4.4707031 L 6.1347656 5.3105469 L 6.8691406 5.3105469 L 6.9824219 4.4707031 L 5.5703125 4.4707031 z M 3.6484375 6.2070312 L 3.4785156 7.046875 L 5.0039062 7.046875 C 4.777824 6.710685 4.5712159 6.4311612 4.3828125 6.2070312 L 3.6484375 6.2070312 z M 5.34375 6.2070312 C 5.5321631 6.4685213 5.7008379 6.748025 5.8515625 7.046875 L 6.5878906 7.046875 L 6.7558594 6.2070312 L 5.34375 6.2070312 z M 10.826172 8.0566406 L 11.730469 8.671875 C 9.5826349 9.867285 7.2472968 10.746291 4.7226562 11.306641 C 7.8501954 11.194571 10.166581 10.988303 11.673828 10.689453 C 11.3347 10.353243 10.957464 10.054459 10.542969 9.7929688 L 11.560547 9.3457031 C 12.61562 10.092833 13.519813 10.913997 14.273438 11.810547 L 13.199219 12.314453 C 12.973137 11.978243 12.709652 11.660178 12.408203 11.361328 C 11.127048 11.548118 9.8456079 11.698487 8.5644531 11.810547 L 8.5644531 13.267578 C 8.5644531 13.715858 8.4716066 14.033933 8.2832031 14.220703 C 8.0947997 14.407473 7.6986018 14.5 7.0957031 14.5 C 6.7188866 14.5 6.3606125 14.463362 6.0214844 14.388672 L 5.8515625 13.378906 C 6.2660578 13.491006 6.6812079 13.546875 7.0957031 13.546875 C 7.3217949 13.546875 7.4355469 13.398459 7.4355469 13.099609 L 7.4355469 11.921875 C 5.7022181 12.033975 3.9866657 12.089844 2.2910156 12.089844 L 2.1210938 11.193359 C 3.8544226 10.857149 5.3254527 10.465868 6.53125 10.017578 C 5.3631314 10.092248 4.212471 10.128906 3.0820312 10.128906 L 2.96875 9.3457031 C 4.0991802 9.0468531 5.0412986 8.6343081 5.7949219 8.1113281 L 6.53125 8.6171875 C 5.9283513 8.9907575 5.3255549 9.2702413 4.7226562 9.4570312 C 6.4559947 9.4196713 7.6615876 9.3444919 8.3398438 9.2324219 C 8.7920177 9.1577019 9.6203745 8.7664106 10.826172 8.0566406 z M 9.9785156 12.146484 C 11.297359 12.482684 12.540865 12.875959 13.708984 13.324219 L 13.255859 14.275391 C 12.012383 13.752401 10.768867 13.341819 9.5253906 13.042969 L 9.9785156 12.146484 z M 5.4570312 12.257812 L 6.1914062 12.818359 C 5.1740124 13.416059 3.9494576 13.901821 2.5175781 14.275391 L 1.8398438 13.324219 C 3.158687 13.062739 4.3642797 12.706103 5.4570312 12.257812 z" />
  </g>

  <g id="fcitx-pinyin" transform="translate(0,22)">
    <use href="#box" />
    <path fill="url(#oomox)" class="ColorScheme-Text" d="M 2 0 C 0.892 0 0 0.892 0 2 L 0 14 C 0 15.108 0.892 16 2 16 L 14 16 C 15.108 16 16 15.108 16 14 L 16 2 C 16 0.892 15.108 0 14 0 L 2 0 z M 7.9004 1.6992 L 9.4004 3.6992 L 9.002 4 L 10.998 4 L 10.6 3.6992 L 12.1 1.6992 L 12.9 2.3008 L 11.625 4 L 14 4 L 14 5 L 12 5 L 12 8 L 14 8 L 14 9 L 12 9 L 12 14 L 11 14 L 11 9 L 8.959 9 C 8.863 10.12 8.4822 11.031 8.0332 11.811 C 7.4122 12.881 6.3418 13.865 6.3418 13.865 L 5.6582 13.137 C 5.6582 13.137 6.6707 12.171 7.168 11.311 C 7.569 10.611 7.8719 9.9 7.9609 9 L 6 9 L 6 8.0605 L 5 8.5605 L 5 14 L 2 14 L 2 13 L 4 13 L 4 9.0605 L 2.2227 9.9492 L 1.7773 9.0508 L 4 7.9395 L 4 5 L 2 5 L 2 4 L 4 4 L 4 2 L 5 2 L 5 4 L 6 4 L 6 5 L 5 5 L 5 7.4395 L 5.7773 7.0508 L 6.2227 7.9492 L 6.1172 8 L 8 8 L 8 5 L 7 5 L 7 4 L 8.375 4 L 7.0996 2.3008 L 7.9004 1.6992 z M 9 5 L 9 8 L 11 8 L 11 5 L 9 5 z"/>
  </g>
  <g id="fcitx-quanpin" transform="translate(22,22)">
    <use href="#box" />
    <path fill="url(#oomox)" class="ColorScheme-Text" d="M 2 0 C 0.892 0 0 0.892 0 2 L 0 14 C 0 15.108 0.892 16 2 16 L 14 16 C 15.108 16 16 15.108 16 14 L 16 2 C 16 0.892 15.108 0 14 0 L 2 0 z M 7.5097656 1.9023438 L 8.4902344 2.0976562 C 8.4801044 2.1483592 8.4562094 2.1943742 8.4433594 2.2441406 C 10.319764 4.5331894 14.175781 6.03125 14.175781 6.03125 L 13.824219 6.96875 C 13.824219 6.96875 13.015788 6.6469945 12 6.1308594 L 12 7 L 8.5 7 L 8.5 9 L 11 9 L 11 10 L 8.5 10 L 8.5 13 L 13 13 L 13 14 L 3 14 L 3 13 L 7.5 13 L 7.5 10 L 5 10 L 5 9 L 7.5 9 L 7.5 7 L 4 7 L 4 6.1757812 C 2.9713036 6.6774967 2.1699219 6.9707031 2.1699219 6.9707031 L 1.8300781 6.0292969 C 1.8300781 6.0292969 3.1713119 5.5404847 4.5664062 4.7519531 C 5.9615007 3.9634215 7.3238806 2.8317691 7.5097656 1.9023438 z M 8 3.2324219 C 7.332412 4.2293319 6.1538606 5.0039829 5.0585938 5.6230469 C 4.810788 5.7631109 4.5754268 5.8790495 4.3378906 6 L 11.734375 6 C 10.543014 5.3695184 9.116196 4.4472455 8 3.2324219 z"/>
  </g>
  <g id="fcitx-shuangpin" transform="translate(44,22)">
    <use href="#box" />
    <path fill="url(#oomox)" class="ColorScheme-Text" d="M 2 0 C 0.892 0 0 0.892 0 2 L 0 14 C 0 15.108 0.892 16 2 16 L 14 16 C 15.108 16 16 15.108 16 14 L 16 2 C 16 0.892 15.108 0 14 0 L 2 0 z M 2 2 L 7.5488 2 L 7.498 2.5508 C 7.498 2.5508 7.1704 6.0697 6.2734 8.6797 C 6.8564 9.5497 7.4123 10.449 8.1113 11.689 L 7.2422 12.18 C 6.7032 11.23 6.2583 10.491 5.8203 9.8105 C 4.4263 12.931 2.4551 14.293 2.4551 14.293 L 1.8984 13.461 C 1.8984 13.461 3.8691 12.151 5.1621 8.8105 C 4.3971 7.7005 3.5274 6.5805 2.1094 4.8105 L 2.8906 4.1895 C 4.0716 5.6595 4.8636 6.6806 5.5586 7.6406 C 6.1096 5.7406 6.3567 3.64 6.4277 3 L 2 3 L 2 2 z M 8 2 L 14 2 L 14 2.5 C 14 4.65 13.167 7.4702 12.293 9.4102 C 12.182 9.6602 12.051 9.8696 11.926 10.1 C 12.55 11.19 13.386 12.22 14.77 13.332 L 14.143 14.111 C 12.861 13.077 11.996 12.071 11.34 11.051 C 9.9468 13.035 8.2363 14.084 8.2363 14.084 L 7.7188 13.229 C 7.7188 13.229 9.4991 12.13 10.787 10.09 C 10.449 9.4398 10.166 8.7798 9.9004 8.0898 C 9.1424 6.1398 8.6918 3.59 8.5898 3 L 8 3 L 8 2 z M 9.6074 3 C 9.7474 3.77 10.176 6.0305 10.834 7.7305 C 11.007 8.1805 11.185 8.5998 11.373 9.0098 C 12.13 7.3298 12.815 4.85 12.924 3 L 9.6074 3 z"/>
  </g>
  <g id="fcitx-bopomofo" transform="translate(66,22)">
    <use href="#box" />
    <path fill="url(#oomox)" class="ColorScheme-Text" d="M 2 0 C 0.892 0 0 0.892 0 2 L 0 14 C 0 15.108 0.892 16 2 16 L 14 16 C 15.108 16 16 15.108 16 14 L 16 2 C 16 0.892 15.108 0 14 0 L 2 0 z M 8.5175781 2 L 10.441406 3.4335938 L 9.8632812 4.1992188 L 7.9394531 2.765625 L 8.5175781 2 z M 2.796875 2.0449219 L 4.7207031 3.9550781 L 4.0410156 4.6308594 L 2.1171875 2.7207031 L 2.796875 2.0449219 z M 5.3417969 4.2929688 L 14 4.2929688 L 14 5.25 L 10.152344 5.25 L 10.152344 8.1152344 L 13.037109 8.1152344 L 13.037109 9.0703125 L 10.152344 9.0703125 L 10.152344 12.892578 L 14 12.892578 L 14 13.849609 L 5.3417969 13.849609 L 5.3417969 12.892578 L 9.1894531 12.892578 L 9.1894531 9.0703125 L 6.3046875 9.0703125 L 6.3046875 8.1152344 L 9.1894531 8.1152344 L 9.1894531 5.25 L 5.3417969 5.25 L 5.3417969 4.2929688 z M 2.796875 4.9121094 L 4.7207031 6.8222656 L 4.0410156 7.4980469 L 2.1171875 5.5878906 L 2.796875 4.9121094 z M 3.9238281 7.9648438 L 4.8378906 8.2675781 L 2.9140625 14 L 2 13.697266 L 3.9238281 7.9648438 z"/>
  </g>
  <g id="fcitx-chewing" transform="translate(88,22)">
    <use href="#box" />
    <path fill="url(#oomox)" class="ColorScheme-Text" d="M 2,0 C 0.892,0 0,0.892 0,2 V 14 C 0,15.108 0.892,16 2,16 H 14 C 15.108,16 16,15.108 16,14 V 2 C 16,0.892 15.108,0 14,0 Z M 2,2 H 8 V 3 H 6 V 6 H 7.5 8 L 7.5996,5.6992 C 7.5996,5.6992 9,3.75 9,2 H 10 C 10,2.7087 9.8346,3.3887 9.6172,4 H 11 V 2 H 12 V 4 H 14 V 5 H 12 V 7 H 14 V 8 H 9 V 7 H 11 V 5 H 9.1973 C 8.7986,5.7896 8.4004,6.3008 8.4004,6.3008 L 8,6 V 14 H 2 V 6 H 3 V 3 H 2 Z M 4,3 V 6 H 5 V 3 Z M 4,7 V 10 H 3 V 11 H 6 V 12 H 3 V 13 H 7 V 7 H 6 V 10 H 5 V 7 Z M 9,9 H 14 V 14 H 9 Z M 10,10 V 13 H 13 V 10 Z"/>
  </g>
  <g id="fcitx-rime" transform="translate(110,22)">
    <use href="#box" />
    <path fill="url(#oomox)" class="ColorScheme-Text" d="M 2,0 C 0.892,0 0,0.892 0,2 V 14 C 0,15.108 0.892,16 2,16 H 14 C 15.108,16 16,15.108 16,14 V 2 C 16,0.892 15.108,0 14,0 Z M 7,2 H 8 V 8.9824 C 9.811,8.9008 10.721,8.3758 11.262,7.4902 11.852,6.525 12,4.9792 12,3 H 13 C 13,5.0208 12.898,6.725 12.113,8.0098 11.387,9.1987 10.05,9.8837 8,9.9805 V 13 H 13 V 14 H 2 V 13 H 7 V 9.9805 C 4.9496,9.8837 3.6133,9.1987 2.8867,8.0098 2.1016,6.725 2,5.0208 2,3 H 3 C 3,4.9792 3.1484,6.525 3.7383,7.4902 4.2795,8.3758 5.189,8.9008 7,8.9824 Z"/>
  </g>
  <g id="fcitx-erbi" transform="translate(132,22)">
    <use href="#box" />
    <path fill="url(#oomox)" class="ColorScheme-Text" d="M 2 0 C 0.892 0 0 0.892 0 2 L 0 14 C 0 15.108 0.892 16 2 16 L 14 16 C 15.108 16 16 15.108 16 14 L 16 2 C 16 0.892 15.108 0 14 0 L 2 0 z M 10.03125 0.9921875 L 11.03125 1.0078125 C 11.021062 1.6879602 11.043325 2.3455896 11.068359 3 L 14 3 L 14 4 L 11.117188 4 C 11.266012 6.3082376 11.59863 8.4006193 12.007812 10.033203 C 12.298113 11.191476 12.623593 12.126867 12.919922 12.742188 C 13.068086 13.049847 13.212807 13.276703 13.316406 13.398438 C 13.362586 13.452697 13.314985 13.4285 13.328125 13.4375 C 13.566495 13.373903 13.699315 13.283743 13.806641 13.007812 C 13.928284 12.695071 13.982734 12.196257 13.990234 11.632812 L 14.990234 11.644531 C 14.982169 12.251378 14.943272 12.842118 14.738281 13.369141 C 14.533291 13.896164 14.078213 14.368195 13.435547 14.480469 A 0.50005 0.50005 0 0 1 13.355469 14.486328 C 12.983482 14.491132 12.747916 14.273927 12.554688 14.046875 C 12.361456 13.819823 12.190941 13.531708 12.019531 13.175781 C 11.676713 12.463927 11.341014 11.480154 11.039062 10.275391 C 10.609645 8.5620428 10.265475 6.3930814 10.115234 4 L 2 4 L 2 3 L 10.070312 3 C 10.045744 2.3399811 10.020971 1.6784048 10.03125 0.9921875 z M 13 1 C 13.416833 1.3789393 13.758179 1.7765262 14.023438 2.1933594 L 13.056641 2.7617188 C 12.829277 2.3448854 12.525423 1.928552 12.146484 1.5117188 L 13 1 z M 3 5 L 9 5 L 9 6 L 3 6 L 3 5 z M 3 7 L 9 7 L 9 8 L 3 8 L 3 7 z M 3 9 L 4 9 L 9 9 L 9 12 L 8 12 L 8 10 L 4 10 L 4 12 L 3 12 L 3 10 L 3 9 z M 5.0097656 11 L 6.0917969 11 C 6.0085254 12.204012 5.7080472 13.115307 5.1621094 13.693359 C 4.5179127 14.413344 3.3626453 14.848424 1.6953125 15 L 1.2402344 14.033203 C 2.7559915 13.881627 3.7593321 13.540281 4.2519531 13.009766 C 4.6817255 12.579993 4.9281536 11.902276 5.0097656 11 z M 6.703125 11.998047 C 7.6504731 12.452774 8.5225869 12.983541 9.3183594 13.589844 L 8.5214844 14.5 C 7.7636059 13.855803 6.9309387 13.30629 6.0214844 12.851562 L 6.703125 11.998047 z"/>
  </g>
  <g id="fcitx-wubi" transform="translate(154,22)">
    <use href="#box" />
    <path fill="url(#oomox)" class="ColorScheme-Text" d="M 2,0 C 0.892,0 0,0.892 0,2 V 14 C 0,15.108 0.892,16 2,16 H 14 C 15.108,16 16,15.108 16,14 V 2 C 16,0.892 15.108,0 14,0 Z M 3,3 H 12 V 4 H 7.9023 L 7.2363,7 H 11 V 12 H 13 V 13 H 3 V 12 H 5.0996 L 5.9883,8 H 4 V 7 H 6.2109 L 6.877,4 H 3 Z M 7.0137,8 6.123,12 H 10 V 8 Z"/>
  </g>
  <g id="fcitx-wbpy" transform="translate(176,22)">
    <use href="#box" />
    <path style="fill:url(#oomox)" d="M 2,0 C 0.892,0 0,0.892 0,2 v 12 c 0,1.108 0.892,2 2,2 L 10.858456,16.0039 10.855464,13 H 3 V 12 H 5.0996094 L 5.9882812,8 H 4 V 7 H 6.2109375 L 6.8769531,4 H 3 V 3 h 9 V 4 H 7.9023438 L 7.2363281,7 H 11 l 0.0078,1.6249573 c 0.398038,-0.1691905 0.74694,-0.3251647 1.121102,-0.4081818 0.56682,-0.1516559 1.404876,-0.2256889 2.390662,-0.072256 0.79617,0.196483 1.239227,0.6300147 1.472612,0.9784569 L 16,2 c 0.0012,-1.10799933 -0.892,-2 -2,-2 z m 5.0136719,8 -0.890625,4 H 10 V 8 Z" />
    <path fill="currentColor" class="ColorScheme-Highlight warning" d="m 14.479215,10.685103 c 0.053,0.142 0.079,0.317 0.079,0.524 0,0.248 -0.029,0.452 -0.084,0.61 -0.045,0.137 -0.121,0.261 -0.222,0.363 -0.09,0.086 -0.199,0.149 -0.319,0.183 -0.123,0.039 -0.255,0.058 -0.392,0.058 -0.036,0 -0.108,-0.005 -0.214,-0.014 -0.07,-0.008 -0.118,-0.015 -0.151,-0.02 v -2.231 c 0.14,-0.025 0.283,-0.036 0.425,-0.033 0.128,0 0.253,0.017 0.371,0.055 0.111,0.035 0.214,0.094 0.3,0.173 0.086,0.082 0.156,0.192 0.207,0.332 z m 1.343,1.665 c 0.126,-0.309 0.188,-0.689 0.188,-1.132 0,-0.487 -0.074,-0.891 -0.223,-1.199001 -0.149,-0.3069996 -0.347,-0.5529996 -0.587,-0.7229996 -0.242,-0.173 -0.52,-0.29 -0.812,-0.344 -0.573,-0.108 -1.166,-0.104 -1.76,-0.039 -0.264,0.026 -0.527,0.067 -0.786,0.123 -0.034,0.009 -0.059,0.039 -0.06,0.074 v 6.8250006 c 0,0.043 0.033,0.077 0.077,0.077 h 1.24 c 0.042,0 0.077,-0.035 0.077,-0.077 v -2.283 l 0.048,0.006 c 0.065,0.008 0.13,0.012 0.195,0.015 0.067,0.002 0.132,0.005 0.192,0.005 h 0.128 c 0.288,0 0.574,-0.043 0.846,-0.133 0.273,-0.086 0.524,-0.233 0.733,-0.43 0.211,-0.197 0.379,-0.454 0.504,-0.764 z" />
  </g>
  <g id="fcitx-ziranma" transform="translate(198,22)">
    <use href="#box" />
    <path fill="url(#oomox)" class="ColorScheme-Text" d="M 2,0 C 0.892,0 0,0.892 0,2 V 14 C 0,15.108 0.892,16 2,16 H 14 C 15.108,16 16,15.108 16,14 V 2 C 16,0.892 15.108,0 14,0 Z M 6.6797,1.6152 7.3203,2.3848 5.3828,4 H 13 V 14 H 3 V 4 H 3.8184 Z M 4,5 V 7 H 10 V 8 H 4 V 10 H 10 V 11 H 4 V 13 H 12 V 5 Z"/>
  </g>
  <g id="fcitx-cangjie" transform="translate(220,22)">
    <use href="#box" />
    <path fill="url(#oomox)" class="ColorScheme-Text" d="M 2,0 C 0.892,0 0,0.892 0,2 V 14 C 0,15.108 0.892,16 2,16 H 14 C 15.108,16 16,15.108 16,14 V 2 C 16,0.892 15.108,0 14,0 Z M 7.584,1.7227 H 8.416 C 10.26,4.488 14.063,5.0039 14.063,5.0039 L 13.938,5.9961 C 13.938,5.9961 13.104,5.8723 12,5.4609 V 10 H 4.9453 C 4.903,10.339 4.8316,10.673 4.7246,11 H 12 V 14 H 4 V 12.623 L 3.9336,12.748 C 3.4133,13.659 2.8906,14.313 2.8906,14.313 L 2.1094,13.688 C 2.1093,13.688 2.5868,13.091 3.0664,12.252 3.5461,11.413 4,10.333 4,9.5 V 5.4609 C 2.8964,5.8723 2.0625,5.9961 2.0625,5.9961 L 1.9375,5.0039 C 1.9375,5.0039 5.7404,4.488 7.584,1.7227 Z M 8,2.7031 C 7.1412,3.7727 6.0665,4.5017 5.0664,5 H 7.5977 L 6.7227,4.416 7.2773,3.584 8.7773,4.584 8.5,5 H 10.934 C 9.9335,4.5017 8.8588,3.7727 8,2.7031 Z M 5,6 V 7 H 10 V 8 H 5 V 9 H 11 V 6 Z M 5,12 V 13 H 11 V 12 Z"/>
  </g>

  <g id="fcitx-pinyin-libpinyin" transform="translate(0,22)">
    <use href="#fcitx-pinyin" />
  </g>
  <g id="fcitx-quanpin-libpinyin" transform="translate(0,22)">
    <use href="#fcitx-quanpin" />
  </g>
  <g id="fcitx-shuangpin-libpinyin" transform="translate(0,22)">
    <use href="#fcitx-shuangpin" />
  </g>
  <g id="fcitx-bopomofo-libpinyin" transform="translate(0,22)">
    <use href="#fcitx-bopomofo" />
  </g>
  <g id="fcitx-chewing-libpinyin" transform="translate(0,22)">
    <use href="#fcitx-chewing" />
  </g>

  <g id="fcitx-googlepinyin" transform="translate(0,66)">
    <use href="#box" />
    <path fill="url(#oomox)" class="ColorScheme-Text" d="M 2,0 C 0.892,0 0,0.892 0,2 V 14 C 0,15.108 0.892,16 2,16 H 14 C 15.108,16 16,15.108 16,14 V 2 C 16,0.892 15.108,0 14,0 Z M 7.8984,2.502 C 9.1926,2.4785 10.496,2.9086 11.547,3.7949 L 10.256,5.3242 C 8.9092,4.188 6.9508,4.2217 5.6465,5.4062 4.3421,6.5909 4.1177,8.5385 5.1191,9.9883 6.1205,11.438 8.0205,11.918 9.5898,11.117 10.472,10.667 11.073,9.8908 11.336,9.0059 H 8 V 7.0059 L 13.398,7 C 13.832,9.3547 12.689,11.781 10.5,12.898 8.0515,14.148 5.0369,13.389 3.4746,11.127 1.9123,8.8652 2.2658,5.7738 4.3008,3.9258 5.3183,3.0017 6.6043,2.526 7.8984,2.502 Z"/>
  </g>
  <g id="fcitx-sunpinyin" transform="translate(22,66)">
    <use href="#box" />
    <path fill="url(#oomox)" class="ColorScheme-Text" d="M 8 0 A 8 8 0 0 0 0 8 A 8 8 0 0 0 2 13.277 L 2 13 L 4 13 L 4 9.0605 L 2.2227 9.9492 L 1.7773 9.0508 L 4 7.9395 L 4 5 L 2 5 L 2 4 L 4 4 L 4 2 L 5 2 L 5 4 L 6 4 L 6 5 L 5 5 L 5 7.4395 L 5.7773 7.0508 L 6.2227 7.9492 L 6.1172 8 L 8 8 L 8 5 L 7 5 L 7 4 L 8.375 4 L 7.0996 2.3008 L 7.9004 1.6992 L 9.4004 3.6992 L 9.002 4 L 10.998 4 L 10.6 3.6992 L 12.1 1.6992 L 12.9 2.3008 L 11.625 4 L 14 4 L 14 5 L 12 5 L 12 8 L 14 8 L 14 9 L 12 9 L 12 14 L 11 14 L 11 9 L 8.959 9 C 8.863 10.12 8.4822 11.031 8.0332 11.811 C 7.4122 12.881 6.3418 13.865 6.3418 13.865 L 5.6582 13.137 C 5.6582 13.137 6.6707 12.171 7.168 11.311 C 7.569 10.611 7.8719 9.9 7.9609 9 L 6 9 L 6 8.0605 L 5 8.5605 L 5 14 L 2.7188 14 A 8 8 0 0 0 8 16 A 8 8 0 0 0 16 8 A 8 8 0 0 0 8 0 z M 9 5 L 9 8 L 11 8 L 11 5 L 9 5 z"/>
  </g>
  <g id="fcitx-emoji" transform="translate(44,66)">
    <use href="#box" />
    <path fill="url(#oomox)" class="ColorScheme-Text" d="M 8,1 C 5.62,1 3.52,2.19 2.25,4 H 13.75 C 12.48,2.19 10.38,1 8,1 Z M 13.97,4.34 14,5.75 C 14,7.26 13.29,8 11.94,8 H 11.09 C 9.74,8 9,7.26 9,5.75 V 5 H 7 V 5.75 C 6.98,7.26 6.2,8 4.84,8 H 4 C 2.64,8 2.01,7.26 2,5.75 L 1.97,4.43 C 1.35,5.48 1,6.7 1,8 1,11.86 4.13,15 8,15 11.87,15 15,11.86 15,8 15,6.65 14.62,5.4 13.97,4.34 Z M 5.17,9.83 C 5.92,10.58 6.94,11 8,11 9.06,11 10.08,10.58 10.83,9.83 L 11.53,10.53 C 10.6,11.47 9.33,12 8,12 6.67,12 5.4,11.47 4.47,10.53 Z"/>
  </g>
  <g id="fcitx-unikey" transform="translate(66,66)">
    <use href="#box" />
    <path fill="url(#oomox)" class="ColorScheme-Text" d="M 2,0 C 0.892,0 0,0.892 0,2 V 14 C 0,15.108 0.892,16 2,16 H 14 C 15.108,16 16,15.108 16,14 V 2 C 16,0.892 15.108,0 14,0 Z M 3,3 H 4 V 4.5 C 4,5.1944 4.1274,5.5772 4.2656,5.75 4.4039,5.9228 4.5833,6 5,6 5.4167,6 5.5961,5.9228 5.7344,5.75 5.8726,5.5772 6,5.1944 6,4.5 V 3 H 7 V 4.5 C 7,5.3056 6.8774,5.9228 6.5156,6.375 6.1539,6.8272 5.5833,7 5,7 4.4167,7 3.8461,6.8272 3.4844,6.375 3.1226,5.9228 3,5.3056 3,4.5 Z M 11,3 H 12 V 7 H 11 Z M 6,10 H 7 L 9,12.5 V 10 H 10 V 14 H 9 L 7,11.5 V 14 H 6 Z"/>
  </g>
  <g id="fcitx-anthy" transform="translate(88,66)">
    <use href="#box" />
    <path fill="url(#oomox)" class="ColorScheme-Text" fill-rule="evenodd" d="M 7.233 3.734 C 6.585 4.832 5.936 5.928 5.288 6.97 C 4.954 7.479 4.452 7.802 3.951 7.802 C 2.194 7.79 2.233 6.842 1.486 5.795 C 1.612 5.654 1.684 5.467 1.684 5.263 C 1.684 4.798 1.307 4.421 0.842 4.421 C 0.377 4.421 0 4.798 0 5.263 C 0 5.708 0.346 6.073 0.783 6.103 L 0.783 6.103 L 0.83 6.235 C 1.164 7.536 1.443 8.951 1.777 10.422 C 1.833 10.649 2 10.818 2.223 10.818 C 4.118 11.045 6.068 11.158 8.019 11.158 L 8.019 11.158 C 9.969 11.158 11.919 11.045 13.814 10.818 C 13.981 10.818 14.148 10.649 14.204 10.422 C 14.538 8.951 14.817 7.536 15.152 6.235 L 15.196 6.104 L 15.196 6.104 C 15.643 6.084 16 5.715 16 5.263 C 16 4.798 15.623 4.421 15.158 4.421 C 14.693 4.421 14.316 4.798 14.316 5.263 C 14.316 5.504 14.417 5.721 14.586 5.868 C 13.729 6.796 13.384 7.741 11.975 7.802 C 11.418 7.802 10.972 7.479 10.638 6.97 C 9.998 5.942 9.359 4.863 8.72 3.781 C 9.047 3.549 9.263 3.168 9.263 2.737 C 9.263 2.04 8.697 1.474 8 1.474 C 7.303 1.474 6.737 2.04 6.737 2.737 C 6.737 3.144 6.93 3.507 7.233 3.734 Z M 13.895 12.355 C 13.895 12.108 13.734 11.96 13.466 12.009 C 11.679 12.255 9.852 12.504 8.025 12.505 C 6.182 12.506 4.337 12.257 2.534 12.009 C 2.32 11.96 2.105 12.158 2.105 12.355 L 2.105 13.391 C 2.105 13.638 2.266 13.885 2.534 13.934 C 6.124 14.724 9.876 14.724 13.466 13.934 C 13.68 13.885 13.895 13.638 13.895 13.391 L 13.895 12.355 L 13.895 12.355 L 13.895 12.355 L 13.895 12.355 Z"/>
  </g>
  <g id="fcitx-libkkc" transform="translate(110,66)">
    <use href="#box" />
    <path fill="url(#oomox)" class="ColorScheme-Text" d="M 2,0 C 0.892,0 0,0.892 0,2 V 14 C 0,15.108 0.892,16 2,16 H 14 C 15.108,16 16,15.108 16,14 V 2 C 16,0.892 15.108,0 14,0 Z M 2,4 H 3 V 8.293 L 5.293,6 H 6 V 4 H 7 V 8.293 L 9.293,6 H 10.707 L 7.707,9 10.707,12 H 9.293 L 7,9.707 V 12 H 5.293 L 3,9.707 V 12 H 2 Z M 12,6 C 12.583,6 13.111,6.1536 13.479,6.5215 13.846,6.8893 14,7.4167 14,8 H 13 C 13,7.5833 12.904,7.3607 12.771,7.2285 12.639,7.0964 12.417,7 12,7 11.583,7 11.361,7.0964 11.229,7.2285 11.096,7.3607 11,7.5833 11,8 V 10 C 11,10.417 11.096,10.639 11.229,10.771 11.361,10.904 11.583,11 12,11 12.417,11 12.639,10.904 12.771,10.771 12.904,10.639 13,10.417 13,10 H 14 C 14,10.583 13.846,11.111 13.479,11.479 13.111,11.846 12.583,12 12,12 11.417,12 10.889,11.846 10.521,11.479 10.154,11.111 10,10.583 10,10 V 8 C 10,7.4167 10.154,6.8893 10.521,6.5215 10.889,6.1536 11.417,6 12,6 Z M 6,6.707 3.707,9 6,11.293 Z"/>
  </g>
  <g id="fcitx-libskk" transform="translate(132,66)">
    <use href="#box" />
    <path fill="url(#oomox)" class="ColorScheme-Text" d="M 2,0 C 0.892,0 0,0.892 0,2 V 14 C 0,15.108 0.892,16 2,16 H 14 C 15.108,16 16,15.108 16,14 V 2 C 16,0.892 15.108,0 14,0 Z M 6,4 H 7 V 8.293 L 9.293,6 H 10 V 4 H 11 V 8.293 L 13.293,6 H 14.707 L 11.707,9 14.707,12 H 13.293 L 11,9.707 V 12 H 9.293 L 7,9.707 V 12 H 6 V 10 C 6,10.583 5.8455,11.111 5.4785,11.479 5.1105,11.846 4.583,12 4,12 3.417,12 2.8895,11.846 2.5215,11.479 2.1545,11.111 2,10.583 2,10 H 3 C 3,10.417 3.0955,10.639 3.2285,10.771 3.3605,10.904 3.583,11 4,11 4.417,11 4.6395,10.904 4.7715,10.771 4.9045,10.639 5,10.417 5,10 5,9.583 4.9045,9.3605 4.7715,9.2285 4.6395,9.0955 4.417,9 4,9 3.417,9 2.8895,8.8455 2.5215,8.4785 2.1545,8.1105 2,7.583 2,7 2,6.417 2.1545,5.8895 2.5215,5.5215 2.8895,5.1545 3.417,5 4,5 4.583,5 5.1105,5.1545 5.4785,5.5215 5.8455,5.8895 6,6.417 6,7 Z M 6,7 H 5 C 5,6.583 4.9045,6.3605 4.7715,6.2285 4.6395,6.0955 4.417,6 4,6 3.583,6 3.3605,6.0955 3.2285,6.2285 3.0955,6.3605 3,6.583 3,7 3,7.417 3.0955,7.6395 3.2285,7.7715 3.3605,7.9045 3.583,8 4,8 4.583,8 5.1105,8.1545 5.4785,8.5215 5.8455,8.8895 6,9.417 6,10 Z M 10,6.707 7.707,9 10,11.293 Z"/>
  </g>
  <g id="fcitx-hangul" transform="translate(154,66)">
    <use href="#box" />
    <path fill="url(#oomox)" class="ColorScheme-Text" d="M 2,0 C 0.892,0 0,0.892 0,2 V 14 C 0,15.108 0.892,16 2,16 H 14 C 15.108,16 16,15.108 16,14 V 2 C 16,0.892 15.108,0 14,0 Z M 5,2 H 7 V 3 H 5 Z M 11,3 H 12 V 6 H 14 V 7 H 12 V 11 H 11 Z M 3,4 H 9 V 5 H 3 Z M 6,6 C 7.5969,6 9,7.0577 9,8.5 9,9.9423 7.5969,11 6,11 4.4031,11 3,9.9423 3,8.5 3,7.0577 4.4031,6 6,6 Z M 6,7 C 4.8355,7 4,7.7332 4,8.5 4,9.2668 4.8355,10 6,10 7.1645,10 8,9.2668 8,8.5 8,7.7332 7.1645,7 6,7 Z M 5,12 H 6 V 13 H 13 V 14 H 5 Z"/>
  </g>

  <g id="fcitx-vk-active" transform="translate(0,88)">
    <use href="#box" />
    <path fill="url(#oomox)" class="ColorScheme-Text" d="M 2,2 C 0.892,2 0,2.892 0,4 V 12 C 0,13.108 0.892,14 2,14 H 13 C 14.108,14 15,13.108 15,12 V 4 C 15,2.892 14.108,2 13,2 Z M 2.25,4 H 3.75 C 3.8885,4 4,4.1115 4,4.25 V 5.75 C 4,5.8885 3.8885,6 3.75,6 H 2.25 C 2.1115,6 2,5.8885 2,5.75 V 4.25 C 2,4.1115 2.1115,4 2.25,4 Z M 5.25,4 H 6.75 C 6.8885,4 7,4.1115 7,4.25 V 5.75 C 7,5.8885 6.8885,6 6.75,6 H 5.25 C 5.1115,6 5,5.8885 5,5.75 V 4.25 C 5,4.1115 5.1115,4 5.25,4 Z M 8.25,4 H 9.75 C 9.889,4 10,4.1115 10,4.25 V 5.75 C 10,5.8885 9.889,6 9.75,6 H 8.25 C 8.111,6 8,5.8885 8,5.75 V 4.25 C 8,4.1115 8.111,4 8.25,4 Z M 11.25,4 H 12.75 C 12.889,4 13,4.1115 13,4.25 V 5.75 C 13,5.8885 12.889,6 12.75,6 H 11.25 C 11.111,6 11,5.8885 11,5.75 V 4.25 C 11,4.1115 11.111,4 11.25,4 Z M 2.25,7 H 3.75 C 3.8885,7 4,7.111 4,7.25 V 8.75 C 4,8.889 3.8885,9 3.75,9 H 2.25 C 2.1115,9 2,8.889 2,8.75 V 7.25 C 2,7.111 2.1115,7 2.25,7 Z M 5.25,7 H 6.75 C 6.8885,7 7,7.111 7,7.25 V 8.75 C 7,8.889 6.8885,9 6.75,9 H 5.25 C 5.1115,9 5,8.889 5,8.75 V 7.25 C 5,7.111 5.1115,7 5.25,7 Z M 8.25,7 H 9.75 C 9.889,7 10,7.111 10,7.25 V 8.75 C 10,8.889 9.889,9 9.75,9 H 8.25 C 8.111,9 8,8.889 8,8.75 V 7.25 C 8,7.111 8.111,7 8.25,7 Z M 11.25,7 H 12.75 C 12.889,7 13,7.111 13,7.25 V 8.75 C 13,8.889 12.889,9 12.75,9 H 11.25 C 11.111,9 11,8.889 11,8.75 V 7.25 C 11,7.111 11.111,7 11.25,7 Z M 4.25,10 H 10.75 C 10.889,10 11,10.111 11,10.25 V 11.75 C 11,11.889 10.889,12 10.75,12 H 4.25 C 4.1115,12 4,11.889 4,11.75 V 10.25 C 4,10.111 4.1115,10 4.25,10 Z"/>
  </g>
  <g id="fcitx-fullwidth-active" transform="translate(22,88)">
    <use href="#box" />
    <path fill="url(#oomox)" class="ColorScheme-Text" d="M 8 0 A 8 8 0 0 0 0 8 A 8 8 0 0 0 8 16 A 8 8 0 0 0 16 8 A 8 8 0 0 0 8 0 z M 8 2 A 6 6 0 0 1 14 8 A 6 6 0 0 1 8 14 A 6 6 0 0 1 2 8 A 6 6 0 0 1 8 2 z"/>
  </g>
  <g id="fcitx-punc-active" transform="translate(44,88)">
    <use href="#box" />
    <path fill="url(#oomox)" class="ColorScheme-Text" d="M 3 3 A 3 3 0 0 0 0 6 A 3 3 0 0 0 3 9 A 3 3 0 0 0 6 6 A 3 3 0 0 0 3 3 z M 12 3 A 3 3 0 0 0 9 6 A 3 3 0 0 0 12 9 A 3 3 0 0 0 12.701 8.9121 C 12.16 10.143 10.935 11 9.5 11 L 9 11 L 9 13 L 9.5996 13 C 12.591 13 15 10.547 15 7.5 L 15 6 A 3 3 0 0 0 12 3 z M 3 5 A 1 1 0 0 1 4 6 A 1 1 0 0 1 3 7 A 1 1 0 0 1 2 6 A 1 1 0 0 1 3 5 z M 12 5 A 1 1 0 0 1 13 6 A 1 1 0 0 1 12 7 A 1 1 0 0 1 11 6 A 1 1 0 0 1 12 5 z"/>
  </g>
  <g id="fcitx-remind-active" transform="translate(66,88)">
    <use href="#box" />
    <path fill="url(#oomox)" class="ColorScheme-Text" d="m 8.00004,0 c -2.8404,0 -5.14286,2.30914 -5.14286,5.15571 0,1.68789 0.79443,3.16131 2.04106,4.10143 0.57344,0.43406 1.04787,0.99321 1.04787,1.76464 L 6.00001,12 h 4 l 0.0571,-0.97822 c 0.045,-0.77013 0.4722,-1.33058 1.04461,-1.76464 1.2477,-0.94012 2.0411,-2.41354 2.0411,-4.10143 C 13.14282,2.30914 10.84041,0 7.99988,0 Z m 0,2.06035 c 1.70331,0 3.0857,1.38947 3.0857,3.09536 0,0.97457 -0.4438,1.87149 -1.22142,2.45571 C 8.7041,8.48931 8.26438,9.47005 8.10289,10.28571 H 7.89719 C 7.73672,9.47005 7.2965,8.48931 6.13576,7.61142 5.36022,7.02668 4.91432,6.12977 4.91432,5.15571 c 0,-1.70589 1.38292,-3.09536 3.08572,-3.09536 z M 6.00004,13 v 1 h 4 v -1 z m 1,2 v 1 h 2 v -1 z"/>
  </g>
  <g id="fcitx-handwriting-active" transform="translate(88,88)">
    <use href="#box" />
    <path fill="url(#oomox)" class="ColorScheme-Text" d="M 3.99414,1 C 2.73594,1.0145 1.81525,0.9694 1.0625,1.38477 0.68613,1.59243 0.38927,1.94415 0.22461,2.38281 0.05994,2.82148 0,3.34239 0,4 v 8 c 0,0.65761 0.0599,1.17853 0.22461,1.61719 0.16467,0.43866 0.46152,0.79039 0.83789,0.99804 0.75275,0.41532 1.67345,0.3702 2.93164,0.38477 h 0.004 8.0039 0.004 c 1.25819,-0.0145 2.17889,0.0306 2.93164,-0.38477 0.37637,-0.20766 0.67322,-0.55938 0.83789,-0.99804 C 15.93988,13.17852 16,12.65761 16,12 V 4 c 0,-0.65761 -0.0599,-1.17852 -0.22461,-1.61719 -0.005,-0.0125 -0.0127,-0.0228 -0.0176,-0.0352 L 14.93748,3.15425 C 14.97495,3.38369 15,3.65264 15,4 v 8 c 0,0.59239 -0.0626,1.00573 -0.16016,1.26562 -0.0976,0.25991 -0.20331,0.37147 -0.38672,0.47266 C 14.08718,13.94019 13.25852,13.98529 12,14 H 4.00586 4 C 2.74147,13.9853 1.91088,13.9402 1.54492,13.73828 1.36151,13.63709 1.25772,13.52554 1.16016,13.26562 1.06259,13.00572 1,12.59239 1,12 V 4 C 1,3.40761 1.0626,2.99427 1.16016,2.73438 1.25776,2.47447 1.36151,2.36291 1.54492,2.26172 1.91088,2.05981 2.74147,2.01471 4,2 H 7.85156 L 8.83398,1 H 3.99805 Z" />
    <path fill="url(#oomox)" class="ColorScheme-Text" d="m 11.23828,0 -0.35351,0.35938 -6.96875,7.0957 -0.0293,0.0449 c -0.0618,0.0987 -0.27016,0.45 -0.58399,1.08789 -0.31382,0.63789 -0.70008,1.50961 -1.01171,2.49219 L 2,11.99998 2.91992,11.70897 C 3.90332,11.39728 4.77428,11.01101 5.41211,10.69725 6.04994,10.38348 6.39913,10.17655 6.5,10.11327 L 6.5449,10.08397 14,2.7617 Z M 4.89062,7.89063 6.10938,9.10938 5.93164,9.28516 C 5.93864,9.28016 5.5531,9.51233 4.9707,9.79883 4.7565,9.9042 4.43523,10.02139 4.13672,10.13672 L 3.86328,9.86329 C 3.9786,9.5648 4.09577,9.24355 4.20117,9.0293 4.48776,8.44678 4.71868,8.06341 4.71484,8.06836 Z M 4,12 v 1 H 14 V 7 h -1 v 5 z" />
  </g>

  <g id="fcitx-vk-inactive" transform="translate(0,22)">
    <use href="#fcitx-vk-active" opacity="0.3" />
  </g>
  <g id="fcitx-fullwidth-inactive" transform="translate(0,22)">
    <use href="#fcitx-fullwidth-active" opacity="0.3" />
  </g>
  <g id="fcitx-punc-inactive" transform="translate(0,22)">
    <use href="#fcitx-punc-active" opacity="0.3" />
  </g>
  <g id="fcitx-remind-inactive" transform="translate(0,22)">
    <use href="#fcitx-remind-active" opacity="0.3" />
  </g>
  <g id="fcitx-handwriting-inactive" transform="translate(0,22)">
    <use href="#fcitx-handwriting-active" opacity="0.3" />
  </g>
</svg>
