<?xml version="1.0" encoding="UTF-8" standalone="no"?>
<svg xmlns="http://www.w3.org/2000/svg" version="1.1" viewBox="0 0 110 22">
  <defs>
    <style id="current-color-scheme" type="text/css">
      .ColorScheme-Text { color: #939597; }
      .ColorScheme-Highlight { color: #1AD6AB; }
    </style>
    <linearGradient id="arrongin" x1="0%" x2="0%" y1="0%" y2="100%">
      <stop offset="0%"    stop-color= "#dd9b44" stop-opacity="1"/>
      <stop offset="100%"  stop-color= "#ad6c16" stop-opacity="1"/>
    </linearGradient>
    <linearGradient id="aurora" x1="0%" x2="0%" y1="0%" y2="100%">
      <stop offset="0%"    stop-color= "#09D4DF" stop-opacity="1"/>
      <stop offset="100%"  stop-color= "#9269F4" stop-opacity="1"/>
    </linearGradient>
    <linearGradient id="cyberneon" x1="0%" x2="0%" y1="0%" y2="100%">
      <stop offset="0"    stop-color= "#0abdc6" stop-opacity="1"/>
      <stop offset="1"    stop-color= "#ea00d9" stop-opacity="1"/>
    </linearGradient>
    <linearGradient id="fitdance" x1="0%" x2="0%" y1="0%" y2="100%">
      <stop offset="0%"    stop-color= "#1AD6AB" stop-opacity="1"/>
      <stop offset="100%"  stop-color= "#329DB6" stop-opacity="1"/>
    </linearGradient>
    <linearGradient id="oomox" x1="0%" x2="0%" y1="0%" y2="100%">
      <stop offset="0%"    stop-color= "#c9b184" stop-opacity="1"/>
      <stop offset="100%"  stop-color= "#aa7f2a" stop-opacity="1"/>
    </linearGradient>
    <linearGradient id="rainblue" x1="0%" x2="0%" y1="0%" y2="100%">
      <stop offset="0%"    stop-color= "#00F260" stop-opacity="1"/>
      <stop offset="100%"  stop-color= "#0575E6" stop-opacity="1"/>
    </linearGradient>
    <linearGradient id="sunrise" x1="0%" x2="0%" y1="0%" y2="100%">
      <stop offset="0%"    stop-color= "#FF8501" stop-opacity="1"/>
      <stop offset="100%"  stop-color= "#FFCB01" stop-opacity="1"/>
    </linearGradient>
    <linearGradient id="telinkrin" x1="0%" x2="0%" y1="0%" y2="100%">
      <stop offset="0%"    stop-color= "#b2ced6" stop-opacity="1"/>
      <stop offset="100%"  stop-color= "#6da5b7" stop-opacity="1"/>
    </linearGradient>
    <linearGradient id="60spsycho" x1="0%" x2="0%" y1="0%" y2="100%">
      <stop offset="0%"    stop-color= "#df5940" stop-opacity="1"/>
      <stop offset="25%"   stop-color= "#d8d15f" stop-opacity="1"/>
      <stop offset="50%"   stop-color= "#e9882a" stop-opacity="1"/>
      <stop offset="100%"  stop-color= "#279362" stop-opacity="1"/>
    </linearGradient>
    <linearGradient id="90ssummer" x1="0%" x2="0%" y1="0%" y2="100%">
      <stop offset="0%"    stop-color= "#f618c7" stop-opacity="1"/>
      <stop offset="20%"   stop-color= "#94ffab" stop-opacity="1"/>
      <stop offset="50%"   stop-color= "#fbfd54" stop-opacity="1"/>
      <stop offset="100%"  stop-color= "#0f83ae" stop-opacity="1"/>
    </linearGradient>

    <path id="box" fill="none" d="m0 0h16v16h-16z" />
  </defs>

  <g id="go-home" transform="translate(0,0)">
    <use href="#box" />
    <path fill="url(#oomox)" class="ColorScheme-Text" d="M 8 0.50976562 L 0 8.5078125 L 0.72070312 9.2304688 L 1.8886719 8.0625 L 1.8886719 15.490234 L 11.056641 15.490234 L 11.056641 14.470703 L 11.056641 10.914062 C 11.056641 10.65636 11.032245 10.420935 10.984375 10.207031 C 10.935483 9.9941458 10.849728 9.811842 10.728516 9.6621094 C 10.611378 9.5062653 10.454484 9.3881276 10.255859 9.3066406 C 10.057234 9.2190415 9.8063432 9.1757812 9.5058594 9.1757812 C 9.1707435 9.1757813 8.8758251 9.1964354 8.6191406 9.2402344 A 8.6274514 8.6274514 0 0 0 8 9.3652344 L 8 14.470703 L 2.90625 14.470703 L 2.90625 7.0449219 L 8 1.9492188 L 13.095703 7.046875 L 13.09375 15.490234 L 14.111328 15.490234 L 14.111328 8.0625 L 15.279297 9.2304688 L 16 8.5078125 L 8 0.50976562 z M 12.072266 3.2675781 L 14.111328 5.3046875 L 14.111328 3.2675781 L 12.072266 3.2675781 z"/>
  </g>
  <g id="go-previous" transform="translate(22)">
    <use href="#box" />
    <path fill="url(#oomox)" class="ColorScheme-Text" d="M 7.7890625 2 L 1.7890625 8 L 7.7890625 14.041016 L 9.1757812 12.654297 L 5.5410156 9.0214844 L 14.001953 9 L 14.001953 7 L 5.5410156 7.0214844 L 9.1757812 3.3867188 L 7.7890625 2 z"/>
  </g>
  <g id="go-next" transform="translate(44)">
    <use href="#box" />
    <path fill="url(#oomox)" class="ColorScheme-Text" d="M 8.2109375 2 L 6.8242188 3.3867188 L 10.458984 7.0214844 L 1.9980469 7 L 1.9980469 9 L 10.458984 9.0214844 L 6.8242188 12.654297 L 8.2109375 14.041016 L 14.210938 8 L 8.2109375 2 z"/>
  </g>
  <g id="go-up" transform="translate(66)">
    <use href="#box" />
    <path fill="url(#oomox)" class="ColorScheme-Text" d="M 8 1.7871094 L 2 7.7871094 L 3.3867188 9.1738281 L 7.0214844 5.5390625 L 7 14 L 9 14 L 9.0214844 5.5390625 L 12.654297 9.1738281 L 14.041016 7.7871094 L 8 1.7871094 z"/>
  </g>
  <g id="go-down" transform="translate(88)">
    <use href="#box" />
    <path fill="url(#oomox)" class="ColorScheme-Text" d="M 7 2 L 7.0214844 10.460938 L 3.3867188 6.8261719 L 2 8.2109375 L 8 14.210938 L 14.041016 8.2109375 L 12.654297 6.8261719 L 9.0214844 10.460938 L 9 2 L 7 2 z"/>
  </g>
</svg>
