<?xml version="1.0" encoding="UTF-8"?>
<svg xmlns="http://www.w3.org/2000/svg" version="1.1" viewBox="0 0 66 66">
  <defs>
    <style id="current-color-scheme" type="text/css">
      .ColorScheme-Text { color: #939597; }
      .ColorScheme-Highlight { color: #1AD6AB; }
    </style>
    <linearGradient id="arrongin" x1="0%" x2="0%" y1="0%" y2="100%">
      <stop offset="0%"    stop-color= "#dd9b44" stop-opacity="1"/>
      <stop offset="100%"  stop-color= "#ad6c16" stop-opacity="1"/>
    </linearGradient>
    <linearGradient id="aurora" x1="0%" x2="0%" y1="0%" y2="100%">
      <stop offset="0%"    stop-color= "#09D4DF" stop-opacity="1"/>
      <stop offset="100%"  stop-color= "#9269F4" stop-opacity="1"/>
    </linearGradient>
    <linearGradient id="cyberneon" x1="0%" x2="0%" y1="0%" y2="100%">
      <stop offset="0"    stop-color= "#0abdc6" stop-opacity="1"/>
      <stop offset="1"    stop-color= "#ea00d9" stop-opacity="1"/>
    </linearGradient>
    <linearGradient id="fitdance" x1="0%" x2="0%" y1="0%" y2="100%">
      <stop offset="0%"    stop-color= "#1AD6AB" stop-opacity="1"/>
      <stop offset="100%"  stop-color= "#329DB6" stop-opacity="1"/>
    </linearGradient>
    <linearGradient id="oomox" x1="0%" x2="0%" y1="0%" y2="100%">
      <stop offset="0%"    stop-color= "#c9b184" stop-opacity="1"/>
      <stop offset="100%"  stop-color= "#aa7f2a" stop-opacity="1"/>
    </linearGradient>
    <linearGradient id="rainblue" x1="0%" x2="0%" y1="0%" y2="100%">
      <stop offset="0%"    stop-color= "#00F260" stop-opacity="1"/>
      <stop offset="100%"  stop-color= "#0575E6" stop-opacity="1"/>
    </linearGradient>
    <linearGradient id="sunrise" x1="0%" x2="0%" y1="0%" y2="100%">
      <stop offset="0%"    stop-color= "#FF8501" stop-opacity="1"/>
      <stop offset="100%"  stop-color= "#FFCB01" stop-opacity="1"/>
    </linearGradient>
    <linearGradient id="telinkrin" x1="0%" x2="0%" y1="0%" y2="100%">
      <stop offset="0%"    stop-color= "#b2ced6" stop-opacity="1"/>
      <stop offset="100%"  stop-color= "#6da5b7" stop-opacity="1"/>
    </linearGradient>
    <linearGradient id="60spsycho" x1="0%" x2="0%" y1="0%" y2="100%">
      <stop offset="0%"    stop-color= "#df5940" stop-opacity="1"/>
      <stop offset="25%"   stop-color= "#d8d15f" stop-opacity="1"/>
      <stop offset="50%"   stop-color= "#e9882a" stop-opacity="1"/>
      <stop offset="100%"  stop-color= "#279362" stop-opacity="1"/>
    </linearGradient>
    <linearGradient id="90ssummer" x1="0%" x2="0%" y1="0%" y2="100%">
      <stop offset="0%"    stop-color= "#f618c7" stop-opacity="1"/>
      <stop offset="20%"   stop-color= "#94ffab" stop-opacity="1"/>
      <stop offset="50%"   stop-color= "#fbfd54" stop-opacity="1"/>
      <stop offset="100%"  stop-color= "#0f83ae" stop-opacity="1"/>
    </linearGradient>
    
    <path id="box" fill="none" d="m0 0h16v16h-16z" />
  </defs>

  <g id="input-keyboard" transform="translate(0,0)">
    <use href="#box" />
    <path fill="url(#oomox)" class="ColorScheme-Text" d="M 4.2597656 2.1328125 C 2.9178989 2.1488125 1.9360126 2.1022552 1.1328125 2.5449219 A 2.0053334 2.0053334 0 0 0 0.24023438 3.609375 C 0.064234365 4.0765751 3.7007434e-17 4.6331844 0 5.3339844 L 0 10.666016 C 0 11.367882 0.064234365 11.923425 0.24023438 12.390625 C 0.41516771 12.858891 0.73174586 13.233211 1.1328125 13.455078 C 1.9360126 13.898811 2.9178989 13.851187 4.2597656 13.867188 L 11.740234 13.867188 C 13.082101 13.851187 14.063987 13.897745 14.867188 13.455078 A 2.0053334 2.0053334 0 0 0 15.761719 12.390625 C 15.936652 11.923425 16 11.366816 16 10.666016 L 16 5.3339844 C 16 4.6321177 15.935766 4.0765751 15.759766 3.609375 A 2.0053334 2.0053334 0 0 0 14.867188 2.5449219 C 14.063987 2.1011885 13.082101 2.1488125 11.740234 2.1328125 L 4.2636719 2.1328125 L 4.2597656 2.1328125 z M 4.2675781 3.1992188 L 11.732422 3.1992188 C 13.075355 3.2152188 13.959209 3.2630489 14.349609 3.4785156 C 14.545875 3.5851822 14.658252 3.7050885 14.761719 3.9824219 C 14.865185 4.2597552 14.933594 4.7025177 14.933594 5.3339844 L 14.933594 10.666016 C 14.933594 11.297482 14.865185 11.740244 14.761719 12.017578 C 14.657185 12.294911 14.545875 12.413751 14.349609 12.521484 C 13.959209 12.736951 13.075355 12.784781 11.732422 12.800781 L 4.2675781 12.800781 C 2.9246447 12.784781 2.0407906 12.736951 1.6503906 12.521484 C 1.4541239 12.414818 1.3417479 12.294911 1.2382812 12.017578 C 1.1348145 11.740244 1.0664062 11.297482 1.0664062 10.666016 L 1.0664062 5.3339844 C 1.0664062 4.7025177 1.1348146 4.2597552 1.2382812 3.9824219 C 1.3428145 3.7050885 1.4541239 3.5862489 1.6503906 3.4785156 C 2.0407906 3.2630489 2.9246447 3.2152188 4.2675781 3.1992188 z M 3.1992188 5.3339844 L 3.1992188 6.4003906 L 4.2675781 6.4003906 L 4.2675781 5.3339844 L 3.1992188 5.3339844 z M 5.3339844 5.3339844 L 5.3339844 6.4003906 L 6.4003906 6.4003906 L 6.4003906 5.3339844 L 5.3339844 5.3339844 z M 7.4667969 5.3339844 L 7.4667969 6.4003906 L 8.5332031 6.4003906 L 8.5332031 5.3339844 L 7.4667969 5.3339844 z M 9.5996094 5.3339844 L 9.5996094 6.4003906 L 10.666016 6.4003906 L 10.666016 5.3339844 L 9.5996094 5.3339844 z M 11.732422 5.3339844 L 11.732422 6.4003906 L 12.800781 6.4003906 L 12.800781 5.3339844 L 11.732422 5.3339844 z M 4.2636719 7.4667969 L 4.2695312 8.5332031 L 5.3339844 8.5332031 L 5.3339844 7.4667969 L 4.2636719 7.4667969 z M 6.4003906 7.4667969 L 6.4003906 8.5332031 L 7.4667969 8.5332031 L 7.4667969 7.4667969 L 6.4003906 7.4667969 z M 8.5332031 7.4667969 L 8.5332031 8.5332031 L 9.5996094 8.5332031 L 9.5996094 7.4667969 L 8.5332031 7.4667969 z M 10.666016 7.4667969 L 10.666016 8.5332031 L 11.732422 8.5332031 L 11.732422 7.4667969 L 10.666016 7.4667969 z M 3.1992188 9.5996094 L 3.1992188 10.666016 L 4.2675781 10.666016 L 4.2675781 9.5996094 L 3.1992188 9.5996094 z M 5.3339844 9.5996094 L 5.3339844 10.666016 L 10.666016 10.666016 L 10.666016 9.5996094 L 5.3339844 9.5996094 z M 11.732422 9.5996094 L 11.746094 10.666016 L 12.806641 10.666016 L 12.792969 9.5996094 L 11.732422 9.5996094 z"/>
  </g>
  <g id="input-keyboard-virtual-on" transform="translate(22,0)">
    <use href="#box" />
    <path fill="url(#oomox)" class="ColorScheme-Text" d="M 2,2 C 0.892,2 0,2.892 0,4 V 12 C 0,13.108 0.892,14 2,14 H 13 C 14.108,14 15,13.108 15,12 V 4 C 15,2.892 14.108,2 13,2 Z M 2.25,4 H 3.75 C 3.8885,4 4,4.1115 4,4.25 V 5.75 C 4,5.8885 3.8885,6 3.75,6 H 2.25 C 2.1115,6 2,5.8885 2,5.75 V 4.25 C 2,4.1115 2.1115,4 2.25,4 Z M 5.25,4 H 6.75 C 6.8885,4 7,4.1115 7,4.25 V 5.75 C 7,5.8885 6.8885,6 6.75,6 H 5.25 C 5.1115,6 5,5.8885 5,5.75 V 4.25 C 5,4.1115 5.1115,4 5.25,4 Z M 8.25,4 H 9.75 C 9.889,4 10,4.1115 10,4.25 V 5.75 C 10,5.8885 9.889,6 9.75,6 H 8.25 C 8.111,6 8,5.8885 8,5.75 V 4.25 C 8,4.1115 8.111,4 8.25,4 Z M 11.25,4 H 12.75 C 12.889,4 13,4.1115 13,4.25 V 5.75 C 13,5.8885 12.889,6 12.75,6 H 11.25 C 11.111,6 11,5.8885 11,5.75 V 4.25 C 11,4.1115 11.111,4 11.25,4 Z M 2.25,7 H 3.75 C 3.8885,7 4,7.111 4,7.25 V 8.75 C 4,8.889 3.8885,9 3.75,9 H 2.25 C 2.1115,9 2,8.889 2,8.75 V 7.25 C 2,7.111 2.1115,7 2.25,7 Z M 5.25,7 H 6.75 C 6.8885,7 7,7.111 7,7.25 V 8.75 C 7,8.889 6.8885,9 6.75,9 H 5.25 C 5.1115,9 5,8.889 5,8.75 V 7.25 C 5,7.111 5.1115,7 5.25,7 Z M 8.25,7 H 9.75 C 9.889,7 10,7.111 10,7.25 V 8.75 C 10,8.889 9.889,9 9.75,9 H 8.25 C 8.111,9 8,8.889 8,8.75 V 7.25 C 8,7.111 8.111,7 8.25,7 Z M 11.25,7 H 12.75 C 12.889,7 13,7.111 13,7.25 V 8.75 C 13,8.889 12.889,9 12.75,9 H 11.25 C 11.111,9 11,8.889 11,8.75 V 7.25 C 11,7.111 11.111,7 11.25,7 Z M 4.25,10 H 10.75 C 10.889,10 11,10.111 11,10.25 V 11.75 C 11,11.889 10.889,12 10.75,12 H 4.25 C 4.1115,12 4,11.889 4,11.75 V 10.25 C 4,10.111 4.1115,10 4.25,10 Z"/>
  </g>
  <g id="input-keyboard-virtual-off" transform="translate(22,0)">
    <use href="#input-keyboard-virtual-on" opacity="0.3"/>
  </g>
  <g id="input-keyboard-battery" transform="translate(0,22)">
    <use href="#box" />
    <path fill="url(#oomox)" class="ColorScheme-Text" d="M 2.5,0.99965 C 2.223,0.99965 2,1.2227 2,1.4996 V 1.9996 L 0,1.9977 V 1.9974 14.5 C 0,14.777 0.223,15 0.5,15 H 6.5 C 6.777,15 7,14.777 7,14.5 V 1.9984 L 6.5,2.0003 H 5 V 1.5004 C 5,1.2234 4.777,1.0004 4.5,1.0004 Z"/>
    <path fill="url(#oomox)" class="ColorScheme-Text" d="M 10,2 C 9.446,2 9,2.446 9,3 V 14 C 9,14.554 9.446,15 10,15 H 15 C 15.554,15 16,14.554 16,14 V 3 C 16,2.446 15.554,2 15,2 Z M 10,4 H 11 V 5 H 10 Z M 12,4 H 13 V 5 H 12 Z M 14,5 H 15 V 12 H 14 Z M 10,6 H 11 V 7 H 10 Z M 12,6 H 13 V 7 H 12 Z M 10,8 H 11 V 9 H 10 Z M 12,8 H 13 V 9 H 12 Z M 10,10 H 11 V 11 H 10 Z M 12,10 H 13 V 11 H 12 Z M 10,12 H 11 V 13 H 10 Z M 12,12 H 13 V 13 H 12 Z"/>
  </g>
  <g id="input-mouse-battery" transform="translate(22,22)">
    <use href="#box" />
    <path fill="url(#oomox)" class="ColorScheme-Text" d="m 2.5,1.99965 c -0.277,0 -0.5,0.223 -0.5,0.5 l 0,0.5 -2,-0.002 0,-3e-4 L 0,13.5 C 0,13.777 0.223,14 0.5,14 l 6,0 C 6.777,14 7,13.777 7,13.5 l 0,-10.50165 -0.5,0.002 -1.5,0 0,-0.5 c 0,-0.277 -0.223,-0.5 -0.5,-0.5 z"/>
    <path fill="url(#oomox)" class="ColorScheme-Text" d="M 12,2.0000009 C 10.237272,2.0000009 9,3.507 9,6 l 3,0 z m 1,0 L 13,6 16,6 C 16,3.507 14.762728,2.0000009 13,2.0000009 Z M 9,7 9,9.5000005 C 9,11.993 10.419091,14 12.181818,14 l 0.636364,0 C 14.580909,14 16,11.993 16,9.5000005 L 16,7 12.818182,7 Z"/>
  </g>
  <g id="input-keyboard-brightness" transform="translate(44,22)">
    <use href="#box" />
    <path fill="url(#oomox)" class="ColorScheme-Text" d="M 5.5,9 C 5.223,9 5,9.223 5,9.5 V 12 H 11 V 9.5 C 11,9.223 10.777,9 10.5,9 Z"/>
    <path fill="url(#oomox)" class="ColorScheme-Text" d="M 3,12 V 10 L 0,11 Z"/>
    <path fill="url(#oomox)" class="ColorScheme-Text" d="M 7,6 H 9 L 8,3 Z"/>
    <path fill="url(#oomox)" class="ColorScheme-Text" d="M 13,10 V 12 L 16,11 Z"/>
    <path fill="url(#oomox)" class="ColorScheme-Text" d="M 10.825,6.756 12.239,8.1703 13.654,5.3418 Z"/>
    <path fill="url(#oomox)" class="ColorScheme-Text" d="M 3.7605,8.1703 5.1748,6.756 2.3463,5.3418 Z"/>
  </g>
  <g id="input-caps-on" transform="translate(0,44)">
    <use href="#box" />
    <path fill="url(#oomox)" class="ColorScheme-Text" d="M 3.625 1 A 1.7500384 1.6924769 0 0 0 1.8847656 2.5058594 L 1.0097656 10.121094 A 1.7500384 1.6924769 0 0 0 2.75 12 L 13.25 12 A 1.7500384 1.6924769 0 0 0 14.990234 10.121094 L 14.115234 2.5058594 A 1.7500384 1.6924769 0 0 0 12.375 1 L 3.625 1 z M 7.140625 3 L 8.8496094 3 L 11 9 L 9.5898438 9 L 9.1386719 8 L 6.8671875 8 L 6.4101562 9 L 5 9 L 7.140625 3 z M 7.9921875 4.3378906 L 7.1503906 7 L 8.8496094 7 L 7.9921875 4.3378906 z M 1 12.300781 L 1 12.779297 C 1 13.839797 1.9084203 15 2.96875 15 L 13.03125 15 C 14.091667 15 15 13.839797 15 12.779297 L 15 12.300781 C 14.534537 12.725155 13.928072 12.998047 13.25 12.998047 L 2.75 12.998047 C 2.0722779 12.998047 1.4651137 12.725155 1 12.300781 z"/>
  </g>
  <g id="input-num-on" transform="translate(22,44)">
    <use href="#box" />
    <path fill="url(#oomox)" class="ColorScheme-Text" d="M 3.625 1 A 1.7500384 1.6924769 0 0 0 1.8847656 2.5058594 L 1.0097656 10.121094 A 1.7500384 1.6924769 0 0 0 2.75 12 L 13.25 12 A 1.7500384 1.6924769 0 0 0 14.990234 10.121094 L 14.115234 2.5058594 A 1.7500384 1.6924769 0 0 0 12.375 1 L 3.625 1 z M 7 3 L 9 3 L 9 9 L 10 9 L 10 10 L 6 10 L 6 9 L 7 9 L 7 5 L 6 5 L 6 4 L 7 4 L 7 3 z M 1 12.300781 L 1 12.779297 C 1 13.839797 1.9084203 15 2.96875 15 L 13.03125 15 C 14.091667 15 15 13.839797 15 12.779297 L 15 12.300781 C 14.534537 12.725155 13.928072 12.998047 13.25 12.998047 L 2.75 12.998047 C 2.0722779 12.998047 1.4651137 12.725155 1 12.300781 z"/>
  </g>
</svg>
