<?xml version="1.0" encoding="UTF-8"?>
<svg xmlns="http://www.w3.org/2000/svg" version="1.1" viewBox="0 0 300 225">
  <defs>
    <style id="current-color-scheme" type="text/css">
      .ColorScheme-Text { color: #939597; }
      .ColorScheme-Highlight { color: #1AD6AB; }
    </style>
    <linearGradient id="arrongin" x1="0%" x2="0%" y1="0%" y2="100%">
      <stop offset="0%" style="stop-color:#dd9b44"/>
      <stop offset="100%" style="stop-color:#ad6c16"/>
    </linearGradient>
    <linearGradient id="aurora" x1="0%" x2="0%" y1="0%" y2="100%">
      <stop offset="0%" style="stop-color:#09D4DF"/>
      <stop offset="100%" style="stop-color:#9269F4"/>
    </linearGradient>
    <linearGradient id="cyberneon" x1="0%" x2="0%" y1="0%" y2="100%">
      <stop offset="0" style="stop-color:#0abdc6"/>
      <stop offset="1" style="stop-color:#ea00d9"/>
    </linearGradient>
    <linearGradient id="fitdance" x1="0%" x2="0%" y1="0%" y2="100%">
      <stop offset="0%" style="stop-color:#1AD6AB"/>
      <stop offset="100%" style="stop-color:#329DB6"/>
    </linearGradient>
    <linearGradient id="oomox" x1="0%" x2="0%" y1="0%" y2="100%">
      <stop offset="0%" style="stop-color:#c9b184"/>
      <stop offset="100%" style="stop-color:#aa7f2a"/>
    </linearGradient>
    <linearGradient id="rainblue" x1="0%" x2="0%" y1="0%" y2="100%">
      <stop offset="0%" style="stop-color:#00F260"/>
      <stop offset="100%" style="stop-color:#0575E6"/>
    </linearGradient>
    <linearGradient id="sunrise" x1="0%" x2="0%" y1="0%" y2="100%">
      <stop offset="0%" style="stop-color:#FF8501"/>
      <stop offset="100%" style="stop-color:#FFCB01"/>
    </linearGradient>
    <linearGradient id="telinkrin" x1="0%" x2="0%" y1="0%" y2="100%">
      <stop offset="0%" style="stop-color:#b2ced6"/>
      <stop offset="100%" style="stop-color:#6da5b7"/>
    </linearGradient>
    <linearGradient id="60spsycho" x1="0%" x2="0%" y1="0%" y2="100%">
      <stop offset="0%" style="stop-color:#df5940"/>
      <stop offset="25%" style="stop-color:#d8d15f"/>
      <stop offset="50%" style="stop-color:#e9882a"/>
      <stop offset="100%" style="stop-color:#279362"/>
    </linearGradient>
    <linearGradient id="90ssummer" x1="0%" x2="0%" y1="0%" y2="100%">
      <stop offset="0%" style="stop-color:#f618c7"/>
      <stop offset="20%" style="stop-color:#94ffab"/>
      <stop offset="50%" style="stop-color:#fbfd54"/>
      <stop offset="100%" style="stop-color:#0f83ae"/>
    </linearGradient>

    <path id="box" fill="none" d="m0 0h64v64h-64z" />

    <path id="duplicate" fill="url(#oomox)" class="ColorScheme-Text" d="M 26.865234 0.048828125 C 22.972676 0.093778125 20.123742 -0.04545945 17.794922 1.2421875 C 16.630526 1.8859336 15.712542 2.9760915 15.203125 4.3359375 C 14.693677 5.6958146 14.507812 7.3110184 14.507812 9.3496094 L 14.507812 27.949219 C 14.507812 29.98781 14.693557 31.603039 15.203125 32.962891 C 15.34014 33.328619 15.512073 33.670842 15.705078 33.994141 L 7.1640625 33.994141 C 5.214375 33.994141 3.6210937 35.583087 3.6210938 37.523438 L 3.6210938 56.9375 C 3.6210938 58.877851 5.214375 60.466797 7.1640625 60.466797 L 0.080078125 60.466797 C 0.080078125 62.407148 1.6740626 63.994141 3.6210938 63.994141 L 39.039062 63.994141 C 40.986095 63.994141 42.580078 62.407148 42.580078 60.466797 L 35.496094 60.466797 C 37.445781 60.466797 39.021484 58.877851 39.021484 56.9375 L 39.03125 46.548828 L 54.726562 46.548828 L 54.726562 43.449219 C 54.726562 40.349219 51.632812 40.349609 51.632812 40.349609 L 45.445312 40.349609 L 45.445312 37.25 L 51.638672 37.25 L 51.652344 37.25 C 55.544871 37.20505 58.391882 37.344275 60.720703 36.056641 C 61.885099 35.412894 62.803051 34.322737 63.3125 32.962891 C 63.821427 31.603011 64.007812 29.98781 64.007812 27.949219 L 64.007812 9.3496094 C 64.007812 7.3110184 63.822069 5.6958146 63.3125 4.3359375 C 62.803095 2.9760915 61.885098 1.8859335 60.720703 1.2421875 C 58.391882 -0.04536648 55.544902 0.093840125 51.652344 0.048828125 L 51.638672 0.048828125 L 26.876953 0.048828125 L 26.865234 0.048828125 z M 26.882812 3.1503906 L 51.632812 3.1503906 C 55.526361 3.1959606 58.090499 3.3349861 59.222656 3.9609375 C 59.790081 4.2746569 60.118095 4.6200293 60.419922 5.4257812 C 60.721346 6.2315023 60.914063 7.5132004 60.914062 9.3496094 L 60.914062 27.949219 C 60.914062 29.785628 60.721736 31.067357 60.419922 31.873047 C 60.117972 32.678768 59.790081 33.024203 59.222656 33.337891 C 58.090499 33.963813 55.526361 34.104789 51.632812 34.150391 L 36.478516 34.150391 C 36.164593 34.059001 35.838718 33.994141 35.496094 33.994141 L 22.599609 33.994141 C 21.069231 33.880022 19.925052 33.690588 19.287109 33.337891 C 18.719685 33.024203 18.399483 32.678768 18.097656 31.873047 C 17.795799 31.067357 17.601562 29.785628 17.601562 27.949219 L 17.601562 9.3496094 C 17.601562 7.5132004 17.795842 6.2314713 18.097656 5.4257812 C 18.399606 4.6200602 18.719685 4.2746262 19.287109 3.9609375 C 20.419298 3.3350163 22.989234 3.1959916 26.882812 3.1503906 z M 7.1640625 37.523438 L 35.496094 37.523438 L 35.496094 56.9375 L 7.1640625 56.9375 L 7.1640625 37.523438 z M 21.330078 58.701172 C 22.304922 58.701172 23.101562 59.495298 23.101562 60.466797 C 23.101562 61.438296 22.304922 62.232422 21.330078 62.232422 C 20.355234 62.232422 19.558594 61.438296 19.558594 60.466797 C 19.558594 59.495298 20.355234 58.701172 21.330078 58.701172 z " />

    <path id="screen" fill="url(#oomox)" class="ColorScheme-Text" d="M 15.976576,3 C 10.943771,3.0560715 7.2610042,2.8816655 4.2500048,4.4877626 2.744522,5.2907127 1.5570765,6.650723 0.8984364,8.346875 0.2397555,10.043066 0,12.057242 0,14.6 v 23.2 c 0,2.54276 0.2396018,4.556968 0.8984364,6.253128 0.6586792,1.696149 1.8460856,3.056196 3.3515684,3.859111 C 7.261006,49.518142 10.94381,49.343662 15.976576,49.4 h 0.01559 8.007817 v 3.866667 h -8.000007 c 0,0 -4.000004,0 -4.000004,3.866667 V 61 h 40.000026 v -3.866666 c 0,-3.866667 -4,-3.866667 -4,-3.866667 H 39.999993 V 49.4 h 8.007819 0.01559 c 5.032762,-0.05607 8.715571,0.11832 11.726572,-1.487761 1.505482,-0.802954 2.692886,-2.162959 3.351568,-3.859111 C 63.759547,42.356934 64,40.34276 64,37.8 V 14.6 C 64,12.057242 63.7604,10.043066 63.101564,8.346875 62.442937,6.650723 61.255491,5.2907127 59.75001,4.4877626 56.739009,2.8817797 53.056244,3.056144 48.023441,3 H 48.00785 15.992208 Z m 0.02361,3.866667 h 32.000018 c 5.034083,0.056822 8.348706,0.2312234 9.812506,1.0119794 0.733642,0.3913061 1.156637,0.8225796 1.546877,1.8276036 0.38972,1.004985 0.640626,2.603176 0.640626,4.89375 v 23.2 c 0,2.290575 -0.2504,3.888803 -0.640626,4.893751 -0.3904,1.004985 -0.813235,1.436336 -1.546877,1.827603 -1.4638,0.780719 -4.778423,0.9551 -9.812506,1.01198 H 16.02362 16.000028 C 10.965904,45.476494 7.6435478,45.302107 6.1797068,44.521354 5.4460558,44.130087 5.0308749,43.698736 4.6406312,42.693751 4.2503521,41.688803 4.0000094,40.090575 4.0000094,37.8 V 14.6 c 0,-2.290574 0.2503982,-3.888803 0.6406218,-4.89375 C 5.0310313,8.701265 5.4460558,8.2699135 6.1796968,7.8786464 7.6435378,7.0979275 10.965892,6.923545 16.000018,6.866667 Z" />
  </defs>

  <g id="osd-duplicate" transform="translate(0,0)">
    <use href="#box" />
    <use href="#duplicate" />
    <path fill="url(#oomox)" class="ColorScheme-Text" d="M 13,41 H 29 V 53 H 13 Z m 1,5 v 6 h 2 v -6 z m 3,6 H 28 V 46 H 17 Z M 28,45 H 14 v -1 h 14 z m -4,-3 h -1 v 1 h 1 z m 2,0 h -1 v 1 h 1 z m 2,0 h -1 v 1 h 1 z" />
    <path fill="url(#oomox)" class="ColorScheme-Text" d="M 24,7.5 H 54 V 30 H 24 Z m 1.875,9.375 v 11.25 h 3.75 V 16.875 Z M 31.5,28.125 H 52.125 V 16.875 H 31.5 Z M 52.125,15 h -26.25 v -1.875 h 26.25 z m -7.5,-5.6249993 H 42.75 V 11.25 h 1.875 z m 3.75,0 H 46.5 V 11.25 h 1.875 z m 3.75,0 H 50.250001 V 11.25 H 52.125 Z" />
  </g>
  <g id="osd-shutd-screen" transform="translate(75,0)">
    <use href="#box" />
    <use href="#duplicate" />
    <path fill="url(#oomox)" class="ColorScheme-Text" d="M 13,41 H 29 V 53 H 13 Z m 1,5 v 6 h 2 v -6 z m 3,6 H 28 V 46 H 17 Z M 28,45 H 14 v -1 h 14 z m -4,-3 h -1 v 1 h 1 z m 2,0 h -1 v 1 h 1 z m 2,0 h -1 v 1 h 1 z" />
    <path fill="url(#oomox)" class="ColorScheme-Text" d="m 39.5,7 c -6.070428,0 -11,4.929572 -11,11.000001 0,6.070428 4.929572,11 11,11 6.070429,0 11,-4.929572 11,-11 C 50.5,11.929572 45.570429,7 39.5,7 Z m 0,3.142857 c 1.601914,0 3.078429,0.45199 4.321429,1.276786 L 32.919643,22.32143 c -0.824796,-1.243032 -1.276785,-2.719515 -1.276785,-4.321429 0,-4.336044 3.521256,-7.857144 7.857142,-7.857144 z m 6.580357,3.535715 c 0.824796,1.243031 1.276786,2.719515 1.276786,4.321429 0,4.335886 -3.521257,7.857142 -7.857143,7.857142 -1.601914,0 -3.078428,-0.451989 -4.321429,-1.276785 z" />
  </g>
  <g id="osd-shutd-laptop" transform="translate(150,0)">
    <use href="#box" />
    <use href="#duplicate" />
    <path fill="url(#oomox)" class="ColorScheme-Text" d="m 21,39 c -4.414857,0 -8,3.585144 -8,8.000001 0,4.414857 3.585143,8 8,8 4.414857,0 8,-3.585143 8,-8 C 29,42.585144 25.414857,39 21,39 Z m 0,2.285715 c 1.165028,0 2.238857,0.32872 3.142858,0.928571 l -7.928572,7.928573 c -0.599852,-0.904024 -0.928571,-1.97783 -0.928571,-3.142858 0,-3.153486 2.560913,-5.714286 5.714285,-5.714286 z m 4.785714,2.571428 c 0.599852,0.904023 0.928571,1.97783 0.928571,3.142858 0,3.153372 -2.560913,5.714285 -5.714285,5.714285 -1.165028,0 -2.238856,-0.328719 -3.142858,-0.928571 z" />
    <path fill="url(#oomox)" class="ColorScheme-Text" d="M 24,7.5 H 54 V 30 H 24 Z m 1.875,9.375 v 11.25 h 3.75 V 16.875 Z M 31.5,28.125 H 52.125 V 16.875 H 31.5 Z M 52.125,15 h -26.25 v -1.875 h 26.25 z m -7.5,-5.6249993 H 42.75 V 11.25 h 1.875 z m 3.75,0 H 46.5 V 11.25 h 1.875 z m 3.75,0 H 50.250001 V 11.25 H 52.125 Z" />
  </g>

  <g id="osd-sbs-left" transform="translate(0,75)">
    <use href="#box" />
    <path fill="url(#oomox)" class="ColorScheme-Text" d="M 10,18 H 40 V 38 H 10 Z m 1.875,8.333334 v 10.000001 h 3.75 V 26.333334 Z M 17.5,36.333335 H 38.125 V 26.333334 H 17.5 Z M 38.125,24.666667 H 11.875 V 23 h 26.25 z m -7.5,-5 H 28.75 v 1.666667 h 1.875 z m 3.750001,0 H 32.5 v 1.666667 h 1.875001 z m 3.749999,0 H 36.25 v 1.666667 h 1.875 z" />
    <path fill="url(#oomox)" class="ColorScheme-Text" d="M 10.984375,12 C 7.524324,12.03867 4.991937,11.91774 2.921875,13.025391 1.886857,13.57915 1.070002,14.51774 0.617188,15.6875 0.164344,16.857287 0,18.246374 0,20 v 16 c 0,1.753627 0.164238,3.142735 0.617188,4.3125 0.452842,1.169758 1.269669,2.108375 2.304687,2.662109 2.070062,1.107519 4.602476,0.986537 8.0625,1.025391 h 0.0098 H 16.5 v 2.666016 H 11 c 0,0 -2.75,0.0013 -2.75,2.667968 V 52 H 20 V 41.333984 H 11.015625 11 C 7.53904,41.294784 5.254437,41.173217 4.248047,40.634766 3.743667,40.364927 3.459697,40.068094 3.191406,39.375 2.923088,38.681933 2.75,37.579707 2.75,36 V 20 c 0,-1.579706 0.173127,-2.681933 0.441406,-3.375 0.2684,-0.693093 0.552264,-0.989927 1.056641,-1.259766 C 5.254437,14.826807 7.53904,14.705242 11,14.666016 h 9 V 12 h -9.005859 z m 20,0 c -3.460053,0.03867 -5.992438,-0.08226 -8.0625,1.025391 C 21.886856,13.57915 21.070003,14.51774 20.617188,15.6875 20.164345,16.857287 20,18.246374 20,20 v 16 c 0,1.753627 0.164239,3.142735 0.617188,4.3125 0.452842,1.169758 1.269668,2.108375 2.304687,2.662109 2.070063,1.107519 4.602474,0.986537 8.0625,1.025391 h 0.0098 H 36.5 v 2.666016 H 31 c 0,0 -2.75,0.0013 -2.75,2.667968 V 52 h 27.5 V 49.333984 C 55.75,46.667317 53,46.666016 53,46.666016 H 47.5 V 44 h 5.505859 0.0098 c 3.459989,-0.03867 5.992403,0.08225 8.062466,-1.025391 C 62.113144,42.420848 62.929969,41.48226 63.382812,40.3125 63.83519,39.142711 64,37.753627 64,36 V 20 C 64,18.246374 63.835762,16.857287 63.382812,15.6875 62.930006,14.51774 62.113143,13.57915 61.078125,13.025391 59.008062,11.917817 56.475677,12.03872 53.015625,12 h -0.0098 -22.011718 z M 31,14.666016 h 22 c 3.460932,0.03919 5.739732,0.160765 6.746094,0.699218 C 60.250473,15.6351 60.542257,15.93188 60.810547,16.625 61.07848,17.318093 61.25,18.420294 61.25,20 v 16 c 0,1.579707 -0.171173,2.681933 -0.439453,3.375 -0.2684,0.693094 -0.560074,0.989927 -1.064453,1.259766 C 58.739732,41.173193 56.460932,41.294756 53,41.333984 H 31.015625 31 C 27.53904,41.294784 25.254438,41.173217 24.248047,40.634766 23.743662,40.364927 23.459698,40.068094 23.191406,39.375 22.923089,38.681933 22.75,37.579707 22.75,36 V 20 c 0,-1.579706 0.173127,-2.681933 0.441406,-3.375 0.2684,-0.693093 0.552263,-0.989927 1.056641,-1.259766 C 25.254438,14.826807 27.539039,14.705242 31,14.666016 Z" />
  </g>
  <g id="osd-sbs-sright" transform="translate(75,75)">
    <use href="#box" />
    <path fill="url(#oomox)" class="ColorScheme-Text" d="M 24,18 H 54 V 38 H 24 Z m 1.875,8.333334 v 10.000001 h 3.75 V 26.333334 Z M 31.5,36.333335 H 52.125 V 26.333334 H 31.5 Z M 52.125,24.666667 H 25.875 V 23 h 26.25 z m -7.5,-5 H 42.75 v 1.666667 h 1.875 z m 3.750001,0 H 46.5 v 1.666667 h 1.875001 z m 3.749999,0 H 50.25 v 1.666667 h 1.875 z" />
    <path fill="url(#oomox)" class="ColorScheme-Text" d="m 53.015625,12 c 3.460051,0.03867 5.992438,-0.08226 8.0625,1.025391 1.035018,0.553759 1.851873,1.492349 2.304687,2.662109 C 63.835656,16.857287 64,18.246374 64,20 v 16 c 0,1.753627 -0.164238,3.142735 -0.617188,4.3125 -0.452842,1.169758 -1.269669,2.108375 -2.304687,2.662109 C 59.008063,44.082128 56.475649,43.961146 53.015625,44 H 53.005825 47.5 v 2.666016 H 53 c 0,0 2.75,0.0013 2.75,2.667968 V 52 H 44 V 41.333984 H 52.984375 53 c 3.46096,-0.0392 5.745563,-0.160767 6.751953,-0.699218 0.50438,-0.269839 0.78835,-0.566672 1.056641,-1.259766 C 61.076912,38.681933 61.25,37.579707 61.25,36 V 20 c 0,-1.579706 -0.173127,-2.681933 -0.441406,-3.375 -0.2684,-0.693093 -0.552264,-0.989927 -1.056641,-1.259766 C 58.745563,14.826807 56.46096,14.705242 53,14.666016 H 44 V 12 h 9.005859 z m -20,0 c 3.460053,0.03867 5.992438,-0.08226 8.0625,1.025391 1.035019,0.553759 1.851872,1.492349 2.304687,2.662109 C 43.835655,16.857287 44,18.246374 44,20 v 16 c 0,1.753627 -0.164239,3.142735 -0.617188,4.3125 -0.452842,1.169758 -1.269668,2.108375 -2.304687,2.662109 C 39.008062,44.082128 36.475651,43.961146 33.015625,44 H 33.005825 27.5 v 2.666016 H 33 c 0,0 2.75,0.0013 2.75,2.667968 V 52 H 8.25 V 49.333984 C 8.25,46.667317 11,46.666016 11,46.666016 h 5.5 V 44 h -5.505859 -0.0098 C 7.524352,43.96133 4.991938,44.08225 2.921875,42.974609 1.886856,42.420848 1.070031,41.48226 0.617188,40.3125 0.16481,39.142711 0,37.753627 0,36 V 20 C 0,18.246374 0.164238,16.857287 0.617188,15.6875 1.069994,14.51774 1.886857,13.57915 2.921875,13.025391 4.991938,11.917817 7.524323,12.03872 10.984375,12 h 0.0098 22.011718 z M 33,14.666016 H 11 C 7.539068,14.705206 5.260268,14.826781 4.253906,15.365234 3.749527,15.6351 3.457743,15.93188 3.189453,16.625 2.92152,17.318093 2.75,18.420294 2.75,20 v 16 c 0,1.579707 0.171173,2.681933 0.439453,3.375 0.2684,0.693094 0.560074,0.989927 1.064453,1.259766 C 5.260268,41.173193 7.539068,41.294756 11,41.333984 H 32.984375 33 c 3.46096,-0.0392 5.745562,-0.160767 6.751953,-0.699218 C 40.256338,40.364927 40.540302,40.068094 40.808594,39.375 41.076911,38.681933 41.25,37.579707 41.25,36 V 20 c 0,-1.579706 -0.173127,-2.681933 -0.441406,-3.375 -0.2684,-0.693093 -0.552263,-0.989927 -1.056641,-1.259766 C 38.745562,14.826807 36.460961,14.705242 33,14.666016 Z" />
  </g>
  
  <g id="osd-rotate-normal" transform="translate(0,150)">
    <use href="#box" />
    <use href="#screen" />
    <path fill="url(#oomox)" class="ColorScheme-Text" d="M 14,11 V 30.999999 H 40.181818 V 11 Z m 16.363636,1.666667 H 32 v 1.666666 h -1.636364 z m 3.272727,0 h 1.636364 v 1.666666 h -1.636364 z m 3.272728,0 h 1.636363 v 1.666666 H 36.909091 Z M 15.636363,16 h 22.909091 v 1.666667 H 15.636363 Z m 0,3.333334 h 3.272727 v 9.999999 h -3.272727 z m 4.909091,0 h 18 v 9.999999 h -18 z M 41.818182,21 v 1.666667 1.666667 1.666665 h 6.545455 v 1.666667 h -6.545455 v 1.666667 h 6.545455 v 10 H 30.363636 v -6.666667 h -1.636364 v 6.666667 H 25.454545 V 32.666666 H 23.818181 V 41 H 50 V 21 Z m 1.636364,1.666667 h 1.636363 v 1.666667 h -1.636363 z m 3.272727,0 h 1.636364 v 1.666667 h -1.636364 z" />
  </g>
  <g id="osd-rotate-flip" transform="translate(75,150)">
    <use href="#box" />
    <use href="#screen" />
    <path fill="url(#oomox)" class="ColorScheme-Text" d="m 32,13 -4,7 h 3 v 11 h -3 l 4,7 4,-7 H 33 V 20 h 3 z" />
  </g>
  <g id="osd-rotate-cw" transform="translate(150,150)">
    <use href="#box" />
    <use href="#screen" />
    <path fill="url(#oomox)" class="ColorScheme-Text" d="M 22.083164,11 C 16.923503,11 7,12.764706 7,12.764706 l 5.853075,6.403952 C 12.188526,21.373189 11.846775,23.678675 11.83871,26 c 0.0064,5.566742 1.936353,10.924972 5.402595,15 h 4.851312 c -4.406017,-3.477242 -7.020037,-9.056067 -7.0281,-15 0.01128,-4.381048 1.437887,-8.616004 4.032257,-11.953127 z m 19.824221,0 c 4.406015,3.477242 7.020035,9.056067 7.0281,15 -0.01129,4.381049 -1.441038,8.616005 -4.035409,11.953127 L 41.916834,41 C 47.076496,41 57,39.235296 57,39.235296 L 51.143775,32.831343 C 51.808323,30.626811 52.153227,28.321326 52.16129,26 52.15489,20.433259 50.224936,15.075029 46.758693,11 Z m -7.056452,2.526425 -12.046372,5.059743 6.357107,18.122702 12.046371,-5.059742 z m -3.940903,3.543199 5.204133,14.831111 -6.026336,2.526425 -5.200982,-14.824218 z m 6.479965,8.623621 0.579638,1.647518 -1.508948,0.630746 -0.576487,-1.647519 z m 1.156125,3.291589 0.579635,1.64752 -1.505795,0.63419 -0.579637,-1.647518 z" />
  </g>
  <g id="osd-rotate-ccw" transform="translate(225,150)">
    <use href="#box" />
    <use href="#screen" />
    <path fill="url(#oomox)" class="ColorScheme-Text" d="m 17.241305,11 c -3.466226,4.075029 -5.396111,9.433258 -5.402595,15 0.0081,2.321326 0.349816,4.62681 1.014364,6.831342 L 7,39.235294 C 7,39.235294 16.923487,41 22.083165,41 L 19.099924,37.953126 C 16.505553,34.616004 15.075823,30.381048 15.064516,26 c 0.0081,-5.943932 2.622068,-11.522758 7.0281,-15 z m 24.675529,0 2.983242,3.046874 c 2.594371,3.337122 4.024101,7.572078 4.035408,11.953126 -0.0081,5.943932 -2.622083,11.522758 -7.0281,15 h 4.85131 c 3.466241,-4.075029 5.396128,-9.433258 5.402596,-15 -0.0081,-2.321326 -0.349834,-4.62681 -1.014364,-6.831342 L 57,12.764706 C 57,12.764706 47.076496,11 41.916834,11 Z m -12.770918,2.526425 -6.357106,18.122702 12.046371,5.059742 6.357107,-18.122702 z m 0.92616,2.281709 1.505797,0.630744 -0.576487,1.647519 -1.502647,-0.634191 z m 3.014744,1.261489 6.023185,2.533318 -5.200982,14.82422 -6.026337,-2.526426 z m -4.167716,2.033548 1.502645,0.630745 -0.576487,1.647517 -1.505797,-0.630743 z" />
  </g>
</svg>
