<?xml version="1.0" encoding="UTF-8"?>
<svg xmlns="http://www.w3.org/2000/svg" version="1.1" viewBox="0 0 88 44">
  <defs>
    <style id="current-color-scheme" type="text/css">
      .ColorScheme-Text { color: #939597; }
      .ColorScheme-Highlight { color: #1AD6AB; }
    </style>
    <linearGradient id="arrongin" x1="0%" x2="0%" y1="0%" y2="100%">
      <stop offset="0%" style="stop-color:#dd9b44"/>
      <stop offset="100%" style="stop-color:#ad6c16"/>
    </linearGradient>
    <linearGradient id="aurora" x1="0%" x2="0%" y1="0%" y2="100%">
      <stop offset="0%" style="stop-color:#09D4DF"/>
      <stop offset="100%" style="stop-color:#9269F4"/>
    </linearGradient>
    <linearGradient id="cyberneon" x1="0%" x2="0%" y1="0%" y2="100%">
      <stop offset="0" style="stop-color:#0abdc6"/>
      <stop offset="1" style="stop-color:#ea00d9"/>
    </linearGradient>
    <linearGradient id="fitdance" x1="0%" x2="0%" y1="0%" y2="100%">
      <stop offset="0%" style="stop-color:#1AD6AB"/>
      <stop offset="100%" style="stop-color:#329DB6"/>
    </linearGradient>
    <linearGradient id="oomox" x1="0%" x2="0%" y1="0%" y2="100%">
      <stop offset="0%" style="stop-color:#c9b184"/>
      <stop offset="100%" style="stop-color:#aa7f2a"/>
    </linearGradient>
    <linearGradient id="rainblue" x1="0%" x2="0%" y1="0%" y2="100%">
      <stop offset="0%" style="stop-color:#00F260"/>
      <stop offset="100%" style="stop-color:#0575E6"/>
    </linearGradient>
    <linearGradient id="sunrise" x1="0%" x2="0%" y1="0%" y2="100%">
      <stop offset="0%" style="stop-color:#FF8501"/>
      <stop offset="100%" style="stop-color:#FFCB01"/>
    </linearGradient>
    <linearGradient id="telinkrin" x1="0%" x2="0%" y1="0%" y2="100%">
      <stop offset="0%" style="stop-color:#b2ced6"/>
      <stop offset="100%" style="stop-color:#6da5b7"/>
    </linearGradient>
    <linearGradient id="60spsycho" x1="0%" x2="0%" y1="0%" y2="100%">
      <stop offset="0%" style="stop-color:#df5940"/>
      <stop offset="25%" style="stop-color:#d8d15f"/>
      <stop offset="50%" style="stop-color:#e9882a"/>
      <stop offset="100%" style="stop-color:#279362"/>
    </linearGradient>
    <linearGradient id="90ssummer" x1="0%" x2="0%" y1="0%" y2="100%">
      <stop offset="0%" style="stop-color:#f618c7"/>
      <stop offset="20%" style="stop-color:#94ffab"/>
      <stop offset="50%" style="stop-color:#fbfd54"/>
      <stop offset="100%" style="stop-color:#0f83ae"/>
    </linearGradient>

    <path id="box" fill="none" d="m0 0h16v16h-16z" />

    <path id="bt" fill="url(#oomox)" class="ColorScheme-Text" d="M 8.5,0 C 5.45,0 3,2.68 3,6 V 10 C 3,13.32 5.45,16 8.5,16 11.55,16 14,13.32 14,10 V 6 C 14,2.68 11.55,0 8.5,0 Z M 8,1.29 12.24,5.53 9.3,8 12.24,10.47 8,14.71 V 9.09 L 5.57,11.13 4.93,10.37 7.75,8 4.93,5.63 5.57,4.87 8,6.91 Z M 9,3.71 V 6.95 L 10.76,5.47 Z M 9,9.05 V 12.29 L 10.76,10.53 Z"/>
  </defs>

  <g id="preferences-desktop-display-randr" transform="translate(0)">
    <use href="#box" />
    <path fill="url(#oomox)" class="ColorScheme-Text" d="M 3.994144,1 C 2.7359428,1.0140179 1.8152511,0.9704164 1.0625012,1.3719407 0.6861305,1.5726782 0.38926913,1.9126808 0.2246091,2.3367187 0.05993888,2.7607665 0,3.2643105 0,3.9 v 5.8 c 0,0.63569 0.05990045,1.139242 0.2246091,1.563282 0.1646698,0.424037 0.4615214,0.764049 0.8378921,0.964778 0.7527503,0.401475 1.6734513,0.357856 2.9316428,0.37194 h 0.0039 2.0019542 v 0.966667 H 3.999994 c 0,0 -1.000001,0 -1.000001,0.966666 V 15.5 H 13 v -0.966667 c 0,-0.966666 -1,-0.966666 -1,-0.966666 H 9.9999983 V 12.6 h 2.0019547 0.0039 c 1.25819,-0.01402 2.178892,0.02958 2.931643,-0.37194 0.37637,-0.200739 0.673221,-0.54074 0.837892,-0.964778 C 15.939887,10.839234 16,10.33569 16,9.7 V 3.9 C 16,3.2643105 15.9401,2.7607665 15.775391,2.3367187 15.610734,1.9126808 15.313873,1.5726782 14.937503,1.3719407 14.184752,0.9704449 13.264061,1.014036 12.00586,1 h -0.0039 -8.00391 z m 0.0059,0.9666668 h 8.000004 c 1.258521,0.014206 2.087176,0.057806 2.453126,0.2529948 0.183411,0.097827 0.289161,0.2056449 0.386721,0.4569009 0.09743,0.2512462 0.160156,0.650794 0.160156,1.2234375 v 5.8 c 0,0.572644 -0.0626,0.972201 -0.160156,1.223438 -0.0976,0.251246 -0.20331,0.359084 -0.386721,0.456901 -0.365949,0.195179 -1.194604,0.238775 -2.453126,0.252995 H 4.005905 4.000007 C 2.741476,11.619124 1.9108869,11.575527 1.5449267,11.380339 1.3615139,11.282522 1.2577187,11.174684 1.1601578,10.923438 1.062588,10.672201 1.0000023,10.272644 1.0000023,9.7 V 3.9 c 0,-0.5726435 0.0626,-0.9722008 0.1601555,-1.2234375 C 1.2577578,2.4253162 1.3615139,2.3174784 1.5449242,2.2196616 1.9108844,2.0244819 2.741473,1.9808863 4.0000045,1.9666668 Z" />
    <path fill="url(#oomox)" class="ColorScheme-Text" d="m 2,6.5 v 3.2 c 0,0.8 0.8,0.8 0.8,0.8 H 6 V 8.9 H 3.6 V 6.5 Z" />
    <path fill="url(#oomox)" class="ColorScheme-Text" d="m 10,3 v 1.6000001 h 2.4 V 7.0000002 H 14 V 3.8 C 14,3 13.2,3 13.2,3 Z" />
  </g>
  <g id="preferences-desktop-notification" transform="translate(22)">
    <use href="#box" />
    <path fill="url(#oomox)" class="ColorScheme-Text" d="m 9.072701,3.4171069 c 0.021368,0.1899573 0.071416,0.3738548 0.071416,0.5695187 0,2.8308494 -2.3021114,5.1256678 -5.1419574,5.1256678 -0.1344793,0 -0.2609143,-0.025514 -0.3927884,-0.035538 v 2.5272956 c 0,1.143708 0.9237013,2.064506 2.0710662,2.064506 L 7.445957,13.6685 9.7312714,15.999995 12.088002,13.6685 h 1.840935 c 1.147342,0 2.071066,-0.920775 2.071066,-2.064506 V 5.481669 c 0,-1.1437074 -0.92369,-2.0645051 -2.071066,-2.0645051 z"/>
    <path fill="url(#oomox)" class="ColorScheme-Text" d="M 3.999303,-5e-6 C 1.7905466,-5e-6 2.7999999e-6,1.7848664 2.7999999e-6,3.9866256 2.7999999e-6,6.1883847 1.7905466,7.9732561 3.999303,7.9732561 c 2.2087564,0 3.9993002,-1.7848714 3.9993002,-3.9866305 C 7.9986032,1.7848664 6.2080594,-5e-6 3.999303,-5e-6 Z M 3.3922664,1.1390323 h 1.1783081 l -0.071416,1.5661763 a 0.22798296,0.22726072 0 0 0 0,0.07119 0.22798296,0.22726072 0 0 0 0,0.035538 0.22798296,0.22726072 0 0 0 0.1428321,0.1423796 0.22798296,0.22726072 0 0 0 0.035651,0 0.22798296,0.22726072 0 0 0 0.071416,0 0.22798296,0.22726072 0 0 0 0.071416,0 0.22798296,0.22726072 0 0 0 0.035651,-0.035538 L 6.1772648,2.0645001 6.7485934,3.0967527 5.3559228,3.808651 a 0.22798296,0.22726072 0 0 0 -0.035651,0 0.22798296,0.22726072 0 0 0 -0.035651,0.035538 0.22798296,0.22726072 0 0 0 -0.035651,0.1067278 0.22798296,0.22726072 0 0 0 0,0.07119 0.22798296,0.22726072 0 0 0 0,0.035538 0.22798296,0.22726072 0 0 0 0.035651,0.07119 0.22798296,0.22726072 0 0 0 0.035651,0.035538 0.22798296,0.22726072 0 0 0 0.035651,0.035538 L 6.7842443,4.9118086 6.1772076,5.9440612 4.8560674,5.054473 a 0.22798296,0.22726072 0 0 0 -0.035651,0 0.22798296,0.22726072 0 0 0 -0.071416,-0.035538 0.22798296,0.22726072 0 0 0 -0.071416,0 0.22798296,0.22726072 0 0 0 -0.1428321,0.1067278 0.22798296,0.22726072 0 0 0 -0.035651,0.035538 0.22798296,0.22726072 0 0 0 0,0.035538 0.22798296,0.22726072 0 0 0 0,0.07119 L 4.5705173,6.834219 H 3.3922092 l 0.107067,-1.5661763 a 0.22798296,0.22726072 0 0 0 -0.035651,-0.1067278 0.22798296,0.22726072 0 0 0 -0.035651,-0.07119 0.22798296,0.22726072 0 0 0 -0.071416,-0.035538 0.22798296,0.22726072 0 0 0 -0.071416,-0.035538 0.22798296,0.22726072 0 0 0 -0.035651,0 0.22798296,0.22726072 0 0 0 -0.1070669,0.035538 L 1.7855189,5.9444598 1.2141903,4.9122073 2.6425118,4.2003089 a 0.22798296,0.22726072 0 0 0 0.035651,-0.035538 0.22798296,0.22726072 0 0 0 0.035651,-0.035538 0.22798296,0.22726072 0 0 0 0.035651,-0.07119 0.22798296,0.22726072 0 0 0 0,-0.035538 0.22798296,0.22726072 0 0 0 0,-0.07119 0.22798296,0.22726072 0 0 0 0,-0.035538 0.22798296,0.22726072 0 0 0 -0.035651,-0.07119 0.22798296,0.22726072 0 0 0 -0.035651,-0.035538 0.22798296,0.22726072 0 0 0 -0.035651,0 L 1.2141903,3.0971513 1.7855189,2.0648988 3.1424244,2.9191767 a 0.22798296,0.22726072 0 0 0 0.035651,0.035538 0.22798296,0.22726072 0 0 0 0.071416,0 0.22798296,0.22726072 0 0 0 0.071416,0 0.22798296,0.22726072 0 0 0 0.035651,0 0.22798296,0.22726072 0 0 0 0.035651,-0.035538 0.22798296,0.22726072 0 0 0 0.035651,-0.035538 0.22798296,0.22726072 0 0 0 0.035651,-0.035538 0.22798296,0.22726072 0 0 0 0,-0.035538 0.22798296,0.22726072 0 0 0 0.035651,-0.07119 0.22798296,0.22726072 0 0 0 0,-0.035538 L 3.3963228,1.1339636 Z"/>
  </g>
  <g id="preferences-system-bluetooth" transform="translate(0,22)">
    <use href="#box" />
    <use href="#bt" />
  </g>
  <g id="preferences-system-bluetooth-inactive" transform="translate(22,22)">
    <use href="#box" />
    <use href="#bt" opacity="0.3" />
  </g>
  <g id="preferences-system-bluetooth-activated" transform="translate(44,22)">
    <use href="#box" />
    <path fill="url(#oomox)" class="ColorScheme-Text" d="M 8 1 C 5.23 1 3 3.345 3 6.25 L 3 9.75 C 3 12.655 5.23 15 8 15 L 8 12.734375 L 7.8203125 12.884766 A 0.50005 0.50005 0 0 1 7 12.5 L 7 9.0605469 L 5.7871094 9.9101562 A 0.50065948 0.50065948 0 0 1 5.2128906 9.0898438 L 6.7695312 8 L 5.2128906 6.9101562 A 0.50065948 0.50065948 0 0 1 5.7871094 6.0898438 L 7 6.9394531 L 7 3.5 A 0.50005 0.50005 0 0 1 7.4980469 3 A 0.50005 0.50005 0 0 1 7.8203125 3.1152344 L 10.820312 5.6152344 A 0.50005 0.50005 0 0 1 10.787109 6.4101562 L 8.515625 8 L 9.3847656 8.6074219 C 9.889026 7.6618976 10.861504 7 12 7 C 12.352911 7 12.686419 7.0744726 13 7.1894531 L 13 6.25 C 13 3.345 10.77 1 8 1 z M 8 4.5683594 L 8 7.1386719 L 9.6757812 5.9648438 L 8 4.5683594 z M 12 8 C 10.892 8 10 8.911251 10 10.03125 L 10 11 L 9 11 L 9 15 L 15 15 L 15 11 L 14 11 L 14 10.03125 C 14 8.911251 13.108 8.0000001 12 8 z M 8 8.8613281 L 8 11 C 8.0000552 10.447738 8.4477381 10.000055 9 10 L 9.0136719 10 C 9.0153093 9.8637481 9.039421 9.7334361 9.0585938 9.6015625 L 8 8.8613281 z M 12 9 C 12.554 9 13 9.440001 13 10 L 13 11 L 11 11 L 11 10 C 11 9.440001 11.446 9 12 9 z"/>
  </g>
  <g id="preferences-system-bluetooth-battery" transform="translate(66,22)">
    <use href="#box" />
    <path fill="url(#oomox)" class="ColorScheme-Text" d="m 2.5,1.99965 c -0.277,0 -0.5,0.223 -0.5,0.5 l 0,0.5 -2,-0.002 0,-3e-4 L 0,13.5 C 0,13.777 0.223,14 0.5,14 l 6,0 C 6.777,14 7,13.777 7,13.5 l 0,-10.50165 -0.5,0.002 -1.5,0 0,-0.5 c 0,-0.277 -0.223,-0.5 -0.5,-0.5 z" />
    <path fill="url(#oomox)" class="ColorScheme-Text" d="M 12,2 C 9.7818181,2 8,4.0099998 8,6.4999999 V 9.4999998 C 8,11.99 9.7818181,14 12,14 c 2.218182,0 4,-2.01 4,-4.5000002 V 6.4999999 C 16,4.0099998 14.218182,2 12,2 Z M 11.636364,2.9675001 14.72,6.1474998 12.581818,7.9999999 14.72,9.8524997 11.636364,13.032499 V 8.8174999 L 9.8690908,10.3475 9.4036364,9.7774997 11.454545,7.9999999 9.4036364,6.2224998 l 0.4654544,-0.57 1.7672732,1.5300001 z M 12.363636,4.7825 v 2.4299998 l 1.28,-1.1099998 z m 0,4.0049997 v 2.4299993 l 1.28,-1.3199992 z" />
  </g>
</svg>
