<?xml version="1.0" encoding="UTF-8"?>
<svg xmlns="http://www.w3.org/2000/svg" version="1.1" viewBox="0 0 66 22">
  <defs>
    <style id="current-color-scheme" type="text/css">
      .ColorScheme-Text { color: #939597; }
      .ColorScheme-Highlight { color: #1AD6AB; }
    </style>
    <linearGradient id="arrongin" x1="0%" x2="0%" y1="0%" y2="100%">
      <stop offset="0%" style="stop-color:#dd9b44"/>
      <stop offset="100%" style="stop-color:#ad6c16"/>
    </linearGradient>
    <linearGradient id="aurora" x1="0%" x2="0%" y1="0%" y2="100%">
      <stop offset="0%" style="stop-color:#09D4DF"/>
      <stop offset="100%" style="stop-color:#9269F4"/>
    </linearGradient>
    <linearGradient id="cyberneon" x1="0%" x2="0%" y1="0%" y2="100%">
      <stop offset="0" style="stop-color:#0abdc6"/>
      <stop offset="1" style="stop-color:#ea00d9"/>
    </linearGradient>
    <linearGradient id="fitdance" x1="0%" x2="0%" y1="0%" y2="100%">
      <stop offset="0%" style="stop-color:#1AD6AB"/>
      <stop offset="100%" style="stop-color:#329DB6"/>
    </linearGradient>
    <linearGradient id="oomox" x1="0%" x2="0%" y1="0%" y2="100%">
      <stop offset="0%" style="stop-color:#c9b184"/>
      <stop offset="100%" style="stop-color:#aa7f2a"/>
    </linearGradient>
    <linearGradient id="rainblue" x1="0%" x2="0%" y1="0%" y2="100%">
      <stop offset="0%" style="stop-color:#00F260"/>
      <stop offset="100%" style="stop-color:#0575E6"/>
    </linearGradient>
    <linearGradient id="sunrise" x1="0%" x2="0%" y1="0%" y2="100%">
      <stop offset="0%" style="stop-color:#FF8501"/>
      <stop offset="100%" style="stop-color:#FFCB01"/>
    </linearGradient>
    <linearGradient id="telinkrin" x1="0%" x2="0%" y1="0%" y2="100%">
      <stop offset="0%" style="stop-color:#b2ced6"/>
      <stop offset="100%" style="stop-color:#6da5b7"/>
    </linearGradient>
    <linearGradient id="60spsycho" x1="0%" x2="0%" y1="0%" y2="100%">
      <stop offset="0%" style="stop-color:#df5940"/>
      <stop offset="25%" style="stop-color:#d8d15f"/>
      <stop offset="50%" style="stop-color:#e9882a"/>
      <stop offset="100%" style="stop-color:#279362"/>
    </linearGradient>
    <linearGradient id="90ssummer" x1="0%" x2="0%" y1="0%" y2="100%">
      <stop offset="0%" style="stop-color:#f618c7"/>
      <stop offset="20%" style="stop-color:#94ffab"/>
      <stop offset="50%" style="stop-color:#fbfd54"/>
      <stop offset="100%" style="stop-color:#0f83ae"/>
    </linearGradient>

    <path id="box" fill="none" d="m0 0h16v16h-16z" />

    <path id="irc" fill="url(#oomox)" class="ColorScheme-Text" d="M 4 1 L 4 4 L 1 4 L 1 6 L 4 6 L 4 10 L 1 10 L 1 12 L 4 12 L 4 15 L 6 15 L 6 12 L 10 12 L 10 15 L 12 15 L 12 12 L 15 12 L 15 10 L 12 10 L 12 6 L 15 6 L 15 4 L 12 4 L 12 1 L 10 1 L 10 4 L 6 4 L 6 1 L 4 1 z M 6 6 L 10 6 L 10 10 L 6 10 L 6 6 z"/>
  </defs>

  <g id="quassel" transform="translate(0)">
    <use href="#box" />
    <use href="#irc" />
  </g>
  <g id="quassel_inactive" transform="translate(22)">
    <use href="#box" />
    <use href="#irc" opacity="0.3" />
  </g>
  <g id="quassel_message" transform="translate(44)">
    <use href="#box" />
    <path fill="url(#oomox)" class="ColorScheme-Text" opacity="0.3" d="M 4 1 L 4 3.6914062 L 6 3.6914062 L 6 1 L 4 1 z M 10 1 L 10 3.6914062 L 12 3.6914062 L 12 1 L 10 1 z M 1 4 L 1 6 L 1.3339844 6 L 1.3339844 5.4160156 C 1.3339844 4.6510851 1.7061667 4.23663 2.1171875 4 L 1 4 z " />
    <path fill="url(#oomox)" class="ColorScheme-Text" d="m 4.5463019,4.9042647 c 0,0 -1.875305,4.808e-4 -1.875305,1.7235577 v 5.1682686 c 0,0.954597 0.851149,1.723559 1.90656,1.723559 H 9.3387488 L 11.339075,15.981188 13.3394,13.51965 h 0.763145 c 0,0 1.903956,-4.82e-4 1.903956,-1.723559 V 6.6278224 c 0,-1.7230769 -1.903956,-1.7235577 -1.903956,-1.7235577 z" />
  </g>
</svg>
