<?xml version="1.0" encoding="UTF-8"?>
<svg xmlns="http://www.w3.org/2000/svg" version="1.1" viewBox="0 0 88 66">
  <defs>
    <style id="current-color-scheme" type="text/css">
      .ColorScheme-Text { color: #939597; }
      .ColorScheme-Highlight { color: #1AD6AB; }
    </style>
    <linearGradient id="arrongin" x1="0%" x2="0%" y1="0%" y2="100%">
      <stop offset="0%" style="stop-color:#dd9b44"/>
      <stop offset="100%" style="stop-color:#ad6c16"/>
    </linearGradient>
    <linearGradient id="aurora" x1="0%" x2="0%" y1="0%" y2="100%">
      <stop offset="0%" style="stop-color:#09D4DF"/>
      <stop offset="100%" style="stop-color:#9269F4"/>
    </linearGradient>
    <linearGradient id="cyberneon" x1="0%" x2="0%" y1="0%" y2="100%">
      <stop offset="0" style="stop-color:#0abdc6"/>
      <stop offset="1" style="stop-color:#ea00d9"/>
    </linearGradient>
    <linearGradient id="fitdance" x1="0%" x2="0%" y1="0%" y2="100%">
      <stop offset="0%" style="stop-color:#1AD6AB"/>
      <stop offset="100%" style="stop-color:#329DB6"/>
    </linearGradient>
    <linearGradient id="oomox" x1="0%" x2="0%" y1="0%" y2="100%">
      <stop offset="0%" style="stop-color:#c9b184"/>
      <stop offset="100%" style="stop-color:#aa7f2a"/>
    </linearGradient>
    <linearGradient id="rainblue" x1="0%" x2="0%" y1="0%" y2="100%">
      <stop offset="0%" style="stop-color:#00F260"/>
      <stop offset="100%" style="stop-color:#0575E6"/>
    </linearGradient>
    <linearGradient id="sunrise" x1="0%" x2="0%" y1="0%" y2="100%">
      <stop offset="0%" style="stop-color:#FF8501"/>
      <stop offset="100%" style="stop-color:#FFCB01"/>
    </linearGradient>
    <linearGradient id="telinkrin" x1="0%" x2="0%" y1="0%" y2="100%">
      <stop offset="0%" style="stop-color:#b2ced6"/>
      <stop offset="100%" style="stop-color:#6da5b7"/>
    </linearGradient>
    <linearGradient id="60spsycho" x1="0%" x2="0%" y1="0%" y2="100%">
      <stop offset="0%" style="stop-color:#df5940"/>
      <stop offset="25%" style="stop-color:#d8d15f"/>
      <stop offset="50%" style="stop-color:#e9882a"/>
      <stop offset="100%" style="stop-color:#279362"/>
    </linearGradient>
    <linearGradient id="90ssummer" x1="0%" x2="0%" y1="0%" y2="100%">
      <stop offset="0%" style="stop-color:#f618c7"/>
      <stop offset="20%" style="stop-color:#94ffab"/>
      <stop offset="50%" style="stop-color:#fbfd54"/>
      <stop offset="100%" style="stop-color:#0f83ae"/>
    </linearGradient>

    <path id="box" fill="none" d="m0 0h16v16h-16z" />
  </defs>

  <g id="system-log-out" transform="translate(0,0)">
    <use href="#box" />
    <path fill="url(#oomox)" class="ColorScheme-Text" d="M 8 0 C 12.418 0 16 3.582 16 8 C 16 12.418 12.418 16 8 16 C 3.582 16 0 12.418 0 8 C 0 3.582 3.582 0 8 0 Z M 8 1.777 C 4.564 1.777 1.777 4.564 1.777 8 C 1.777 11.436 4.564 14.223 8 14.223 C 11.436 14.223 14.223 11.436 14.223 8 C 14.223 4.564 11.436 1.777 8 1.777 Z M 8.549 5.333 L 10.311 6.702 L 12.105 8 L 10.313 9.298 L 8.549 10.667 L 8.571 8.889 L 3.577 8.889 L 4.565 7.111 L 8.57 7.111 L 8.549 5.333 L 8.549 5.333 Z"/>
  </g>
  <g id="system-lock-screen" transform="translate(22,0)">
    <use href="#box" />
    <path fill="url(#oomox)" class="ColorScheme-Text" d="M 8 1 C 5.784 1 4 2.8216 4 5.0625 L 4 7 L 3 7 C 2.446 7 2 7.446 2 8 L 2 14 C 2 14.554 2.446 15 3 15 L 13 15 C 13.554 15 14 14.554 14 14 L 14 8 C 14 7.446 13.554 7 13 7 L 12 7 L 12 5.0625 C 12 2.8225 10.216 1 8 1 z M 8 3 C 9.108 3 10 3.892 10 5 L 10 7 L 6 7 L 6 5 C 6 3.892 6.892 3 8 3 z"/>
  </g>
  <g id="system-reboot" transform="translate(44,0)">
    <use href="#box" />
    <path fill="url(#oomox)" class="ColorScheme-Text" d="M 7.239 1.506 C 5.678 1.669 4.262 2.326 3.154 3.318 L 3.154 3.318 C 1.669 4.649 0.734 6.582 0.734 8.734 C 0.734 12.747 3.986 16 8 16 C 12.014 16 15.266 12.747 15.266 8.734 C 15.266 8.204 15.21 7.689 15.103 7.193 L 13.524 7.531 C 13.607 7.919 13.652 8.321 13.652 8.734 C 13.652 11.855 11.121 14.385 8 14.385 C 4.879 14.385 2.348 11.855 2.348 8.734 C 2.348 6.976 3.15 5.407 4.407 4.37 C 5.205 3.712 6.186 3.27 7.262 3.129 L 7.284 4.713 C 7.284 4.713 9.628 3.713 11.535 2.295 C 11.535 2.294 11.535 2.294 11.535 2.293 C 11.535 2.293 11.535 2.293 11.534 2.292 C 11.534 2.292 11.534 2.29 11.532 2.29 C 11.532 2.29 11.532 2.289 11.532 2.289 C 9.479 0.881 7.217 0 7.217 0 L 7.239 1.506 Z"/>
  </g>
  <g id="system-save-session" transform="translate(66,0)">
    <use href="#box" />
    <path fill="url(#oomox)" class="ColorScheme-Text" d="m 16,8 c 0,4.418 -3.582,8 -8,8 C 3.582,16 0,12.418 0,8 0,3.582 3.582,0 8,0 c 4.418,0 8,3.582 8,8 z M 14.223,8 C 14.223,4.564 11.436,1.777 8,1.777 4.564,1.777 1.777,4.564 1.777,8 c 0,3.436 2.787,6.223 6.223,6.223 3.436,0 6.223,-2.787 6.223,-6.223 z M 10.667,8.549 9.298,10.311 8,12.105 6.702,10.313 5.333,8.549 7.111,8.571 V 3.577 L 8.889,4.565 V 8.57 l 1.778,-0.021 z" />
  </g>
  <g id="system-shutdown" transform="translate(0,22)">
    <use href="#box" />
    <path fill="url(#oomox)" class="ColorScheme-Text" fill-rule="evenodd" d="M 0.142 8.05 C 0.129 8.889 0.252 9.723 0.506 10.522 C 1.545 13.786 4.576 16.001 8.001 16 C 11.426 16.001 14.458 13.786 15.497 10.522 C 16.526 7.257 15.314 3.702 12.508 1.744 L 11.222 3.585 C 13.23 4.978 14.095 7.516 13.356 9.845 C 12.617 12.177 10.448 13.76 8.001 13.754 C 5.553 13.761 3.385 12.178 2.645 9.845 C 1.906 7.516 2.772 4.978 4.779 3.585 L 3.494 1.744 C 1.429 3.185 0.181 5.532 0.142 8.05 L 0.142 8.05 Z M 6.879 0.281 L 6.879 8.14 L 9.124 8.14 L 9.124 0 L 6.879 0.281 L 6.879 0.281 Z"/>
  </g>
  <g id="system-suspend-hibernate" transform="translate(22,22)">
    <use href="#box" />
    <path fill="url(#oomox)" class="ColorScheme-Text" fill-rule="evenodd" d="M 8 1.777 C 4.564 1.777 1.777 4.564 1.777 8 C 1.777 11.436 4.564 14.223 8 14.223 C 11.436 14.223 14.223 11.436 14.223 8 C 14.223 4.564 11.436 1.777 8 1.777 L 8 1.777 Z M 8 0 C 12.418 0 16 3.582 16 8 C 16 12.418 12.418 16 8 16 C 3.582 16 0 12.418 0 8 C 0 3.582 3.582 0 8 0 L 8 0 Z M 4.486 8 C 4.486 6.06 6.06 4.486 8 4.486 C 9.94 4.486 11.514 6.06 11.514 8 C 11.514 9.94 9.94 11.514 8 11.514 C 6.06 11.514 4.486 9.94 4.486 8 Z"/>
  </g>
  <g id="system-suspend" transform="translate(44,22)">
    <use href="#box" />
    <path fill="url(#oomox)" class="ColorScheme-Text" d="M 8 0 C 12.418 0 16 3.582 16 8 C 16 12.418 12.418 16 8 16 C 3.582 16 0 12.418 0 8 C 0 3.582 3.582 0 8 0 Z M 8 1.777 C 4.564 1.777 1.777 4.564 1.777 8 C 1.777 11.436 4.564 14.223 8 14.223 C 11.436 14.223 14.223 11.436 14.223 8 C 14.223 4.564 11.436 1.777 8 1.777 Z M 10.767 8.889 L 3.577 8.889 L 4.565 7.111 L 11.865 7.111 L 10.767 8.889 Z"/>
  </g>
  <g id="system-search" transform="translate(66,22)">
    <use href="#box" />
    <path fill="url(#oomox)" class="ColorScheme-Text" d="M 6.4902344 0.99609375 C 3.4613344 0.99609375 0.99023438 3.4706937 0.99023438 6.4960938 C 0.99023438 9.5214938 3.4613344 11.996094 6.4902344 11.996094 C 7.6422344 11.996094 8.7279444 11.638254 9.6152344 11.027344 L 13.302734 14.714844 A 1.0055 1.0055 0 1 0 14.708984 13.277344 L 11.021484 9.5898438 C 11.632274 8.7038438 12.021484 7.6459938 12.021484 6.4960938 C 12.021484 3.4706937 9.5190344 0.99609375 6.4902344 0.99609375 z M 6.4902344 2.9960938 C 8.4376344 2.9960938 9.9902344 4.5508938 9.9902344 6.4960938 C 9.9902344 8.4411937 8.4376344 9.9960938 6.4902344 9.9960938 C 4.5428344 9.9960938 2.9902344 8.4411937 2.9902344 6.4960938 C 2.9902344 4.5508938 4.5428344 2.9960938 6.4902344 2.9960938 z"/>
  </g>
  <g id="system-switch-user" transform="translate(0,44)">
    <use href="#box" />
    <path fill="url(#oomox)" class="ColorScheme-Text" fill-rule="evenodd" d="M 4.745 7.954 L 4.745 14.546 L 2.304 13.801 L 2.34 7.988 L 0 8.021 C 0 8.021 1.318 4.638 3.424 1.568 C 3.424 1.568 3.425 1.568 3.425 1.567 C 3.426 1.567 3.428 1.567 3.428 1.566 C 3.429 1.566 3.429 1.564 3.43 1.564 C 3.431 1.564 3.431 1.564 3.433 1.564 C 5.554 4.416 7.049 7.922 7.049 7.922 L 4.745 7.954 Z M 13.696 8.046 L 13.696 1.454 L 11.255 2.199 L 11.291 8.012 L 8.951 7.979 C 8.951 7.979 10.27 11.362 12.374 14.432 C 12.375 14.432 12.377 14.432 12.377 14.433 C 12.378 14.433 12.379 14.433 12.379 14.434 C 12.38 14.434 12.38 14.436 12.382 14.436 C 12.383 14.436 12.383 14.436 12.384 14.436 C 14.506 11.584 16 8.078 16 8.078 L 13.696 8.046 Z"/>
  </g>
  <g id="system-users" transform="translate(22,44)">
    <use href="#box" />
    <path fill="url(#oomox)" class="ColorScheme-Text" d="M 6 2 C 4.3431 2 3 3.3432 3 5 C 3 6.6568 4.3431 8 6 8 C 7.6569 8 9 6.6568 9 5 C 9 3.3432 7.6569 2 6 2 z M 10.996094 3.9453125 L 11 3.9492188 C 10.61172 3.9492188 10.246706 4.03852 9.9160156 4.1875 C 9.9706156 4.44955 10 4.7205869 10 4.9980469 C 10 6.1001469 9.5457862 7.102225 8.8164062 7.828125 C 9.2764062 8.528125 10.076094 8.9980469 10.996094 8.9980469 C 12.428794 8.9980469 13.589844 7.8677562 13.589844 6.4726562 C 13.589844 5.0775563 12.428794 3.9453125 10.996094 3.9453125 z M 6 9.9960938 C -0.0002 9.9994938 1.1555965e-33 14 0 14 L 0 15 L 12 15 L 12 14 C 12 14 12 9.99 6 10 L 6 9.9960938 z M 11 9.9980469 L 11 10 C 10.8039 10 10.628286 10.012584 10.447266 10.021484 C 11.144826 10.421144 11.676381 10.898558 12.050781 11.398438 C 12.990781 12.658437 13 13.998047 13 13.998047 L 16 13.998047 L 16 12.998047 C 16 12.998047 16 9.9980469 11 9.9980469 z"/>
  </g>
  <g id="system-user-list" transform="translate(44,44)">
    <use href="#box" />
    <path fill="url(#oomox)" class="ColorScheme-Text" d="M 4,8 C 2.34,8 1,9.34 1,11 1,12.66 2.34,14 4,14 5.56,14 6.82,12.8 6.97,11.28 7.27,11.1 7.63,11 8,11 8.37,11 8.73,11.1 9.03,11.28 9.18,12.8 10.44,14 12,14 13.66,14 15,12.66 15,11 15,9.34 13.66,8 12,8 10.61,8 9.46,8.97 9.13,10.25 8.77,10.11 8.4,10 8,10 7.6,10 7.23,10.11 6.88,10.25 6.54,8.97 5.39,8 4,8 Z M 4,9.25 C 4.97,9.25 5.75,10.03 5.75,11 5.75,11.97 4.97,12.75 4,12.75 3.03,12.75 2.25,11.97 2.25,11 2.25,10.03 3.03,9.25 4,9.25 Z M 12,9.25 C 12.97,9.25 13.75,10.03 13.75,11 13.75,11.97 12.97,12.75 12,12.75 11.03,12.75 10.25,11.97 10.25,11 10.25,10.03 11.03,9.25 12,9.25 Z"/>
    <path fill="url(#oomox)" class="ColorScheme-Text" d="M 4,1 3.25,4 H 12.75 L 12,1 8,1.5 Z M 3,5 0,7 H 16 L 13,5 Z"/>
  </g>
  <g id="system-user-prompt" transform="translate(66,44)">
    <use href="#box" />
    <path fill="url(#oomox)" class="ColorScheme-Text" d="M 3.9941406,1 C 2.7359406,1.0145 1.81525,0.9694 1.0625,1.38477 0.68613,1.59243 0.38926938,1.94415 0.22460938,2.38281 0.05993937,2.82148 0,3.34239 0,4 v 8 c 0,0.65761 0.05989937,1.17853 0.22460938,1.61719 C 0.38927938,14.05585 0.68613,14.40758 1.0625,14.61523 1.81525,15.03055 2.7359506,14.98543 3.9941406,15 h 0.00391 8.0039064 0.0039 c 1.25819,-0.0145 2.178891,0.0306 2.931641,-0.38477 0.37637,-0.20766 0.673221,-0.55938 0.837891,-0.99804 C 15.939881,13.17852 16,12.65761 16,12 V 4 C 16,3.34239 15.9401,2.82148 15.775391,2.38281 15.610731,1.94415 15.31387,1.59243 14.9375,1.38477 14.18475,0.96943 13.264059,1.01452 12.005859,1 h -0.0039 -8.0039061 z m 0.00586,1 h 8.0000004 c 1.25852,0.0147 2.087175,0.0598 2.453125,0.26172 0.18341,0.1012 0.289159,0.21274 0.386719,0.47265 C 14.937274,2.99428 15,3.40761 15,4 v 8 c 0,0.59239 -0.0626,1.00573 -0.160156,1.26562 -0.0976,0.25991 -0.203309,0.37147 -0.386719,0.47266 C 14.087175,13.94019 13.25852,13.98529 12,14 H 4.0058594 4 C 2.74147,13.9853 1.9108819,13.9402 1.5449219,13.73828 1.3615119,13.63709 1.2577162,13.52553 1.1601562,13.26562 1.0625862,13.00573 1,12.59239 1,12 V 4 C 1,3.40761 1.062596,2.99427 1.1601562,2.73437 1.2577562,2.47447 1.3615119,2.36291 1.5449219,2.26172 1.9108819,2.05981 2.74147,2.01471 4.0000006,2 Z m 0,4.5 a 1.5,1.5 0 0 0 -1.5,1.5 1.5,1.5 0 0 0 1.5,1.5 1.5,1.5 0 0 0 1.5,-1.5 1.5,1.5 0 0 0 -1.5,-1.5 z m 4,0 a 1.5,1.5 0 0 0 -1.5,1.5 1.5,1.5 0 0 0 1.5,1.5 1.5,1.5 0 0 0 1.5,-1.5 1.5,1.5 0 0 0 -1.5,-1.5 z m 4.0000004,0 a 1.5,1.5 0 0 0 -1.5,1.5 1.5,1.5 0 0 0 1.5,1.5 1.5,1.5 0 0 0 1.5,-1.5 1.5,1.5 0 0 0 -1.5,-1.5 z"/>
    </g>
</svg>
