<?xml version="1.0" encoding="UTF-8"?>
<svg xmlns="http://www.w3.org/2000/svg" version="1.1" viewBox="0 0 44 22">
  <defs>
    <style id="current-color-scheme" type="text/css">
      .ColorScheme-Text { color: #939597; }
      .ColorScheme-Highlight { color: #1AD6AB; }
    </style>
    <linearGradient id="arrongin" x1="0%" x2="0%" y1="0%" y2="100%">
      <stop offset="0%" style="stop-color:#dd9b44"/>
      <stop offset="100%" style="stop-color:#ad6c16"/>
    </linearGradient>
    <linearGradient id="aurora" x1="0%" x2="0%" y1="0%" y2="100%">
      <stop offset="0%" style="stop-color:#09D4DF"/>
      <stop offset="100%" style="stop-color:#9269F4"/>
    </linearGradient>
    <linearGradient id="cyberneon" x1="0%" x2="0%" y1="0%" y2="100%">
      <stop offset="0" style="stop-color:#0abdc6"/>
      <stop offset="1" style="stop-color:#ea00d9"/>
    </linearGradient>
    <linearGradient id="fitdance" x1="0%" x2="0%" y1="0%" y2="100%">
      <stop offset="0%" style="stop-color:#1AD6AB"/>
      <stop offset="100%" style="stop-color:#329DB6"/>
    </linearGradient>
    <linearGradient id="oomox" x1="0%" x2="0%" y1="0%" y2="100%">
      <stop offset="0%" style="stop-color:#c9b184"/>
      <stop offset="100%" style="stop-color:#aa7f2a"/>
    </linearGradient>
    <linearGradient id="rainblue" x1="0%" x2="0%" y1="0%" y2="100%">
      <stop offset="0%" style="stop-color:#00F260"/>
      <stop offset="100%" style="stop-color:#0575E6"/>
    </linearGradient>
    <linearGradient id="sunrise" x1="0%" x2="0%" y1="0%" y2="100%">
      <stop offset="0%" style="stop-color:#FF8501"/>
      <stop offset="100%" style="stop-color:#FFCB01"/>
    </linearGradient>
    <linearGradient id="telinkrin" x1="0%" x2="0%" y1="0%" y2="100%">
      <stop offset="0%" style="stop-color:#b2ced6"/>
      <stop offset="100%" style="stop-color:#6da5b7"/>
    </linearGradient>
    <linearGradient id="60spsycho" x1="0%" x2="0%" y1="0%" y2="100%">
      <stop offset="0%" style="stop-color:#df5940"/>
      <stop offset="25%" style="stop-color:#d8d15f"/>
      <stop offset="50%" style="stop-color:#e9882a"/>
      <stop offset="100%" style="stop-color:#279362"/>
    </linearGradient>
    <linearGradient id="90ssummer" x1="0%" x2="0%" y1="0%" y2="100%">
      <stop offset="0%" style="stop-color:#f618c7"/>
      <stop offset="20%" style="stop-color:#94ffab"/>
      <stop offset="50%" style="stop-color:#fbfd54"/>
      <stop offset="100%" style="stop-color:#0f83ae"/>
    </linearGradient>

    <path id="box" fill="none" d="m0 0h16v16h-16z" />
  </defs>

  <g id="touchpad_enabled" transform="translate(0,0)">
    <use href="#box" />
    <path fill="url(#oomox)" class="ColorScheme-Text" d="M 4.2597656 0.5 C 2.9176856 0.51553571 1.9357458 0.46707008 1.1328125 0.91210938 C 0.73135112 1.1346022 0.41587171 1.512429 0.24023438 1.9824219 C 0.064586365 2.4524255 1.110223e-16 3.0102615 0 3.7148438 L 0 12.285156 C 0 12.989738 0.064543705 13.547585 0.24023438 14.017578 C 0.41588238 14.487571 0.73135112 14.865409 1.1328125 15.087891 C 1.9357458 15.532877 2.9176963 15.484389 4.2597656 15.5 L 4.265625 15.5 L 11.736328 15.5 L 11.740234 15.5 C 13.082303 15.48446 14.064254 15.532935 14.867188 15.087891 C 15.268648 14.865399 15.584118 14.487571 15.759766 14.017578 C 15.935222 13.547574 16 12.989738 16 12.285156 L 16 3.7148438 C 16 3.0102616 15.93546 2.4524255 15.759766 1.9824219 C 15.584093 1.512429 15.268649 1.1346022 14.867188 0.91210938 C 14.064253 0.46710222 13.082314 0.51555714 11.740234 0.5 L 11.734375 0.5 L 4.2636719 0.5 L 4.2597656 0.5 z M 4.2675781 1.5722656 L 11.734375 1.5722656 C 13.076797 1.5880156 13.959262 1.6352192 14.349609 1.8515625 C 14.545246 1.9599911 14.657655 2.0789362 14.761719 2.3574219 C 14.865645 2.6358969 14.933594 3.0801401 14.933594 3.7148438 L 14.933594 11.214844 L 1.0664062 11.214844 L 1.0664062 3.7148438 C 1.0664062 3.0801402 1.1342169 2.6358862 1.2382812 2.3574219 C 1.3423879 2.0789469 1.4528002 1.9599804 1.6484375 1.8515625 C 2.0387949 1.6352303 2.9251461 1.5880263 4.2675781 1.5722656 z M 1.0664062 12.285156 L 7.4667969 12.285156 L 7.4667969 14.427734 L 4.2734375 14.427734 L 4.2675781 14.427734 C 2.9251461 14.411984 2.0387949 14.364781 1.6484375 14.148438 C 1.4528002 14.040019 1.3423452 13.921053 1.2382812 13.642578 C 1.1342066 13.364113 1.0664062 12.91986 1.0664062 12.285156 z M 8.5332031 12.285156 L 14.933594 12.285156 C 14.933594 12.91986 14.865786 13.364113 14.761719 13.642578 C 14.657612 13.921053 14.545246 14.040019 14.349609 14.148438 C 13.959262 14.364769 13.074843 14.411974 11.732422 14.427734 L 8.5332031 14.427734 L 8.5332031 12.285156 z"/>
  </g>
  <g id="touchpad_disabled" transform="translate(22,0)">
    <use href="#box" />
    <use href="#touchpad_enabled" opacity="0.3" />
  </g>
</svg>
