<?xml version="1.0" encoding="UTF-8"?>
<svg xmlns="http://www.w3.org/2000/svg" viewBox="0 0 16 16" version="1.1">
  <defs>
    <style id="current-color-scheme" type="text/css">
      .ColorScheme-Text { color: #939597; }
      .ColorScheme-Highlight { color:#5294e2; }
    </style>
    <linearGradient id="arrongin" x1="0%" x2="0%" y1="0%" y2="100%">
      <stop offset="0%" style="stop-color:#dd9b44; stop-opacity:1"/>
      <stop offset="100%" style="stop-color:#ad6c16; stop-opacity:1"/>
    </linearGradient>
    <linearGradient id="aurora" x1="0%" x2="0%" y1="0%" y2="100%">
      <stop offset="0%" style="stop-color:#09D4DF; stop-opacity:1"/>
      <stop offset="100%" style="stop-color:#9269F4; stop-opacity:1"/>
    </linearGradient>
    <linearGradient id="cyberneon" x1="0%" x2="0%" y1="0%" y2="100%">
      <stop offset="0" style="stop-color:#0abdc6; stop-opacity:1"/>
      <stop offset="1" style="stop-color:#ea00d9; stop-opacity:1"/>
    </linearGradient>
    <linearGradient id="fitdance" x1="0%" x2="0%" y1="0%" y2="100%">
      <stop offset="0%" style="stop-color:#1AD6AB; stop-opacity:1"/>
      <stop offset="100%" style="stop-color:#329DB6; stop-opacity:1"/>
    </linearGradient>
    <linearGradient id="oomox" x1="0%" x2="0%" y1="0%" y2="100%">
      <stop offset="0%" style="stop-color:#c9b184; stop-opacity:1"/>
      <stop offset="100%" style="stop-color:#aa7f2a; stop-opacity:1"/>
    </linearGradient>
    <linearGradient id="rainblue" x1="0%" x2="0%" y1="0%" y2="100%">
      <stop offset="0%" style="stop-color:#00F260; stop-opacity:1"/>
      <stop offset="100%" style="stop-color:#0575E6; stop-opacity:1"/>
    </linearGradient>
    <linearGradient id="sunrise" x1="0%" x2="0%" y1="0%" y2="100%">
      <stop offset="0%" style="stop-color: #FF8501; stop-opacity:1"/>
      <stop offset="100%" style="stop-color: #FFCB01; stop-opacity:1"/>
    </linearGradient>
    <linearGradient id="telinkrin" x1="0%" x2="0%" y1="0%" y2="100%">
      <stop offset="0%" style="stop-color: #b2ced6; stop-opacity:1"/>
      <stop offset="100%" style="stop-color: #6da5b7; stop-opacity:1"/>
    </linearGradient>
    <linearGradient id="60spsycho" x1="0%" x2="0%" y1="0%" y2="100%">
      <stop offset="0%" style="stop-color: #df5940; stop-opacity:1"/>
      <stop offset="25%" style="stop-color: #d8d15f; stop-opacity:1"/>
      <stop offset="50%" style="stop-color: #e9882a; stop-opacity:1"/>
      <stop offset="100%" style="stop-color: #279362; stop-opacity:1"/>
    </linearGradient>
    <linearGradient id="90ssummer" x1="0%" x2="0%" y1="0%" y2="100%">
      <stop offset="0%" style="stop-color: #f618c7; stop-opacity:1"/>
      <stop offset="20%" style="stop-color: #94ffab; stop-opacity:1"/>
      <stop offset="50%" style="stop-color: #fbfd54; stop-opacity:1"/>
      <stop offset="100%" style="stop-color: #0f83ae; stop-opacity:1"/>
    </linearGradient>
  </defs>

  <g id="video-display-brightness">
    <path id="box" fill="none" d="m0 0h16v16h-16z" />
    <path fill="url(#oomox)" class="ColorScheme-Text" d="M 3.994144,1 C 2.7359428,1.0140179 1.8152511,0.9704164 1.0625012,1.3719407 0.6861305,1.5726782 0.38926913,1.9126808 0.2246091,2.3367187 0.05993888,2.7607665 0,3.2643105 0,3.9 v 5.8 c 0,0.63569 0.05990045,1.139242 0.2246091,1.563282 0.1646698,0.424037 0.4615214,0.764049 0.8378921,0.964778 0.7527503,0.401475 1.6734513,0.357856 2.9316428,0.37194 h 0.0039 2.0019542 v 0.966667 H 3.999994 c 0,0 -1.000001,0 -1.000001,0.966666 V 15.5 H 13 v -0.966667 c 0,-0.966666 -1,-0.966666 -1,-0.966666 H 9.9999983 V 12.6 h 2.0019547 0.0039 c 1.25819,-0.01402 2.178892,0.02958 2.931643,-0.37194 0.37637,-0.200739 0.673221,-0.54074 0.837892,-0.964778 C 15.939887,10.839234 16,10.33569 16,9.7 V 3.9 C 16,3.2643105 15.9401,2.7607665 15.775391,2.3367187 15.610734,1.9126808 15.313873,1.5726782 14.937503,1.3719407 14.184752,0.9704449 13.264061,1.014036 12.00586,1 h -0.0039 -8.00391 z m 0.0059,0.9666668 h 8.000004 c 1.258521,0.014206 2.087176,0.057806 2.453126,0.2529948 0.183411,0.097827 0.289161,0.2056449 0.386721,0.4569009 0.09743,0.2512462 0.160156,0.650794 0.160156,1.2234375 v 5.8 c 0,0.572644 -0.0626,0.972201 -0.160156,1.223438 -0.0976,0.251246 -0.20331,0.359084 -0.386721,0.456901 -0.365949,0.195179 -1.194604,0.238775 -2.453126,0.252995 H 4.005905 4.000007 C 2.741476,11.619124 1.9108869,11.575527 1.5449267,11.380339 1.3615139,11.282522 1.2577187,11.174684 1.1601578,10.923438 1.062588,10.672201 1.0000023,10.272644 1.0000023,9.7 V 3.9 c 0,-0.5726435 0.0626,-0.9722008 0.1601555,-1.2234375 C 1.2577578,2.4253162 1.3615139,2.3174784 1.5449242,2.2196616 1.9108844,2.0244819 2.741473,1.9808863 4.0000045,1.9666668 Z" />
    <path fill="url(#oomox)" class="ColorScheme-Text" d="M 8,3 C 7.5945,3.4 7.207375,3.8559063 6.796875,4.2539062 H 5.2539062 V 5.796875 C 4.8559063,6.207375 4.4,6.5945 4,7 4.4,7.4054999 4.8564063,7.8092032 5.2539062,8.2207031 V 9.7460938 H 6.796875 C 7.206875,10.143594 7.5945,10.6 8,11 8.4054999,10.6 8.8092032,10.143594 9.2207031,9.7460938 H 10.746094 V 8.21875 C 11.143593,7.80725 11.6,7.4054999 12,7 11.6,6.5945 11.143593,6.207375 10.746094,5.796875 V 4.2539062 H 9.2207031 C 8.8097031,3.8559064 8.4054999,3.4 8,3 Z M 7.99219,4.6816406 V 9.078125 c -1.2134999,0 -2.1972656,-0.9837657 -2.1972656,-2.1972656 0,-1.214 0.9837657,-2.1992188 2.1972656,-2.1992188 z" />
  </g>
</svg>
