<?xml version="1.0" encoding="UTF-8"?>
<svg xmlns="http://www.w3.org/2000/svg" version="1.1" viewBox="0 0 44 22">
  <defs>
    <style id="current-color-scheme" type="text/css">
      .ColorScheme-Text { color: #939597; }
      .ColorScheme-Highlight { color: #1AD6AB; }
    </style>
    <linearGradient id="arrongin" x1="0%" x2="0%" y1="0%" y2="100%">
      <stop offset="0%" style="stop-color:#dd9b44"/>
      <stop offset="100%" style="stop-color:#ad6c16"/>
    </linearGradient>
    <linearGradient id="aurora" x1="0%" x2="0%" y1="0%" y2="100%">
      <stop offset="0%" style="stop-color:#09D4DF"/>
      <stop offset="100%" style="stop-color:#9269F4"/>
    </linearGradient>
    <linearGradient id="cyberneon" x1="0%" x2="0%" y1="0%" y2="100%">
      <stop offset="0" style="stop-color:#0abdc6"/>
      <stop offset="1" style="stop-color:#ea00d9"/>
    </linearGradient>
    <linearGradient id="fitdance" x1="0%" x2="0%" y1="0%" y2="100%">
      <stop offset="0%" style="stop-color:#1AD6AB"/>
      <stop offset="100%" style="stop-color:#329DB6"/>
    </linearGradient>
    <linearGradient id="oomox" x1="0%" x2="0%" y1="0%" y2="100%">
      <stop offset="0%" style="stop-color:#c9b184"/>
      <stop offset="100%" style="stop-color:#aa7f2a"/>
    </linearGradient>
    <linearGradient id="rainblue" x1="0%" x2="0%" y1="0%" y2="100%">
      <stop offset="0%" style="stop-color:#00F260"/>
      <stop offset="100%" style="stop-color:#0575E6"/>
    </linearGradient>
    <linearGradient id="sunrise" x1="0%" x2="0%" y1="0%" y2="100%">
      <stop offset="0%" style="stop-color:#FF8501"/>
      <stop offset="100%" style="stop-color:#FFCB01"/>
    </linearGradient>
    <linearGradient id="telinkrin" x1="0%" x2="0%" y1="0%" y2="100%">
      <stop offset="0%" style="stop-color:#b2ced6"/>
      <stop offset="100%" style="stop-color:#6da5b7"/>
    </linearGradient>
    <linearGradient id="60spsycho" x1="0%" x2="0%" y1="0%" y2="100%">
      <stop offset="0%" style="stop-color:#df5940"/>
      <stop offset="25%" style="stop-color:#d8d15f"/>
      <stop offset="50%" style="stop-color:#e9882a"/>
      <stop offset="100%" style="stop-color:#279362"/>
    </linearGradient>
    <linearGradient id="90ssummer" x1="0%" x2="0%" y1="0%" y2="100%">
      <stop offset="0%" style="stop-color:#f618c7"/>
      <stop offset="20%" style="stop-color:#94ffab"/>
      <stop offset="50%" style="stop-color:#fbfd54"/>
      <stop offset="100%" style="stop-color:#0f83ae"/>
    </linearGradient>

    <path id="box" fill="none" d="m0 0h16v16h-16z" />
  </defs>

  <g id="view-history" transform="translate(0,0)">
    <use href="#box" />
    <path fill="url(#oomox)" class="ColorScheme-Text" d="M 8 1 C 6.20855 1 4.4176312 1.6839313 3.0507812 3.0507812 C 0.31708125 5.7844812 0.31708125 10.215519 3.0507812 12.949219 C 5.7844812 15.682919 10.215519 15.682919 12.949219 12.949219 C 15.682919 10.215519 15.682919 5.7844812 12.949219 3.0507812 C 11.582369 1.6839313 9.79145 1 8 1 z M 7.9277344 3 A 5 5 0 0 1 11.535156 4.4648438 A 5 5 0 0 1 11.535156 11.535156 A 5 5 0 0 1 4.4648438 11.535156 A 5 5 0 0 1 4.4648438 4.4648438 A 5 5 0 0 1 7.9277344 3 z M 6.9960938 4 L 6.9960938 4.1328125 L 6.9960938 8.4140625 L 8.703125 10.121094 L 9.3183594 10.736328 L 9.4101562 10.828125 L 10.117188 10.121094 L 10.824219 9.4140625 L 10.730469 9.3203125 L 10.117188 8.7070312 L 8.9960938 7.5859375 L 8.9960938 4.1328125 L 8.9960938 4 L 6.9960938 4 z"/>
  </g>
  <g id="view-refresh" transform="translate(22,0)">
    <use href="#box" />
    <path fill="url(#oomox)" class="ColorScheme-Text" d="M 8 1.015625 C 4.134 1.015625 1 4.149625 1 8.015625 C 1 11.881625 4.134 15.015625 8 15.015625 C 11.1748 15.015625 13.86145 12.912425 14.71875 10.015625 L 12.5625 10.015625 C 11.78823 11.775125 10.0457 13.015625 8 13.015625 C 5.2386 13.015625 3 10.777025 3 8.015625 C 3 5.254225 5.2386 3.015625 8 3.015625 C 9.3816 3.015625 10.615525 3.59065 11.515625 4.5 L 9.0058594 7.015625 L 15.005859 7.015625 L 15.005859 1.015625 L 12.953125 3.0683594 C 11.683125 1.8033594 9.9339063 1.015625 8.0039062 1.015625 L 8 1.015625 z"/>
  </g>
</svg>
