<?xml version="1.0" encoding="UTF-8"?>
<svg xmlns="http://www.w3.org/2000/svg" version="1.1" viewBox="0 0 44 22">
  <defs>
    <style id="current-color-scheme" type="text/css">
      .ColorScheme-Text { color: #939597; }
      .ColorScheme-Highlight { color: #1AD6AB; }
    </style>
    <linearGradient id="arrongin" x1="0%" x2="0%" y1="0%" y2="100%">
      <stop offset="0%" style="stop-color:#dd9b44"/>
      <stop offset="100%" style="stop-color:#ad6c16"/>
    </linearGradient>
    <linearGradient id="aurora" x1="0%" x2="0%" y1="0%" y2="100%">
      <stop offset="0%" style="stop-color:#09D4DF"/>
      <stop offset="100%" style="stop-color:#9269F4"/>
    </linearGradient>
    <linearGradient id="cyberneon" x1="0%" x2="0%" y1="0%" y2="100%">
      <stop offset="0" style="stop-color:#0abdc6"/>
      <stop offset="1" style="stop-color:#ea00d9"/>
    </linearGradient>
    <linearGradient id="fitdance" x1="0%" x2="0%" y1="0%" y2="100%">
      <stop offset="0%" style="stop-color:#1AD6AB"/>
      <stop offset="100%" style="stop-color:#329DB6"/>
    </linearGradient>
    <linearGradient id="oomox" x1="0%" x2="0%" y1="0%" y2="100%">
      <stop offset="0%" style="stop-color:#c9b184"/>
      <stop offset="100%" style="stop-color:#aa7f2a"/>
    </linearGradient>
    <linearGradient id="rainblue" x1="0%" x2="0%" y1="0%" y2="100%">
      <stop offset="0%" style="stop-color:#00F260"/>
      <stop offset="100%" style="stop-color:#0575E6"/>
    </linearGradient>
    <linearGradient id="sunrise" x1="0%" x2="0%" y1="0%" y2="100%">
      <stop offset="0%" style="stop-color:#FF8501"/>
      <stop offset="100%" style="stop-color:#FFCB01"/>
    </linearGradient>
    <linearGradient id="telinkrin" x1="0%" x2="0%" y1="0%" y2="100%">
      <stop offset="0%" style="stop-color:#b2ced6"/>
      <stop offset="100%" style="stop-color:#6da5b7"/>
    </linearGradient>
    <linearGradient id="60spsycho" x1="0%" x2="0%" y1="0%" y2="100%">
      <stop offset="0%" style="stop-color:#df5940"/>
      <stop offset="25%" style="stop-color:#d8d15f"/>
      <stop offset="50%" style="stop-color:#e9882a"/>
      <stop offset="100%" style="stop-color:#279362"/>
    </linearGradient>
    <linearGradient id="90ssummer" x1="0%" x2="0%" y1="0%" y2="100%">
      <stop offset="0%" style="stop-color:#f618c7"/>
      <stop offset="20%" style="stop-color:#94ffab"/>
      <stop offset="50%" style="stop-color:#fbfd54"/>
      <stop offset="100%" style="stop-color:#0f83ae"/>
    </linearGradient>

    <path id="box" fill="none" d="m0 0h16v16h-16z" />
  </defs>

  <g id="wallet-closed" transform="translate(0,0)">
    <use href="#box" />
    <path fill="url(#oomox)" class="ColorScheme-Text" d="M 14.154 3.692 L 1.63 3.692 C 1.089 3.692 0.608 3.584 0.608 3.077 L 14.154 2.462 L 14.154 1.231 C 14.154 0.212 13.327 0 12.308 0 L 1.243 1.846 C 0.257 2.065 0 2.483 0 3.077 L 0 14.154 C 0 15.173 0.827 16 1.846 16 L 14.154 16 C 15.173 16 16 15.173 16 14.154 L 16 5.538 C 16 4.519 15.173 3.692 14.154 3.692 Z M 13.538 11.077 C 12.859 11.077 12.308 10.526 12.308 9.846 C 12.308 9.166 12.859 8.615 13.538 8.615 C 14.218 8.615 14.769 9.166 14.769 9.846 C 14.769 10.526 14.218 11.077 13.538 11.077 Z"/>
  </g>
  <g id="wallet-open" transform="translate(22,0)">
    <use href="#box" />
    <use href="#wallet-closed" />
    <path fill="currentColor" class="ColorScheme-Highlight" d="M 8.7763914,15.5 H 7.3229775 v -1.12245 0 Q 6.4782598,14.190474 5.8819861,13.629251 v 0 0 Q 5.2857144,13.068025 5,12.219954 v 0 l 1.3788802,-0.511339 v 0 q 0.2608705,0.611111 0.7204962,0.97279 v 0 0 q 0.4596268,0.361678 1.043477,0.361678 v 0 0 q 0.6086941,0 0.9689423,-0.318029 v 0 0 Q 9.4720433,12.407028 9.4720433,11.83333 v 0 0 q 0,-0.299318 -0.124223,-0.530045 v 0 0 Q 9.2235967,11.072562 8.9316716,10.885483 v 0 0 Q 8.6397465,10.69841 8.4099326,10.598638 v 0 0 Q 8.1801197,10.498871 7.7329155,10.324262 v 0 0 Q 7.2732887,10.14966 7.0372652,10.043649 v 0 0 Q 6.8012406,9.9376416 6.4099358,9.7069138 v 0 0 Q 6.0186331,9.4761895 5.8260856,9.2392268 v 0 0 Q 5.633539,9.0022675 5.4782609,8.6156443 v 0 0 Q 5.3229818,8.229024 5.3229818,7.755102 v 0 0 q 0,-0.8356006 0.5279497,-1.4529485 v 0 0 q 0.5279487,-0.6173456 1.472046,-0.804422 v 0 V 4.5 h 1.4534139 v 1.0102035 0 q 0.7329189,0.1746044 1.1987569,0.6422914 v 0 0 q 0.4658377,0.467687 0.6645957,1.153627 v 0 L 9.2981304,7.755102 v 0 Q 8.9378823,6.8571418 7.9316737,6.8571418 v 0 0 q -0.5093155,0 -0.7950309,0.236962 v 0 0 Q 6.8509304,7.3310658 6.8509304,7.755102 v 0 0 q 0,0.1870744 0.086958,0.3492046 v 0 0 q 0.086958,0.1621332 0.2049689,0.2681409 v 0 0 Q 7.2608701,8.478458 7.5031054,8.6031724 v 0 0 q 0.2422353,0.1247173 0.4037262,0.187077 v 0 0 q 0.1614899,0.062356 0.4968941,0.1870743 v 0 0 q 0.4099372,0.1621305 0.6086945,0.2494312 v 0 0 q 0.1987572,0.087303 0.5714281,0.2743784 v 0 0 q 0.37267,0.1870743 0.5714277,0.3803856 v 0 0 q 0.198757,0.1933091 0.422359,0.4739221 v 0 0 q 0.223603,0.280611 0.322981,0.648526 v 0 0 q 0.09938,0.367913 0.09938,0.816891 v 0 0 q 0,1.060092 -0.621118,1.733563 v 0 0 q -0.6211137,0.673468 -1.6024793,0.848071 v 0 z"
     id="path132" />
  </g>
</svg>
