<?xml version="1.0" encoding="UTF-8"?>
<svg xmlns="http://www.w3.org/2000/svg" version="1.1" viewBox="0 0 44 44">
  <defs>
    <style id="current-color-scheme" type="text/css">
      .ColorScheme-Text { color: #939597; }
      .ColorScheme-Highlight { color: #1AD6AB; }
    </style>
    <linearGradient id="arrongin" x1="0%" x2="0%" y1="0%" y2="100%">
      <stop offset="0%" style="stop-color:#dd9b44"/>
      <stop offset="100%" style="stop-color:#ad6c16"/>
    </linearGradient>
    <linearGradient id="aurora" x1="0%" x2="0%" y1="0%" y2="100%">
      <stop offset="0%" style="stop-color:#09D4DF"/>
      <stop offset="100%" style="stop-color:#9269F4"/>
    </linearGradient>
    <linearGradient id="cyberneon" x1="0%" x2="0%" y1="0%" y2="100%">
      <stop offset="0" style="stop-color:#0abdc6"/>
      <stop offset="1" style="stop-color:#ea00d9"/>
    </linearGradient>
    <linearGradient id="fitdance" x1="0%" x2="0%" y1="0%" y2="100%">
      <stop offset="0%" style="stop-color:#1AD6AB"/>
      <stop offset="100%" style="stop-color:#329DB6"/>
    </linearGradient>
    <linearGradient id="oomox" x1="0%" x2="0%" y1="0%" y2="100%">
      <stop offset="0%" style="stop-color:#c9b184"/>
      <stop offset="100%" style="stop-color:#aa7f2a"/>
    </linearGradient>
    <linearGradient id="rainblue" x1="0%" x2="0%" y1="0%" y2="100%">
      <stop offset="0%" style="stop-color:#00F260"/>
      <stop offset="100%" style="stop-color:#0575E6"/>
    </linearGradient>
    <linearGradient id="sunrise" x1="0%" x2="0%" y1="0%" y2="100%">
      <stop offset="0%" style="stop-color:#FF8501"/>
      <stop offset="100%" style="stop-color:#FFCB01"/>
    </linearGradient>
    <linearGradient id="telinkrin" x1="0%" x2="0%" y1="0%" y2="100%">
      <stop offset="0%" style="stop-color:#b2ced6"/>
      <stop offset="100%" style="stop-color:#6da5b7"/>
    </linearGradient>
    <linearGradient id="60spsycho" x1="0%" x2="0%" y1="0%" y2="100%">
      <stop offset="0%" style="stop-color:#df5940"/>
      <stop offset="25%" style="stop-color:#d8d15f"/>
      <stop offset="50%" style="stop-color:#e9882a"/>
      <stop offset="100%" style="stop-color:#279362"/>
    </linearGradient>
    <linearGradient id="90ssummer" x1="0%" x2="0%" y1="0%" y2="100%">
      <stop offset="0%" style="stop-color:#f618c7"/>
      <stop offset="20%" style="stop-color:#94ffab"/>
      <stop offset="50%" style="stop-color:#fbfd54"/>
      <stop offset="100%" style="stop-color:#0f83ae"/>
    </linearGradient>

    <path id="box" fill="none" d="m0 0h16v16h-16z" />
  </defs>

  <g id="window-list" transform="translate(0,0)">
    <use href="#box" />
    <path fill="url(#oomox)" class="ColorScheme-Text" d="m 1,1 v 5.6 h 5.6 v -5.6 z m 8.4,0 v 5.6 H 15 v -5.6 z m -8.4,8.4 V 15 H 6.6 V 9.5 Z m 8.4,0 V 15 H 15 V 9.5 Z"/>
  </g>
  <g id="edit-delete" transform="translate(22,0)">
    <use href="#box" />
    <path fill="url(#oomox)" class="ColorScheme-Text" d="M 8.0292969 1.0625 C 4.1759969 1.0625 1.0605469 4.17785 1.0605469 8.03125 C 1.0605469 11.88455 4.1758969 15 8.0292969 15 C 11.882597 15 14.998047 11.88465 14.998047 8.03125 C 14.998047 4.17795 11.882697 1.0625 8.0292969 1.0625 z M 5 5.0039062 L 6 5.0039062 C 6.27614 5.0039062 6.53779 5.1041862 6.71875 5.2851562 L 8 6.5625 L 9.28125 5.2851562 C 9.46125 5.1041563 9.7219531 5.0039062 10.001953 5.0039062 L 11.001953 5.0039062 L 11.001953 6.0039062 C 11.001953 6.2800462 10.901663 6.5416862 10.720703 6.7226562 L 9.4394531 8 L 10.720703 9.2851562 C 10.901663 9.4661263 11.003323 9.7277663 11.001953 10.003906 L 11.001953 11.003906 L 10.001953 11.003906 C 9.7258131 11.003906 9.4641631 10.903626 9.2832031 10.722656 L 8.0019531 9.4375 L 6.7207031 10.722656 C 6.5407031 10.902656 6.28 11.001953 6 11.001953 L 5 11.001953 L 5 10.001953 C 5 9.7258131 5.10029 9.4641731 5.28125 9.2832031 L 6.5625 7.9980469 L 5.28125 6.7207031 C 5.10125 6.5407031 5.0019531 6.2779531 5.0019531 6.0019531 L 5 5.0039062 z"/>
  </g>
  <g id="window-pin" transform="translate(0,22)">
    <use href="#box" />
    <path fill="url(#oomox)" class="ColorScheme-Text" d="M 10,0 C 9.2214971,0.7785032 9.0632941,2.1686877 9.9687501,3.6875 L 5.71875,6.53125 C 5.1903433,6.318042 4.6231563,6.159067 4.0625,6.15625 3.3337402,6.15255 2.625,6.375 2,7 l 3,3 -4,4 -1,2 2,-1 4,-4 3.0000001,3 c 1.1069639,-1.106964 0.964749,-2.507767 0.46875,-3.71875 L 12.3125,6.03125 C 13.831312,6.936706 15.221497,6.778503 16,6 Z" />
  </g>
  <g id="window-unpin" transform="translate(22,22)">
    <use href="#box" />
    <path fill="url(#oomox)" class="ColorScheme-Text" d="M 10 -0.02734375 C 9.221497 0.75115945 9.063294 2.141344 9.96875 3.6601562 L 7.9863281 4.9863281 L 10.986328 7.9863281 L 12.3125 6.0039062 C 13.831312 6.9093623 15.221497 6.7511594 16 5.9726562 L 10 -0.02734375 z M 2.5 1 L 1 2.5 L 4.6992188 6.1992188 C 4.4876025 6.1589385 4.2747019 6.1299725 4.0625 6.1289062 C 3.33374 6.1252064 2.625 6.3476563 2 6.9726562 L 5 9.9726562 L 1 13.972656 L 0 15.972656 L 2 14.972656 L 6 10.972656 L 9 13.972656 C 9.8066106 13.166046 9.9449766 12.203003 9.7714844 11.271484 L 13.5 15 L 15 13.5 L 2.5 1 z " />
  </g>
</svg>
