<?xml version="1.0" encoding="UTF-8"?>
<svg xmlns="http://www.w3.org/2000/svg" version="1.1" viewBox="0 0 44 22">
  <defs>
    <style id="current-color-scheme" type="text/css">
      .ColorScheme-Text { color: #939597; }
      .ColorScheme-Highlight { color: #1AD6AB; }
    </style>
    <linearGradient id="arrongin" x1="0%" x2="0%" y1="0%" y2="100%">
      <stop offset="0%" style="stop-color:#dd9b44"/>
      <stop offset="100%" style="stop-color:#ad6c16"/>
    </linearGradient>
    <linearGradient id="aurora" x1="0%" x2="0%" y1="0%" y2="100%">
      <stop offset="0%" style="stop-color:#09D4DF"/>
      <stop offset="100%" style="stop-color:#9269F4"/>
    </linearGradient>
    <linearGradient id="cyberneon" x1="0%" x2="0%" y1="0%" y2="100%">
      <stop offset="0" style="stop-color:#0abdc6"/>
      <stop offset="1" style="stop-color:#ea00d9"/>
    </linearGradient>
    <linearGradient id="fitdance" x1="0%" x2="0%" y1="0%" y2="100%">
      <stop offset="0%" style="stop-color:#1AD6AB"/>
      <stop offset="100%" style="stop-color:#329DB6"/>
    </linearGradient>
    <linearGradient id="oomox" x1="0%" x2="0%" y1="0%" y2="100%">
      <stop offset="0%" style="stop-color:#c9b184"/>
      <stop offset="100%" style="stop-color:#aa7f2a"/>
    </linearGradient>
    <linearGradient id="rainblue" x1="0%" x2="0%" y1="0%" y2="100%">
      <stop offset="0%" style="stop-color:#00F260"/>
      <stop offset="100%" style="stop-color:#0575E6"/>
    </linearGradient>
    <linearGradient id="sunrise" x1="0%" x2="0%" y1="0%" y2="100%">
      <stop offset="0%" style="stop-color:#FF8501"/>
      <stop offset="100%" style="stop-color:#FFCB01"/>
    </linearGradient>
    <linearGradient id="telinkrin" x1="0%" x2="0%" y1="0%" y2="100%">
      <stop offset="0%" style="stop-color:#b2ced6"/>
      <stop offset="100%" style="stop-color:#6da5b7"/>
    </linearGradient>
    <linearGradient id="60spsycho" x1="0%" x2="0%" y1="0%" y2="100%">
      <stop offset="0%" style="stop-color:#df5940"/>
      <stop offset="25%" style="stop-color:#d8d15f"/>
      <stop offset="50%" style="stop-color:#e9882a"/>
      <stop offset="100%" style="stop-color:#279362"/>
    </linearGradient>
    <linearGradient id="90ssummer" x1="0%" x2="0%" y1="0%" y2="100%">
      <stop offset="0%" style="stop-color:#f618c7"/>
      <stop offset="20%" style="stop-color:#94ffab"/>
      <stop offset="50%" style="stop-color:#fbfd54"/>
      <stop offset="100%" style="stop-color:#0f83ae"/>
    </linearGradient>

    <path id="box" fill="none" d="m0 0h16v16h-16z" />
  </defs>

  <g id="zoom-fit-width" transform="translate(0,0)">
    <use href="#box" />
    <path fill="url(#oomox)" class="ColorScheme-Text" d="M 3.1875 2 C 2.5248 2 2 2.54895 2 3.21875 L 2 7 L 4 7 L 4 4 L 7 4 L 7 2 L 3.1875 2 z M 9 2 L 9 4 L 12 4 L 12 7 L 14 7 L 14 3.21875 C 14 2.54885 13.4755 2 12.8125 2 L 9 2 z M 7 5 L 7 11 L 9 11 L 9 5 L 7 5 z M 6 6 L 4 8 L 6 10 L 6 6 z M 10 6 L 10 10 L 12 8 L 10 6 z M 2 9 L 2 12.78125 C 2 13.45125 2.5248 14 3.1875 14 L 7 14 L 7 12 L 4 12 L 4 9 L 2 9 z M 12 9 L 12 12 L 9 12 L 9 14 L 12.8125 14 C 13.4755 14 14 13.45125 14 12.78125 L 14 9 L 12 9 z"/>
  </g>
  <g id="zoom-fit-height" transform="translate(22,0)">
    <use href="#box" />
    <path fill="url(#oomox)" class="ColorScheme-Text" d="M 3.21875 2 C 2.54894 2 2 2.5248 2 3.1875 L 2 7 L 4 7 L 4 4 L 7 4 L 7 2 L 3.21875 2 z M 9 2 L 9 4 L 12 4 L 12 7 L 14 7 L 14 3.1875 C 14 2.5248 13.45106 2 12.78125 2 L 9 2 z M 8 4 L 6 6 L 10 6 L 8 4 z M 5 7 L 5 9 L 11 9 L 11 7 L 5 7 z M 2 9 L 2 12.8125 C 2 13.4752 2.54894 14 3.21875 14 L 7 14 L 7 12 L 4 12 L 4 9 L 2 9 z M 12 9 L 12 12 L 9 12 L 9 14 L 12.78125 14 C 13.45106 14 14 13.4752 14 12.8125 L 14 9 L 12 9 z M 6 10 L 8 12 L 10 10 L 6 10 z"/>
  </g>
</svg>
